<?xml version="1.0" encoding="UTF-8"?>
<svg width="147px" height="26px" viewBox="0 0 147 26" version="1.1" xmlns="http://www.w3.org/2000/svg" xmlns:xlink="http://www.w3.org/1999/xlink">
    <!-- Generator: Sketch 45.1 (43504) - http://www.bohemiancoding.com/sketch -->
    <title>Adult Swim</title>
    <desc>Created with Sketch.</desc>
    <defs></defs>
    <g id="Components" stroke="none" stroke-width="1" fill="none" fill-rule="evenodd">
        <g id="Testimonials" transform="translate(-1143.000000, -2414.000000)" fill="#3fa2f7">
            <g id="Testimonials-#5" transform="translate(0.000000, 2304.000000)">
                <g id="Logos" transform="translate(150.000000, 100.000000)">
                    <g id="Adult-Swim" transform="translate(993.000000, 10.000000)">
                        <polygon id="Fill-1" points="137 20 137 20.6898248 138.666852 20.6898248 138.666852 26 139.333148 26 139.333148 20.6898248 141 20.6898248 141 20"></polygon>
                        <path d="M145,24 L145.4,24 L146.011802,25.6817629 L146.6,24 L147,24 L147,26 L146.741306,26 L146.741306,24.8179331 L146.741306,24.6139818 L146.741306,24.3182371 L146.153108,26 L145.87081,26 L145.258694,24.3182371 L145.258694,24.3863222 C145.258694,24.4319149 145.258694,24.5227964 145.282297,24.6139818 L145.282297,24.8410334 L145.282297,26 L145.023289,26 L145.023289,24 L145,24 L145,24 Z" id="Fill-2"></path>
                        <path d="M12.7377039,10.032553 C12.7666795,8.71982443 13.1422033,7.95391368 14.5001932,7.95391368 C15.5688133,7.95391368 16.0022883,8.5555962 16.0022883,9.48573519 C16.0022883,10.6346013 15.7422806,10.8529627 14.2687747,11.2359181 C12.9401468,11.5640088 11.1490683,11.8653987 9.96454575,12.4667154 C8.78002318,13.0958303 8,14.5727871 8,16.3504023 C8,19.6324067 9.56004636,21 12.2756397,21 C13.8932509,21 15.3953461,20.2066569 16.0602395,18.866496 L16.1178044,18.866496 C16.14678,19.4685443 16.2047312,20.069861 16.3778121,20.6166789 L21,20.6166789 C20.4220333,19.9334309 20.4220333,18.4835406 20.4220333,17.3350402 L20.4220333,9.51280176 C20.4220333,6.31309437 18.6599305,5 14.7312253,5 C12.7377039,5 11.3801004,5.24652524 10.2535291,5.98500366 C9.12657137,6.72311631 8.46245059,7.98134601 8.43347499,10.0599854 L12.7377039,10.0599854 L12.7377039,10.032553 Z M12.6511635,15.8855157 C12.6511635,15.0376737 12.8821956,14.5727871 13.4022111,14.189466 C13.8356861,13.861741 14.5001932,13.8343087 16.0022883,13.068398 C16.0022883,13.6975128 15.9733127,14.4630578 15.9733127,15.7487198 C15.9733127,17.2801756 15.0487979,17.8273592 14.0377426,17.8273592 C13.1422033,17.8273592 12.6511635,17.0888808 12.6511635,15.8855157 L12.6511635,15.8855157 Z" id="Fill-4"></path>
                        <path d="M30.4183875,20.5793026 L35,20.5793026 L35,0 L30.2181047,0 L30.2181047,6.7007874 L30.1610452,6.7007874 C29.3587651,5.01874766 27.9272984,4.59805024 26.6099508,4.59805024 C22.6870121,4.59805024 22,8.07461567 22,12.9250094 C22,18.7570304 23.7179132,21 26.9251186,21 C29.0439803,21 30.0178219,19.7660292 30.361328,18.7007874 L30.4183875,18.7007874 L30.4183875,20.5793026 Z M30.3326067,12.8691414 C30.3326067,15.8972628 30.0461602,17.5793026 28.6146935,17.5793026 C26.8106165,17.5793026 26.7531741,15.1961005 26.7531741,12.6726659 C26.7531741,9.84101987 26.8389548,7.96250469 28.5859723,7.96250469 C30.1893835,7.96250469 30.3326067,10.0933633 30.3326067,12.8691414 L30.3326067,12.8691414 Z" id="Fill-6"></path>
                        <path d="M48.9705001,20.6069635 L44.2646819,20.6069635 L44.2646819,18.7540237 L44.2056821,18.7540237 C43.5000454,20.1298391 42.0879852,21 40.2648936,21 C37.4706665,21 36,19.6804936 36,16.6769743 L36,5 L40.911924,5 L40.911924,15.6386373 C40.911924,16.7614378 41.4118484,17.4348928 42.3235908,17.4348928 C43.2648331,17.4348928 44.088076,16.7332833 44.088076,15.2174464 L44.088076,5 L49,5 L49,20.6069635 L48.9705001,20.6069635 Z" id="Fill-8"></path>
                        <polygon id="Fill-10" points="51 20 56 20 56 0 51 0"></polygon>
                        <path d="M58.9841914,8.66878182 L57,8.66878182 L57,5.49642146 L58.9841914,5.49642146 L58.9841914,1 L63.7858577,1 L63.7858577,5.49642146 L66,5.49642146 L66,8.66878182 L63.7858577,8.66878182 L63.7858577,16.4205711 C63.7858577,17.4963477 64.188464,17.8276396 65.3101474,17.8276396 C65.5112583,17.8276396 65.7700491,17.7996016 66,17.7719324 L66,20.834354 C65.079812,20.9446617 64.159624,21 63.2398206,21 C59.9332194,21 58.9841914,20.4207924 58.9841914,16.8618018 L58.9841914,8.66878182 Z" id="Fill-12"></path>
                        <path d="M75.5881872,15.7760327 C75.6188678,16.4596621 75.6802291,17.0339254 75.924856,17.4991884 C76.2001636,17.9092198 76.6894175,18.2102508 77.4846597,18.2102508 C78.6775229,18.2102508 79.32018,17.5262556 79.32018,16.6513271 C79.32018,15.939899 78.9532396,15.2837025 77.3623462,14.7913723 C73.1717801,13.5334796 71.1529941,12.7949843 71.1529941,9.59483803 C71.1529941,6.55892371 73.5387205,5 77.6376538,5 C82.4095157,5 83.8167343,7.07868688 83.8167343,9.26673982 L83.8167343,9.78613721 L79.2894994,9.78613721 L79.2894994,9.51290492 C79.2894994,8.20014631 78.6775229,7.8168164 77.6069732,7.8168164 C76.2611158,7.8168164 75.8634948,8.41887845 75.8634948,9.2118739 C75.8634948,11.91969 84,10.1142354 84,16.0221978 C84,19.0855451 81.7059064,21 77.4846597,21 C72.9271532,21 71,19.4685092 71,16.4325949 L71,15.7489655 L75.5881872,15.7489655 L75.5881872,15.7760327 Z" id="Fill-13"></path>
                        <polygon id="Fill-14" points="84 5 88.7138928 5 90.2098215 16.0611199 90.2664426 16.0611199 92.0443442 5 97.096831 5 98.7622454 16.0611199 98.818489 16.0611199 100.483903 5 105 5 101.612928 20 96.3064009 20 94.5847429 8.93888007 94.5281218 8.93888007 92.6935991 20 87.3025183 20"></polygon>
                        <path d="M106,3.62263437 L111,3.62263437 L111,0 L106,0 L106,3.62263437 Z M106,21 L111,21 L111,5.26419379 L106,5.26419379 L106,21 Z" id="Fill-15"></path>
                        <path d="M113.027978,5.39304568 L117.490991,5.39304568 L117.490991,7.24565355 L117.546574,7.24565355 C118.216175,5.87018137 119.555004,5 121.284403,5 C122.623606,5 124.408587,5.25227001 125.105793,7.38605382 C126.193569,5.56122569 127.226135,5 128.955161,5 C131.605215,5 133,6.31916192 133,9.3227517 L133,21 L128.341515,21 L128.341515,10.3614885 C128.341515,9.23866169 127.867385,8.56481547 127.002686,8.56481547 C126.110009,8.56481547 125.329242,9.26681683 125.329242,10.7823139 L125.329242,21 L120.670758,21 L120.670758,10.3614885 C120.670758,9.23866169 120.196628,8.56481547 119.331928,8.56481547 C118.439251,8.56481547 117.658485,9.26681683 117.658485,10.7823139 L117.658485,21 L113,21 L113,5.39304568 L113.027978,5.39304568 Z" id="Fill-16"></path>
                        <polygon id="Fill-17" points="0 0 7 0 7 3.23935785 4.14649452 3.23935785 4.14649452 22.7602654 7 22.7602654 7 26 0 26"></polygon>
                        <polygon id="Fill-18" points="134 22.7602654 136.853866 22.7602654 136.853866 3.23935785 134 3.23935785 134 0 141 0 141 26 134 26"></polygon>
                    </g>
                </g>
            </g>
        </g>
    </g>
</svg>