
<svg width="103px" height="32px" viewBox="0 0 103 32" version="1.1" xmlns="http://www.w3.org/2000/svg" xmlns:xlink="http://www.w3.org/1999/xlink">
    <!-- Generator: Sketch 46.2 (44496) - http://www.bohemiancoding.com/sketch -->
    <desc>Created with Sketch.</desc>
    <defs></defs>
    <g id="Components" stroke="none" stroke-width="1" fill="none" fill-rule="evenodd">
        <g id="Contents" transform="translate(-260.000000, -9338.000000)" fill="#D4E7F8">
            <g id="Contents-#16" transform="translate(0.000000, 8950.000000)">
                <g id="Logos" transform="translate(150.000000, 388.000000)">
                    <path d="M137.771035,25.9135863 C137.545697,27.5794402 136.419788,29.0209695 134.84281,29.6615625 C134.070781,29.981859 133.234089,30.0778309 132.397398,29.981859 C131.593233,29.8858871 130.788677,29.6295718 129.951985,29.148932 C128.793941,28.508339 127.635505,27.5154589 126.283866,26.0419389 C128.407535,23.4471862 129.694903,21.0771482 130.177324,18.9630352 C130.402662,17.9697649 130.434797,17.0728567 130.338392,16.2403199 C130.209459,15.4393836 129.91985,14.7024286 129.469565,14.0618356 C128.471805,12.6206964 126.798814,11.7877694 124.932619,11.7877694 C123.066424,11.7877694 121.393041,12.652687 120.395673,14.0618356 C119.944996,14.7024286 119.655387,15.4393836 119.526846,16.2403199 C119.398305,17.0728567 119.430441,18.0017556 119.687914,18.9630352 C120.170335,21.0771482 121.489839,23.4791768 123.58098,26.0739296 C122.261868,27.5474495 121.071297,28.5403297 119.912861,29.1809227 C119.076561,29.6615625 118.272005,29.9178777 117.467448,30.0138496 C116.598621,30.1098215 115.762322,29.981859 115.022036,29.6935531 C113.44545,29.0529601 112.319149,27.6114308 112.094203,25.945967 C111.997405,25.1450307 112.062067,24.3440944 112.383812,23.4471862 C112.480217,23.1268897 112.641285,22.8065932 112.801962,22.4223154 C113.0273,21.909685 113.284774,21.3650639 113.541856,20.8208329 L113.574383,20.7564615 C115.794457,15.9840047 118.175599,11.1151858 120.653147,6.37432946 L120.749553,6.18199551 C121.007026,5.70174583 121.2645,5.18911538 121.521974,4.70847557 C121.779056,4.19623525 122.068665,3.71559544 122.422936,3.29932703 C123.098559,2.53038135 123.999522,2.11411294 124.996889,2.11411294 C125.994257,2.11411294 126.895219,2.53038135 127.570843,3.29932703 C127.925114,3.71559544 128.214723,4.19623525 128.471805,4.70847557 C128.729279,5.18911538 128.986752,5.70174583 129.244226,6.18199551 L129.340632,6.37432946 C131.786045,11.1471764 134.167187,16.0159953 136.387653,20.7888423 L136.387653,20.8208329 C136.644735,21.3330732 136.870073,21.909685 137.127547,22.4223154 C137.288223,22.8065932 137.449291,23.1268897 137.545697,23.4471862 C137.80317,24.2801131 137.899968,25.0810494 137.771035,25.9135863 L137.771035,25.9135863 Z M124.932619,24.4084658 C123.194965,22.2299815 122.068665,20.1802399 121.68265,18.4504048 C121.521974,17.7134497 121.489839,17.0728567 121.586244,16.496245 C121.650515,15.9840047 121.843718,15.5353555 122.101192,15.1510777 C122.712545,14.2861601 123.742048,13.7415391 124.932619,13.7415391 C126.12319,13.7415391 127.184828,14.2541695 127.764046,15.1510777 C128.02152,15.5353555 128.214723,15.9840047 128.278994,16.496245 C128.375399,17.0728567 128.343264,17.7454404 128.182196,18.4504048 C127.796181,20.1478592 126.670273,22.1979908 124.932619,24.4084658 L124.932619,24.4084658 Z M139.444027,22.7426119 C139.28335,22.3583341 139.122674,21.9416756 138.961606,21.5893885 C138.704132,21.0127767 138.446659,20.4685458 138.22132,19.9559153 L138.189185,19.9239247 C135.969111,15.1190871 133.587969,10.2502682 131.078286,5.44543061 L130.98188,5.25309665 C130.724406,4.77284697 130.466933,4.26021652 130.209459,3.74758607 C129.887715,3.17097435 129.56597,2.56237199 129.051023,1.9861504 C128.02152,0.704574271 126.54134,0 124.964754,0 C123.356033,0 121.907988,0.704574271 120.845958,1.92177899 C120.363538,2.49839071 120.009658,3.10699308 119.687914,3.6836048 C119.430441,4.19623525 119.172967,4.70847557 118.915493,5.18911538 L118.819087,5.38144933 C116.34154,10.1862869 113.928262,15.0551058 111.707796,19.8595533 L111.675661,19.9239247 C111.450714,20.436165 111.193241,20.9807861 110.935767,21.5573978 C110.774699,21.909685 110.614023,22.2939627 110.452955,22.7106213 C110.034805,23.8958354 109.906264,25.016678 110.06694,26.1699015 C110.420819,28.5723203 112.02954,30.5904613 114.250006,31.4873696 C115.086306,31.8396567 115.955133,32 116.856095,32 C117.113569,32 117.435313,31.9676192 117.692787,31.9356286 C118.754817,31.807666 119.84859,31.4553789 120.910621,30.8467766 C122.229733,30.1098215 123.484574,29.0529601 124.900484,27.5154589 C126.316001,29.0529601 127.60337,30.1098215 128.890347,30.8467766 C129.951985,31.4553789 131.04615,31.807666 132.107789,31.9356286 C132.365262,31.9676192 132.687007,32 132.94448,32 C133.845442,32 134.746405,31.8396567 135.550961,31.4873696 C137.80317,30.5904613 139.379756,28.5403297 139.733636,26.1699015 C139.991109,25.0490588 139.862568,23.927826 139.444027,22.7426119 L139.444027,22.7426119 Z M171.524391,11.4674729 C172.457489,11.4674729 172.940301,11.6274261 172.940301,11.6274261 L172.940301,14.4784941 C172.940301,14.4784941 170.365955,13.6135765 168.757235,15.4393836 L168.757235,23.8638447 L165.668334,23.8638447 L165.668334,11.7877694 L168.274422,11.7877694 C168.531896,11.7877694 168.725099,12.012094 168.725099,12.2360285 L168.725099,12.7486589 C169.304317,12.0760753 170.559159,11.4674729 171.524391,11.4674729 L171.524391,11.4674729 Z M179.890132,21.2371013 C178.699561,21.2371013 177.766464,20.628499 177.284043,19.9239247 L177.284043,15.6317175 C177.766464,14.9907344 178.796359,14.3181508 179.890132,14.3181508 C181.94953,14.3181508 183.526116,15.5993368 183.526116,17.7778211 C183.526116,19.9559153 181.94953,21.2371013 179.890132,21.2371013 L179.890132,21.2371013 Z M180.40508,11.4674729 C178.281411,11.4674729 177.284043,12.7486589 177.284043,12.7486589 L177.284043,5.99005169 L174.195142,5.99005169 L174.195142,23.8318541 L176.801231,23.8318541 C177.058705,23.8318541 177.251908,23.6075295 177.251908,23.3832049 L177.251908,22.8385838 C177.251908,22.8385838 178.249276,24.1521506 180.372944,24.1521506 C183.879995,24.1521506 186.615017,21.4614259 186.615017,17.8098118 C186.647544,14.1581976 183.912522,11.4674729 180.40508,11.4674729 L180.40508,11.4674729 Z M198.971013,16.688579 L198.971013,23.8638447 L195.882112,23.8638447 L195.882112,17.0408661 C195.882112,15.0551058 195.238623,14.2541695 193.50097,14.2541695 C192.567872,14.2541695 191.60264,14.7348093 190.991287,15.4393836 L190.991287,23.8318541 L187.902386,23.8318541 L187.902386,11.7877694 L190.347798,11.7877694 C190.605272,11.7877694 190.798083,12.012094 190.798083,12.2360285 L190.798083,12.7486589 C191.699045,11.8197601 192.889616,11.4674729 194.080188,11.4674729 C195.431435,11.4674729 196.557735,11.8517507 197.458697,12.6206964 C198.552863,13.5176046 198.971013,14.6704379 198.971013,16.688579 L198.971013,16.688579 Z M206.275115,21.2371013 C205.084544,21.2371013 204.151447,20.628499 203.668635,19.9239247 L203.668635,15.6317175 C204.151447,14.9907344 205.18095,14.3181508 206.275115,14.3181508 C208.334513,14.3181508 209.911099,15.5993368 209.911099,17.7778211 C209.911099,19.9559153 208.334513,21.2371013 206.275115,21.2371013 L206.275115,21.2371013 Z M206.790063,11.4674729 C204.666394,11.4674729 203.668635,12.7486589 203.668635,12.7486589 L203.668635,5.99005169 L200.579734,5.99005169 L200.579734,23.8318541 L203.186214,23.8318541 C203.443688,23.8318541 203.636499,23.6075295 203.636499,23.3832049 L203.636499,22.8385838 C203.636499,22.8385838 204.634259,24.1521506 206.757928,24.1521506 C210.264978,24.1521506 213,21.4614259 213,17.8098118 C213,14.1581976 210.264978,11.4674729 206.790063,11.4674729 L206.790063,11.4674729 Z M160.648576,11.7877694 L163.737476,11.7877694 L163.737476,23.8318541 L160.648576,23.8318541 L160.648576,11.7877694 Z M155.661345,19.9559153 C155.178532,20.6604896 154.2133,21.269092 153.054864,21.269092 C150.995466,21.269092 149.41888,19.987906 149.41888,17.8098118 C149.41888,15.6317175 150.995466,14.3501414 153.054864,14.3501414 C154.181165,14.3501414 155.210668,14.9907344 155.661345,15.6637082 L155.661345,19.9559153 L155.661345,19.9559153 Z M155.661345,12.2360285 L155.661345,12.7486589 C155.661345,12.7486589 154.663585,11.4674729 152.540308,11.4674729 C149.032866,11.4674729 146.297844,14.126207 146.297844,17.8098118 C146.297844,21.4614259 149.00073,24.1521506 152.540308,24.1521506 C154.696112,24.1521506 155.661345,22.8385838 155.661345,22.8385838 L155.661345,23.3832049 C155.661345,23.6395201 155.854156,23.8318541 156.11163,23.8318541 L158.71811,23.8318541 L158.71811,11.7877694 L156.11163,11.7877694 C155.854156,11.7877694 155.661345,12.012094 155.661345,12.2360285 L155.661345,12.2360285 Z M164.284559,8.03979323 C164.284559,9.19301668 163.351462,10.1219155 162.193026,10.1219155 C161.03459,10.1219155 160.101493,9.19301668 160.101493,8.03979323 C160.101493,6.88695991 161.002455,5.95806106 162.193026,5.95806106 C163.383597,5.99005169 164.284559,6.91895055 164.284559,8.03979323 L164.284559,8.03979323 Z" id="Airbnb"></path>
                </g>
            </g>
        </g>
    </g>
</svg>
