<?xml version="1.0" encoding="UTF-8"?>
<svg width="168px" height="48px" viewBox="0 0 168 48" version="1.1" xmlns="http://www.w3.org/2000/svg" xmlns:xlink="http://www.w3.org/1999/xlink">
    <!-- Generator: Sketch 45.1 (43504) - http://www.bohemiancoding.com/sketch -->
    <title>App Store Button</title>
    <desc>Created with Sketch.</desc>
    <defs></defs>
    <g id="Components" stroke="none" stroke-width="1" fill="none" fill-rule="evenodd">
        <g id="Headers" transform="translate(-1122.000000, -7549.000000)">
            <g id="Header-#10" transform="translate(0.000000, 7509.000000)">
                <g id="Controls-/-Buttons-/-App-Store-Button" transform="translate(1122.000000, 40.000000)">
                    <path d="M163.162218,47.9314286 L4.84409127,47.9314286 C2.1703144,47.9314286 0,45.7812383 0,43.1267444 L0,4.81095657 C0,2.15771716 2.1703144,0 4.84409127,0 L163.160956,0 C165.837256,0 167.998738,2.15771716 167.998738,4.81095657 L168,43.1267444 C168,45.7812383 165.837256,47.9314286 163.162218,47.9314286 Z" id="Button" fill="#3FA2F7"></path>
                    <g id="App-Store" stroke-width="1" transform="translate(51.888889, 21.469286)" fill="#FFFFFF">
                        <path d="M14.6640741,16.8558857 L11.8042963,16.8558857 L10.2377778,11.9766161 L4.79274074,11.9766161 L3.30051852,16.8558857 L0.516296296,16.8558857 L5.91096296,0.24465 L9.24296296,0.24465 L14.6640741,16.8558857 L14.6640741,16.8558857 Z M9.76555556,9.92954464 L8.34888889,5.592 C8.19903704,5.14888393 7.91822222,4.10537679 7.50392593,2.46272679 L7.45355556,2.46272679 C7.28859259,3.16921607 7.02288889,4.21272321 6.6577037,5.592 L5.26622222,9.92954464 L9.76555556,9.92954464 L9.76555556,9.92954464 Z" id="Shape"></path>
                        <path d="M28.5373333,10.7196643 C28.5373333,12.75675 27.982,14.3669464 26.8713333,15.5490054 C25.8765185,16.60125 24.6411852,17.1267482 23.1665926,17.1267482 C21.5748889,17.1267482 20.4314815,16.5600589 19.7351111,15.4266804 L19.6847407,15.4266804 L19.6847407,21.7364036 L17,21.7364036 L17,8.82113036 C17,7.5404625 16.966,6.22609286 16.9005185,4.87802143 L19.2616296,4.87802143 L19.4114815,6.77655536 L19.4618519,6.77655536 C20.3571852,5.34610179 21.7159259,4.63212321 23.5393333,4.63212321 C24.9648148,4.63212321 26.1548148,5.190075 27.1068148,6.30722679 C28.0613333,7.42562679 28.5373333,8.89602321 28.5373333,10.7196643 L28.5373333,10.7196643 Z M25.8022222,10.817025 C25.8022222,9.65119286 25.5377778,8.69006786 25.0063704,7.93365 C24.4258519,7.14477857 23.6463704,6.75034286 22.6691852,6.75034286 C22.0068148,6.75034286 21.4048889,6.97002857 20.8671852,7.40315893 C20.3282222,7.84003393 19.9756296,8.41046786 19.8106667,9.11695714 C19.7275556,9.44648571 19.686,9.7161 19.686,9.92829643 L19.686,11.9254393 C19.686,12.7966929 19.9554815,13.5318911 20.4944444,14.1322821 C21.0334074,14.7326732 21.7335556,15.0322446 22.5948889,15.0322446 C23.6060741,15.0322446 24.3931111,14.6452982 24.956,13.8739018 C25.5201481,13.1012571 25.8022222,12.0827143 25.8022222,10.817025 L25.8022222,10.817025 Z" id="Shape"></path>
                        <path d="M42.4357778,10.7196643 C42.4357778,12.75675 41.8804444,14.3669464 40.7685185,15.5490054 C39.774963,16.60125 38.5396296,17.1267482 37.065037,17.1267482 C35.4733333,17.1267482 34.3299259,16.5600589 33.6348148,15.4266804 L33.5844444,15.4266804 L33.5844444,21.7364036 L30.8997037,21.7364036 L30.8997037,8.82113036 C30.8997037,7.5404625 30.8657037,6.22609286 30.8002222,4.87802143 L33.1613333,4.87802143 L33.3111852,6.77655536 L33.3615556,6.77655536 C34.2556296,5.34610179 35.6143704,4.63212321 37.439037,4.63212321 C38.8632593,4.63212321 40.0532593,5.190075 41.0077778,6.30722679 C41.9585185,7.42562679 42.4357778,8.89602321 42.4357778,10.7196643 L42.4357778,10.7196643 Z M39.7006667,10.817025 C39.7006667,9.65119286 39.434963,8.69006786 38.9035556,7.93365 C38.323037,7.14477857 37.5460741,6.75034286 36.5676296,6.75034286 C35.904,6.75034286 35.3033333,6.97002857 34.7643704,7.40315893 C34.2254074,7.84003393 33.8740741,8.41046786 33.7091111,9.11695714 C33.6272593,9.44648571 33.5844444,9.7161 33.5844444,9.92829643 L33.5844444,11.9254393 C33.5844444,12.7966929 33.8539259,13.5318911 34.3903704,14.1322821 C34.9293333,14.731425 35.6294815,15.0322446 36.4933333,15.0322446 C37.5045185,15.0322446 38.2915556,14.6452982 38.8544444,13.8739018 C39.4185926,13.1012571 39.7006667,12.0827143 39.7006667,10.817025 L39.7006667,10.817025 Z" id="Shape"></path>
                        <path d="M57.975037,12.19755 C57.975037,13.6105286 57.4801481,14.7601339 56.4865926,15.6476143 C55.3948148,16.6174768 53.8748889,17.1017839 51.9217778,17.1017839 C50.1185185,17.1017839 48.6728889,16.7572768 47.5785926,16.0670143 L48.2006667,13.8489375 C49.3793333,14.5554268 50.6725926,14.9099196 52.0817037,14.9099196 C53.0928889,14.9099196 53.8799259,14.6827446 54.4453333,14.2308911 C55.0082222,13.7790375 55.289037,13.1724054 55.289037,12.4159875 C55.289037,11.7419518 55.0573333,11.1740143 54.5926667,10.7134232 C54.1305185,10.2528321 53.3585926,9.82469464 52.2806667,9.42901071 C49.3465926,8.3443125 47.8808148,6.75533571 47.8808148,4.665825 C47.8808148,3.30027857 48.3945926,2.18063036 49.4234074,1.30937679 C50.4484444,0.436875 51.816,0.00124821429 53.5260741,0.00124821429 C55.051037,0.00124821429 56.3178519,0.264621429 57.329037,0.790119643 L56.6578519,2.95951607 C55.7134074,2.45024464 54.6455556,2.19560893 53.4505185,2.19560893 C52.5060741,2.19560893 51.7681481,2.42652857 51.2392593,2.88587143 C50.7922222,3.29653393 50.5680741,3.79706786 50.5680741,4.38996964 C50.5680741,5.04653036 50.8237037,5.58950357 51.3374815,6.01639286 C51.7845185,6.41082857 52.5967407,6.83771786 53.7754074,7.29830893 C55.2172593,7.87373571 56.2762963,8.54652321 56.9575556,9.31791964 C57.6362963,10.0868196 57.975037,11.0491929 57.975037,12.19755 L57.975037,12.19755 Z" id="Shape"></path>
                        <path d="M66.8515556,6.87516429 L63.8922963,6.87516429 L63.8922963,12.6905946 C63.8922963,14.1697286 64.4136296,14.9086714 65.4588148,14.9086714 C65.9385926,14.9086714 66.3365185,14.8674804 66.6513333,14.7850982 L66.7256296,16.8059571 C66.1967407,17.0019268 65.5003704,17.1005357 64.6377778,17.1005357 C63.5774815,17.1005357 62.7488889,16.7797446 62.1507407,16.1394107 C61.5551111,15.4978286 61.2554074,14.4218679 61.2554074,12.9102804 L61.2554074,6.87266786 L59.4924444,6.87266786 L59.4924444,4.875525 L61.2554074,4.875525 L61.2554074,2.6824125 L63.8922963,1.89354107 L63.8922963,4.875525 L66.8515556,4.875525 L66.8515556,6.87516429 L66.8515556,6.87516429 Z" id="Shape"></path>
                        <path d="M80.2034815,10.7683446 C80.2034815,12.6094607 79.6720741,14.1210482 78.6117778,15.3031071 C77.4998519,16.5201161 76.024,17.1267482 74.1842222,17.1267482 C72.4111852,17.1267482 70.9995556,16.5438321 69.9468148,15.378 C68.8940741,14.2121679 68.3677037,12.7405232 68.3677037,10.9668107 C68.3677037,9.11071607 68.9091852,7.59039107 69.9959259,6.40833214 C71.0801481,5.225025 72.5434074,4.63337143 74.3831852,4.63337143 C76.1562222,4.63337143 77.582963,5.2162875 78.6596296,6.38336786 C79.6897037,7.51549821 80.2034815,8.97715714 80.2034815,10.7683446 L80.2034815,10.7683446 Z M77.418,10.8544714 C77.418,9.74980179 77.18,8.80240714 76.6977037,8.0122875 C76.1348148,7.05615536 75.3301481,6.5793375 74.2874815,6.5793375 C73.2082963,6.5793375 72.3885185,7.05740357 71.8256296,8.0122875 C71.3433333,8.80365536 71.1053333,9.76602857 71.1053333,10.9044 C71.1053333,12.0090696 71.3433333,12.9564643 71.8256296,13.7453357 C72.4061481,14.7014679 73.2171111,15.1782857 74.2635556,15.1782857 C75.2885926,15.1782857 76.0932593,14.6914821 76.6737778,13.7203714 C77.1686667,12.9152732 77.418,11.9578929 77.418,10.8544714 L77.418,10.8544714 Z" id="Shape"></path>
                        <path d="M88.9301481,7.21842321 C88.6644444,7.16974286 88.3811111,7.14477857 88.0839259,7.14477857 C87.1394815,7.14477857 86.4091111,7.49802321 85.8953333,8.20576071 C85.4482963,8.82986786 85.2241481,9.61873929 85.2241481,10.5711268 L85.2241481,16.8558857 L82.5406667,16.8558857 L82.5658519,8.650125 C82.5658519,7.2696 82.5318519,6.01264821 82.4651111,4.87926964 L84.8035556,4.87926964 L84.9017778,7.17099107 L84.9760741,7.17099107 C85.2594074,6.38336786 85.7064444,5.749275 86.3184444,5.27370536 C86.9165926,4.84556786 87.5625926,4.63212321 88.258963,4.63212321 C88.507037,4.63212321 88.7311852,4.64959821 88.9301481,4.68080357 L88.9301481,7.21842321 L88.9301481,7.21842321 Z" id="Shape"></path>
                        <path d="M100.937185,10.3002643 C100.937185,10.7770821 100.905704,11.1790071 100.838963,11.5072875 L92.7847407,11.5072875 C92.8162222,12.6905946 93.2053333,13.59555 93.9533333,14.2196571 C94.6320741,14.7776089 95.5097778,15.0572089 96.5877037,15.0572089 C97.7802222,15.0572089 98.8682222,14.8687286 99.8466667,14.4905196 L100.267259,16.3378768 C99.1238519,16.8321696 97.7739259,17.0780679 96.2162222,17.0780679 C94.3424444,17.0780679 92.8716296,16.53135 91.8012593,15.4391625 C90.7334074,14.346975 90.1982222,12.8803232 90.1982222,11.0404554 C90.1982222,9.23428929 90.6956296,7.73019107 91.6917037,6.53065714 C92.7343704,5.24998929 94.1434815,4.60965536 95.9165185,4.60965536 C97.6580741,4.60965536 98.9765185,5.24998929 99.8718519,6.53065714 C100.580815,7.54795179 100.937185,8.80615179 100.937185,10.3002643 L100.937185,10.3002643 Z M98.3771111,9.61000179 C98.3947407,8.82113036 98.2197037,8.13960536 97.8557778,7.56417857 C97.3911111,6.8239875 96.6771111,6.45451607 95.7162963,6.45451607 C94.8385926,6.45451607 94.1245926,6.81525 93.5793333,7.53921429 C93.1322963,8.11464107 92.8665926,8.80490357 92.7847407,9.60875357 L98.3771111,9.60875357 L98.3771111,9.61000179 Z" id="Shape"></path>
                    </g>
                    <g id="Dowload-on-the" stroke-width="1" transform="translate(53.148148, 6.490714)" fill="#FFFFFF">
                        <path d="M7.61851852,5.00409107 C7.61851852,6.47323929 7.174,7.57915714 6.28622222,8.32184464 C5.46392593,9.00711429 4.29533333,9.35037321 2.7817037,9.35037321 C2.03118519,9.35037321 1.38896296,9.31791964 0.851259259,9.2530125 L0.851259259,1.22574643 C1.55266667,1.11340714 2.30822222,1.05598929 3.12422222,1.05598929 C4.56607407,1.05598929 5.65281481,1.36679464 6.3857037,1.98840536 C7.20674074,2.69115 7.61851852,3.6959625 7.61851852,5.00409107 L7.61851852,5.00409107 Z M6.22703704,5.04028929 C6.22703704,4.08790179 5.97266667,3.35769643 5.46392593,2.848425 C4.95518519,2.34040179 4.21222222,2.08576607 3.23377778,2.08576607 C2.81822222,2.08576607 2.46437037,2.11322679 2.17096296,2.17064464 L2.17096296,8.27316429 C2.33340741,8.29812857 2.63059259,8.3093625 3.06251852,8.3093625 C4.07244444,8.3093625 4.85192593,8.03101071 5.40096296,7.47430714 C5.95,6.91760357 6.22703704,6.10626429 6.22703704,5.04028929 L6.22703704,5.04028929 Z" id="Shape"></path>
                        <path d="M14.9965185,6.28725536 C14.9965185,7.19221071 14.7358519,7.93365 14.2145185,8.51531786 C13.668,9.1132125 12.9439259,9.41153571 12.0397778,9.41153571 C11.1683704,9.41153571 10.4745185,9.12569464 9.95696296,8.55151607 C9.44066667,7.97858571 9.18251852,7.25586964 9.18251852,6.38461607 C9.18251852,5.47341964 9.44822222,4.72573929 9.98214815,4.14531964 C10.5160741,3.5649 11.2338519,3.27406607 12.138,3.27406607 C13.0094074,3.27406607 13.7095556,3.55990714 14.2397037,4.1328375 C14.7434074,4.68954107 14.9965185,5.4085125 14.9965185,6.28725536 L14.9965185,6.28725536 Z M13.6277037,6.32969464 C13.6277037,5.78672143 13.5093333,5.3211375 13.2738519,4.93294286 C12.9968148,4.46361429 12.6026667,4.22895 12.0901481,4.22895 C11.56,4.22895 11.157037,4.46361429 10.88,4.93294286 C10.6432593,5.3211375 10.5261481,5.79421071 10.5261481,6.35341071 C10.5261481,6.89638393 10.6445185,7.36196786 10.88,7.7501625 C11.1658519,8.21949107 11.5637778,8.45415536 12.0775556,8.45415536 C12.5812593,8.45415536 12.9766667,8.21574643 13.2612593,7.73768036 C13.5055556,7.34199643 13.6277037,6.87266786 13.6277037,6.32969464 L13.6277037,6.32969464 Z" id="Shape"></path>
                        <path d="M24.8892593,3.39389464 L23.0318519,9.27797679 L21.822963,9.27797679 L21.0535556,6.72288214 C20.8583704,6.08504464 20.6997037,5.45095179 20.5762963,4.82185179 L20.5523704,4.82185179 C20.4377778,5.46842679 20.2791111,6.10127143 20.0751111,6.72288214 L19.2578519,9.27797679 L18.0351111,9.27797679 L16.2885185,3.39389464 L17.6447407,3.39389464 L18.3159259,6.19114286 C18.4783704,6.85269643 18.6118519,7.48304464 18.7188889,8.07969107 L18.7428148,8.07969107 C18.841037,7.58789464 19.0034815,6.96129107 19.2326667,6.203625 L20.0751111,3.39514286 L21.1505185,3.39514286 L21.9577037,6.14371071 C22.1528889,6.81400179 22.3115556,7.45932857 22.4337037,8.08093929 L22.4702222,8.08093929 C22.5596296,7.47555536 22.6943704,6.83022857 22.8731852,6.14371071 L23.5934815,3.39514286 L24.8892593,3.39514286 L24.8892593,3.39389464 Z" id="Shape"></path>
                        <path d="M31.7308148,9.27797679 L30.4111111,9.27797679 L30.4111111,5.90779821 C30.4111111,4.86928393 30.0131852,4.35002679 29.2148148,4.35002679 C28.8231852,4.35002679 28.5071111,4.49232321 28.2615556,4.77816429 C28.0185185,5.06400536 27.8951111,5.40102321 27.8951111,5.78672143 L27.8951111,9.27672857 L26.5754074,9.27672857 L26.5754074,5.07523929 C26.5754074,4.55847857 26.559037,3.99803036 26.5275556,3.39139821 L27.6873333,3.39139821 L27.749037,4.31133214 L27.7855556,4.31133214 C27.9391852,4.02549107 28.1683704,3.78957857 28.4693333,3.60109821 C28.826963,3.3814125 29.2274074,3.27032143 29.6656296,3.27032143 C30.2197037,3.27032143 30.6805926,3.44756786 31.047037,3.80330893 C31.5028889,4.23893571 31.7308148,4.88925536 31.7308148,5.75301964 L31.7308148,9.27797679 L31.7308148,9.27797679 Z" id="Shape"></path>
                        <polygon id="Shape" points="35.3700741 9.27797679 34.0516296 9.27797679 34.0516296 0.694007143 35.3700741 0.694007143"></polygon>
                        <path d="M43.1397037,6.28725536 C43.1397037,7.19221071 42.879037,7.93365 42.3577037,8.51531786 C41.8111852,9.1132125 41.0858519,9.41153571 40.182963,9.41153571 C39.3102963,9.41153571 38.6164444,9.12569464 38.1001481,8.55151607 C37.5838519,7.97858571 37.3257037,7.25586964 37.3257037,6.38461607 C37.3257037,5.47341964 37.5914074,4.72573929 38.1253333,4.14531964 C38.6592593,3.5649 39.377037,3.27406607 40.2799259,3.27406607 C41.1525926,3.27406607 41.8514815,3.55990714 42.3828889,4.1328375 C42.8865926,4.68954107 43.1397037,5.4085125 43.1397037,6.28725536 L43.1397037,6.28725536 Z M41.7696296,6.32969464 C41.7696296,5.78672143 41.6512593,5.3211375 41.4157778,4.93294286 C41.14,4.46361429 40.7445926,4.22895 40.2333333,4.22895 C39.7019259,4.22895 39.298963,4.46361429 39.0231852,4.93294286 C38.7864444,5.3211375 38.6693333,5.79421071 38.6693333,6.35341071 C38.6693333,6.89638393 38.7877037,7.36196786 39.0231852,7.7501625 C39.309037,8.21949107 39.706963,8.45415536 40.2207407,8.45415536 C40.7244444,8.45415536 41.1185926,8.21574643 41.4031852,7.73768036 C41.6487407,7.34199643 41.7696296,6.87266786 41.7696296,6.32969464 L41.7696296,6.32969464 Z" id="Shape"></path>
                        <path d="M49.5266667,9.27797679 L48.3417037,9.27797679 L48.2434815,8.60019643 L48.206963,8.60019643 C47.8014815,9.14067321 47.2234815,9.41153571 46.472963,9.41153571 C45.9125926,9.41153571 45.4592593,9.23304107 45.118,8.87854821 C44.8082222,8.55650893 44.6533333,8.15583214 44.6533333,7.6802625 C44.6533333,6.96129107 44.9555556,6.413325 45.5637778,6.03386786 C46.1707407,5.65441071 47.0245185,5.46842679 48.1238519,5.47716429 L48.1238519,5.36732143 C48.1238519,4.59218036 47.7133333,4.20523393 46.891037,4.20523393 C46.3054815,4.20523393 45.7891852,4.351275 45.3434074,4.64086071 L45.0751852,3.78208929 C45.6267407,3.44382321 46.308,3.27406607 47.1114074,3.27406607 C48.6628148,3.27406607 49.441037,4.08540536 49.441037,5.70808393 L49.441037,7.87498393 C49.441037,8.46289286 49.47,8.93097321 49.5266667,9.27797679 L49.5266667,9.27797679 Z M48.1565926,7.25586964 L48.1565926,6.34841786 C46.7008889,6.32345357 45.973037,6.7191375 45.973037,7.53422143 C45.973037,7.84128214 46.0561481,8.07095357 46.2261481,8.22448393 C46.3961481,8.37801429 46.6127407,8.45415536 46.8708889,8.45415536 C47.1605185,8.45415536 47.4312593,8.36303571 47.6780741,8.18204464 C47.9261481,7.99980536 48.0785185,7.76888571 48.1351852,7.48554107 C48.149037,7.42188214 48.1565926,7.34449286 48.1565926,7.25586964 L48.1565926,7.25586964 Z" id="Shape"></path>
                        <path d="M57.0255556,9.27797679 L55.8544444,9.27797679 L55.7927407,8.33307857 L55.7562222,8.33307857 C55.3822222,9.05205 54.745037,9.41153571 53.8497037,9.41153571 C53.1344444,9.41153571 52.5388148,9.13318393 52.0665926,8.57648036 C51.5943704,8.01977679 51.3588889,7.29706071 51.3588889,6.40958036 C51.3588889,5.45719286 51.6145185,4.68579643 52.1282963,4.09663929 C52.6257037,3.547425 53.2351852,3.27281786 53.9605185,3.27281786 C54.7576296,3.27281786 55.3154815,3.5386875 55.6328148,4.071675 L55.658,4.071675 L55.658,0.694007143 L56.978963,0.694007143 L56.978963,7.69274464 C56.978963,8.265675 56.9940741,8.79366964 57.0255556,9.27797679 L57.0255556,9.27797679 Z M55.658,6.79652679 L55.658,5.81543036 C55.658,5.64567321 55.6454074,5.50836964 55.6214815,5.40351964 C55.5471852,5.08896964 55.3872593,4.82434821 55.1442222,4.61090357 C54.8986667,4.39745893 54.6027407,4.2901125 54.2614815,4.2901125 C53.7691111,4.2901125 53.3837778,4.48358571 53.1004444,4.87178036 C52.8196296,5.259975 52.6773333,5.75551607 52.6773333,6.3609 C52.6773333,6.94256786 52.8120741,7.41439286 53.0828148,7.77762321 C53.3686667,8.16456964 53.754,8.35804286 54.2362963,8.35804286 C54.6694815,8.35804286 55.0157778,8.19702321 55.278963,7.87373571 C55.5333333,7.5754125 55.658,7.21592679 55.658,6.79652679 L55.658,6.79652679 Z" id="Shape"></path>
                        <path d="M68.3122963,6.28725536 C68.3122963,7.19221071 68.0516296,7.93365 67.5302963,8.51531786 C66.9837778,9.1132125 66.260963,9.41153571 65.3555556,9.41153571 C64.4854074,9.41153571 63.7915556,9.12569464 63.2727407,8.55151607 C62.7564444,7.97858571 62.4982963,7.25586964 62.4982963,6.38461607 C62.4982963,5.47341964 62.764,4.72573929 63.2979259,4.14531964 C63.8318519,3.5649 64.5496296,3.27406607 65.455037,3.27406607 C66.3251852,3.27406607 67.0265926,3.55990714 67.5554815,4.1328375 C68.0591852,4.68954107 68.3122963,5.4085125 68.3122963,6.28725536 L68.3122963,6.28725536 Z M66.9447407,6.32969464 C66.9447407,5.78672143 66.8263704,5.3211375 66.5908889,4.93294286 C66.3125926,4.46361429 65.9197037,4.22895 65.4059259,4.22895 C64.877037,4.22895 64.4740741,4.46361429 64.1957778,4.93294286 C63.959037,5.3211375 63.8419259,5.79421071 63.8419259,6.35341071 C63.8419259,6.89638393 63.9602963,7.36196786 64.1957778,7.7501625 C64.4816296,8.21949107 64.8795556,8.45415536 65.3933333,8.45415536 C65.897037,8.45415536 66.2937037,8.21574643 66.5782963,7.73768036 C66.8213333,7.34199643 66.9447407,6.87266786 66.9447407,6.32969464 L66.9447407,6.32969464 Z" id="Shape"></path>
                        <path d="M75.4082222,9.27797679 L74.0897778,9.27797679 L74.0897778,5.90779821 C74.0897778,4.86928393 73.6918519,4.35002679 72.8922222,4.35002679 C72.5005926,4.35002679 72.1845185,4.49232321 71.9402222,4.77816429 C71.6959259,5.06400536 71.5737778,5.40102321 71.5737778,5.78672143 L71.5737778,9.27672857 L70.2528148,9.27672857 L70.2528148,5.07523929 C70.2528148,4.55847857 70.2377037,3.99803036 70.2062222,3.39139821 L71.3647407,3.39139821 L71.4264444,4.31133214 L71.462963,4.31133214 C71.6178519,4.02549107 71.847037,3.78957857 72.1467407,3.60109821 C72.5056296,3.3814125 72.9048148,3.27032143 73.3442963,3.27032143 C73.8971111,3.27032143 74.358,3.44756786 74.7244444,3.80330893 C75.1815556,4.23893571 75.4082222,4.88925536 75.4082222,5.75301964 L75.4082222,9.27797679 L75.4082222,9.27797679 Z" id="Shape"></path>
                        <path d="M84.2897778,4.37374286 L82.8365926,4.37374286 L82.8365926,7.23215357 C82.8365926,7.95861429 83.0947407,8.32184464 83.606,8.32184464 C83.8427407,8.32184464 84.0391852,8.30187321 84.1940741,8.26068214 L84.2280741,9.2530125 C83.9674074,9.35037321 83.6248889,9.39905357 83.203037,9.39905357 C82.6817037,9.39905357 82.2762222,9.24177857 81.9828148,8.92722857 C81.6881481,8.61267857 81.5420741,8.08343571 81.5420741,7.34074821 L81.5420741,4.37374286 L80.6744444,4.37374286 L80.6744444,3.39389464 L81.5420741,3.39389464 L81.5420741,2.3154375 L82.8353333,1.92849107 L82.8353333,3.39264643 L84.2885185,3.39264643 L84.2885185,4.37374286 L84.2897778,4.37374286 Z" id="Shape"></path>
                        <path d="M91.2761481,9.27797679 L89.9551852,9.27797679 L89.9551852,5.9327625 C89.9551852,4.87802143 89.5572593,4.35002679 88.7601481,4.35002679 C88.1481481,4.35002679 87.7300741,4.65583929 87.5008889,5.26746429 C87.4618519,5.39603036 87.4391852,5.55330536 87.4391852,5.73804107 L87.4391852,9.27672857 L86.1207407,9.27672857 L86.1207407,0.694007143 L87.4391852,0.694007143 L87.4391852,4.24018393 L87.4643704,4.24018393 C87.8799259,3.59485714 88.4755556,3.27281786 89.2474815,3.27281786 C89.794,3.27281786 90.2460741,3.45006429 90.604963,3.80580536 C91.052,4.24892143 91.2761481,4.90797857 91.2761481,5.77923214 L91.2761481,9.27797679 L91.2761481,9.27797679 Z" id="Shape"></path>
                        <path d="M98.4828889,6.05758393 C98.4828889,6.29224821 98.4652593,6.48946607 98.4337778,6.65048571 L94.4759259,6.65048571 C94.4935556,7.23215357 94.6824444,7.67526964 95.0488889,7.98233036 C95.3838519,8.2569375 95.8157778,8.39424107 96.3446667,8.39424107 C96.9302222,8.39424107 97.4641481,8.30187321 97.9451852,8.11588929 L98.1517037,9.02458929 C97.5888148,9.26674286 96.9264444,9.38781964 96.1595556,9.38781964 C95.2402963,9.38781964 94.5162222,9.11945357 93.9923704,8.58272143 C93.466,8.04598929 93.2053333,7.32576964 93.2053333,6.4220625 C93.2053333,5.53458214 93.4483704,4.79563929 93.9382222,4.20648214 C94.4494815,3.57738214 95.1408148,3.26283214 96.0134815,3.26283214 C96.8672593,3.26283214 97.5157778,3.57738214 97.954,4.20648214 C98.3078519,4.70576786 98.4828889,5.32363393 98.4828889,6.05758393 L98.4828889,6.05758393 Z M97.2236296,5.71931786 C97.2337037,5.33112321 97.1468148,4.99660179 96.968,4.71450536 C96.7388148,4.351275 96.39,4.16903571 95.9177778,4.16903571 C95.4871111,4.16903571 95.1357778,4.34628214 94.8675556,4.70202321 C94.6484444,4.98536786 94.5187407,5.32363393 94.4759259,5.71931786 L97.2236296,5.71931786 L97.2236296,5.71931786 Z" id="Shape"></path>
                    </g>
                    <g id="Icon" stroke-width="1" transform="translate(14.111111, 6.490714)" fill="#FFFFFF">
                        <path d="M22.8278519,17.2053857 C22.7913333,13.1823911 26.151037,11.2251911 26.3046667,11.1340714 C24.4019259,8.38425536 21.4527407,8.00854286 20.4163704,7.97858571 C17.9394074,7.72020536 15.5367407,9.44773393 14.274963,9.44773393 C12.988,9.44773393 11.044963,8.00355 8.95081481,8.04598929 C6.256,8.08718036 3.73496296,9.63371786 2.3522963,12.0352821 C-0.501185185,16.9320268 1.62696296,24.1279821 4.36081481,28.0860696 C5.72837037,30.0245464 7.32637037,32.18895 9.418,32.1128089 C11.4642963,32.0291786 12.2286667,30.8196589 14.6980741,30.8196589 C17.1448148,30.8196589 17.8625926,32.1128089 19.9957778,32.0641286 C22.1919259,32.0291786 23.5745926,30.1169143 24.8942963,28.1609625 C26.4746667,25.9391411 27.1093333,23.7510214 27.1345185,23.6386821 C27.0828889,23.6212071 22.8694074,22.0272375 22.8278519,17.2053857 L22.8278519,17.2053857 Z" id="Shape"></path>
                        <path d="M18.7982222,5.37481071 C19.8988148,4.0105125 20.6518519,2.15441786 20.4428148,0.2708625 C18.8498519,0.3407625 16.8577037,1.36305 15.7105185,2.69739107 C14.6955556,3.87320893 13.7888889,5.80045179 14.0231111,7.61285893 C15.8125185,7.74516964 17.6497778,6.71788929 18.7982222,5.37481071 L18.7982222,5.37481071 Z" id="Shape"></path>
                    </g>
                </g>
            </g>
        </g>
    </g>
</svg>