<?xml version="1.0" encoding="UTF-8"?>
<svg width="212px" height="45px" viewBox="0 0 212 45" version="1.1" xmlns="http://www.w3.org/2000/svg" xmlns:xlink="http://www.w3.org/1999/xlink">
    <!-- Generator: Sketch 45.1 (43504) - http://www.bohemiancoding.com/sketch -->
    <title>Icons</title>
    <desc>Created with Sketch.</desc>
    <defs></defs>
    <g id="Components" stroke="none" stroke-width="1" fill="none" fill-rule="evenodd">
        <g id="Contents" transform="translate(-150.000000, -4633.000000)" fill="#3FA2F7">
            <g id="Contents-#9" transform="translate(0.000000, 4253.000000)">
                <g id="Icons" transform="translate(150.000000, 380.000000)">
                    <g id="Safari" transform="translate(174.000000, 0.000000)">
                        <g id="Layer_1">
                            <g id="Group">
                                <path d="M21.3624065,7.25009766 C22.3990254,6.53888672 23.0793395,5.34498047 23.0793395,3.99155273 C23.0793395,1.81133789 21.3145774,0.0439453125 19.1376074,0.0439453125 C16.9607252,0.0439453125 15.1957875,1.81133789 15.1957875,3.99155273 C15.1957875,5.32801758 15.859515,6.50847656 16.8742818,7.22267578 C7.42509469,8.28008789 0.0782817552,16.3059082 0.0782817552,26.0515723 C0.0782817552,36.5165332 8.54921016,45 18.9984203,45 C29.4477182,45 37.9187344,36.5165332 37.9187344,26.0515723 C37.9187344,16.3883496 30.6960139,8.41526367 21.3624065,7.25009766 L21.3624065,7.25009766 Z M19.167358,2.36610352 C20.0984896,2.36610352 20.8533995,3.12213867 20.8533995,4.0546582 C20.8533995,4.98717773 20.0985774,5.74321289 19.167358,5.74321289 C18.2362263,5.74321289 17.4814042,4.98717773 17.4814042,4.0546582 C17.4814042,3.12205078 18.2363141,2.36610352 19.167358,2.36610352 L19.167358,2.36610352 Z M19.0089515,41.7244043 C10.35794,41.7244043 3.34514088,34.7010645 3.34514088,26.037334 C3.34514088,17.3735156 10.3580277,10.3500879 19.0089515,10.3500879 C27.6596998,10.3500879 34.6726744,17.3735156 34.6726744,26.037334 C34.6726744,34.7010645 27.6596998,41.7244043 19.0089515,41.7244043 L19.0089515,41.7244043 Z" id="Shape"></path>
                                <path d="M28.2717367,14.8752246 L22.4787113,28.889209 L9.84314088,37.1817773 L15.7336674,23.369502 L15.7127806,23.352627 L28.2717367,14.8752246 C28.2658568,14.8703027 28.2600647,14.8653809 28.2542725,14.8605469 C22.0616767,9.77396484 12.9243002,10.6780957 7.84528868,16.8800098 C2.76627714,23.0818359 3.66915012,32.2329199 9.86174596,37.319502 C16.0543418,42.4059961 25.1917182,41.5018652 30.2707298,35.2998633 C35.3449145,29.1040137 34.4483603,19.9645312 28.2717367,14.8752246 L28.2717367,14.8752246 Z" id="Shape"></path>
                                <polygon id="Shape" points="20.8302309 27.9517676 16.8138152 24.7137891 14.0861524 32.2245703"></polygon>
                            </g>
                        </g>
                    </g>
                    <g id="Firefox" transform="translate(115.000000, 8.000000)">
                        <path d="M39,12.5441379 C39,13.0357241 38.9622188,13.994069 38.8854375,15.417931 C38.8086563,16.8405517 38.644125,18.2395862 38.390625,19.6125517 C38.1359063,20.9842759 37.6666875,22.5248276 36.98175,24.2342069 C36.2955938,25.9423448 35.4583125,27.4841379 34.4674688,28.8558621 C33.4778438,30.2263448 32.1189375,31.5223448 30.3931875,32.7388966 C28.6662188,33.9542069 26.7113438,34.8244138 24.5285625,35.3408276 C23.3597813,35.6524138 22.166625,35.8324138 20.947875,35.8845517 C20.8979063,35.8845517 20.79675,35.9106207 20.6444063,35.9615172 C19.62675,36.0124138 18.61275,36.0124138 17.5975313,35.9615172 C11.30025,35.4451034 6.50203125,32.2857931 3.20165625,26.486069 C1.67821875,23.7401379 0.81290625,21.1270345 0.6118125,18.6417931 C0.45946875,19.3667586 0.355875,19.9886897 0.307125,20.5051034 C0.15478125,17.5543448 0.3826875,15.1473103 0.9920625,13.2827586 C0.5338125,14.0598621 0.20109375,14.7835862 0,15.4576552 C0.40584375,13.1275862 0.93965625,11.2891034 1.599,9.94344828 C1.64775,9.63310345 1.9524375,9.06206897 2.5130625,8.23531034 L2.5130625,8.00193103 C2.4106875,6.55075862 2.5520625,5.24358621 2.9323125,4.07917241 C3.3125625,2.91475862 3.62821875,2.18855172 3.88415625,1.90427586 C4.13765625,1.62 4.3411875,1.40027586 4.49353125,1.24510345 C4.5435,2.48648276 5.1796875,3.67696552 6.3984375,4.81655172 C6.703125,4.86744828 6.981,4.89475862 7.2369375,4.89475862 C8.5044375,4.63531034 9.82678125,4.66137931 11.197875,4.97172414 C12.0083437,3.93517241 13.255125,3.23627586 14.9296875,2.87503448 L16.3775625,2.79806897 C14.902875,3.6782069 14.015625,4.94565517 13.7109375,6.60289655 C14.269125,7.79337931 15.00525,8.38924138 15.9193125,8.38924138 L17.5950938,8.38924138 C18.4579687,8.38924138 18.915,8.4662069 18.9661875,8.62262069 L18.9661875,8.69958621 L18.9661875,8.77655172 C19.0149375,8.82744828 19.0149375,8.90565517 18.9661875,9.00993103 L18.9661875,9.08689655 L18.9661875,9.16386207 C18.915,9.68151724 18.7370625,10.0688276 18.432375,10.3295172 C18.3811875,10.3295172 18.3568125,10.341931 18.3568125,10.368 C18.3568125,10.394069 18.33,10.4064828 18.28125,10.4064828 C18.28125,10.4573793 18.052125,10.6125517 17.5963125,10.872 C16.9869375,11.2853793 16.5030938,11.6217931 16.1484375,11.8812414 C15.487875,12.2946207 15.1588125,12.5788966 15.1588125,12.7353103 L15.1588125,12.8122759 L15.08325,12.8122759 C15.2355938,13.1226207 15.33675,13.509931 15.3879375,13.9766897 C15.4890938,14.4422069 15.5134688,14.7264828 15.4635,14.8307586 L15.4635,15.5296552 C14.854125,15.2193103 14.2703438,15.012 13.7109375,14.9089655 C12.9979688,15.2193103 12.5933438,15.5557241 12.4921875,15.9169655 C12.441,16.1242759 12.3885937,16.3315862 12.3398438,16.5388966 C12.3398438,17.522069 13.0247813,18.4295172 14.3970938,19.2562759 C14.9552813,19.6187586 15.526875,19.8273103 16.1106563,19.8782069 C16.6932188,19.9303448 17.15025,19.9042759 17.48175,19.8012414 C17.8120313,19.6969655 18.2166563,19.5417931 18.7005,19.3344828 C19.183125,19.1284138 19.5255938,18.998069 19.729125,18.9471724 C21.2525625,18.5325517 22.4969063,18.8962759 23.4609375,20.0346207 C23.7668438,20.3449655 23.8302188,20.6441379 23.6522813,20.9284138 C23.4743438,21.2126897 23.2074375,21.3045517 22.8515625,21.2002759 C22.7004375,21.2511724 22.5980625,21.266069 22.5480938,21.2387586 C22.4969063,21.2126897 22.3823438,21.2387586 22.2044063,21.3157241 C22.0264688,21.3926897 21.9009375,21.4448276 21.8241563,21.4708966 C21.747375,21.4969655 21.620625,21.5751724 21.4439063,21.7042759 C21.2659688,21.8346207 21.1258125,21.9264828 21.0234375,21.9773793 C20.9222813,22.0282759 20.75775,22.1449655 20.528625,22.3262069 C20.2995,22.5074483 20.1105938,22.6241379 19.95825,22.6750345 C19.348875,23.1417931 18.4725938,23.4782069 17.330625,23.6842759 C16.1886563,23.8903448 15.2355938,23.8903448 14.473875,23.6842759 C15.08325,24.1510345 15.565875,24.4874483 15.92175,24.6935172 C16.2751875,24.9008276 16.8614063,25.226069 17.6743125,25.6642759 C18.4847813,26.1037241 19.1843438,26.3904828 19.7693438,26.5183448 C20.3519063,26.6474483 21.08925,26.712 21.9777188,26.712 C22.8661875,26.712 23.6790938,26.5568276 24.4152188,26.2452414 C25.1513438,25.9348966 25.9374375,25.4048276 26.7771563,24.6537931 C27.6144375,23.904 28.4139375,22.9593103 29.176875,21.8197241 C29.3292188,21.5590345 29.430375,21.4038621 29.4803438,21.3529655 C29.5827188,21.3529655 29.45475,22.0518621 29.1000938,23.4496552 C28.94775,24.1758621 28.8977813,24.5371034 28.94775,24.5371034 C29.8118438,23.9151724 30.4078125,22.7234483 30.7380938,20.9644138 C31.068375,19.2041379 31.107375,17.496 30.8526563,15.8375172 C31.4620313,16.0969655 31.8934688,16.5873103 32.1469688,17.3135172 L32.3005313,17.4686897 C32.604,16.4842759 32.7831563,15.2031724 32.8343438,13.6228966 C32.8843125,12.0438621 32.7319688,10.7366897 32.3773125,9.70137931 C33.0366563,9.90744828 33.6460313,10.5815172 34.2054375,11.7211034 C34.0530938,10.8918621 33.8239688,10.1284138 33.5205,9.42951724 C33.2145938,8.73062069 32.8733438,8.13475862 32.4906563,7.64317241 C32.1104063,7.15158621 31.7033438,6.68482759 31.2719063,6.24537931 C30.8404688,5.80593103 30.3968438,5.4422069 29.9398125,5.15793103 C29.4815625,4.87365517 29.0379375,4.6142069 28.6065,4.38082759 C28.1750625,4.14744828 27.768,3.9662069 27.38775,3.83710345 C27.0062813,3.708 26.6625938,3.60372414 26.359125,3.52675862 C26.0532188,3.4497931 25.8253125,3.39641379 25.6741875,3.37034483 C25.5218438,3.34427586 25.4706563,3.33186207 25.5218438,3.33186207 C26.7905625,2.96937931 28.0860938,2.78813793 29.4072188,2.78813793 C29.25,2.53737931 28.9575,2.304 28.5260625,2.09793103 C28.094625,1.89062069 27.6241875,1.71062069 27.1159688,1.5542069 C26.6089688,1.39903448 26.1141563,1.26993103 25.6315313,1.16689655 C25.1489063,1.06137931 24.5773125,0.933517241 23.9179688,0.778344828 L23.8424063,0.778344828 L23.9935313,0.778344828 C25.4158125,0.363724138 27.6497813,0.674068966 30.6966563,1.71062069 C31.81425,2.07186207 32.8306875,2.73227586 33.7435313,3.69186207 C34.6588125,4.64896552 35.2304063,5.36151724 35.4583125,5.82827586 C35.6862188,6.2937931 35.85075,6.68234483 35.953125,6.99268966 L35.953125,6.67986207 C36.0030938,6.42041379 35.9653125,6.02068966 35.8385625,5.47572414 C35.7118125,4.932 35.5204687,4.3497931 35.2669687,3.72910345 C35.3169375,3.72910345 35.3937187,3.76758621 35.4960938,3.8457931 C35.59725,3.92275862 35.787375,4.20703448 36.0676875,4.69986207 C36.3467812,5.19144828 36.6636563,5.904 37.0183125,6.83503448 C37.5777188,8.23406897 38.059125,10.7441379 38.4661875,14.3689655 L38.9232187,11.4169655 C38.9744063,11.6776552 39,12.0513103 39,12.5441379 L39,12.5441379 Z" id="Shape"></path>
                    </g>
                    <g id="Internet-Explorer" transform="translate(57.000000, 5.000000)">
                        <path d="M13.2575625,20.835871 L13.2575625,20.9101935 C13.2575625,22.1307097 13.5350625,23.3024516 14.0958437,24.4196129 C14.75375,25.5901935 15.655625,26.5169032 16.7968437,27.2032258 C17.9380625,27.8883871 19.2064687,28.232129 20.6009062,28.232129 C21.9953437,28.232129 23.2660625,27.8883871 24.4072812,27.2032258 C25.5473437,26.5157419 26.4480625,25.5890323 27.107125,24.4196129 L36.1640312,24.4196129 C34.9950625,27.7258065 32.967,30.4339355 30.076375,32.5416774 C27.1834375,34.6517419 23.9355312,35.7073548 20.3349687,35.7073548 C17.6466875,35.7073548 15.109875,35.1232258 12.7256875,33.9526452 C7.39884375,36.5469677 3.5681875,36.6735484 1.234875,34.3347097 C0.42203125,33.5729032 0.01734375,32.3012903 0.01734375,30.5210323 C0.01734375,28.7419355 0.35959375,26.7584516 1.04525,24.5717419 C1.72975,22.3861935 2.87096875,19.9823226 4.4700625,17.3636129 C6.06684375,14.7449032 7.9573125,12.3677419 10.138,10.232129 C11.4064062,8.90941935 12.2180937,8.09535484 12.5719062,7.79109677 C9.42575,9.31470968 6.58484375,11.6814194 4.05034375,14.8830968 C4.962625,11.1716129 6.92940625,8.12090323 9.94721875,5.72980645 C12.9650312,3.33987097 16.428,2.14490323 20.3349687,2.14490323 C20.7408125,2.14490323 21.1455,2.17045161 21.5513437,2.2203871 C24.3934062,0.948774194 26.9799375,0.238064516 29.3144062,0.0847741935 C31.6477187,-0.068516129 33.295375,0.313548387 34.2596875,1.22864516 C36.1871562,3.21212903 36.3652187,6.31393548 34.7927187,10.5340645 C36.2634687,13.131871 37,15.9294194 37,18.9290323 C37,19.6409032 36.9745625,20.276129 36.9248437,20.8370323 L27.94425,20.8370323 L13.2575625,20.8370323 L13.2575625,20.835871 Z M11.6607812,33.3452903 C8.2625625,31.2607742 5.8760625,28.3378065 4.50590625,24.5729032 C2.22346875,29.0485161 1.919375,32.1247742 3.59246875,33.8028387 C5.064375,35.2776774 7.75265625,35.1243871 11.6607812,33.3452903 L11.6607812,33.3452903 Z M27.3360625,16.4125161 C27.2343125,14.5811613 26.4989375,13.0180645 25.1299375,11.7209032 C23.7597812,10.4249032 22.149125,9.77574194 20.2979687,9.77574194 C18.4445,9.77574194 16.835,10.4249032 15.466,11.7209032 C14.0946875,13.0180645 13.3593125,14.5811613 13.2575625,16.4125161 L27.3360625,16.4125161 L27.3360625,16.4125161 Z M26.4989375,3.36890323 C29.7445312,4.69045161 32.3322187,6.82606452 34.2596875,9.77574194 C35.4275,6.62283871 35.3754687,4.41174194 34.1082187,3.13896774 C32.7380625,1.7163871 30.20125,1.79303226 26.4989375,3.36890323 L26.4989375,3.36890323 Z" id="Shape"></path>
                    </g>
                    <g id="Chrome" transform="translate(0.000000, 4.000000)">
                        <g id="Layer_1">
                            <g id="Group">
                                <path d="M18.5,27.967375 C16.6210938,27.967375 14.911,27.4609375 13.3685625,26.450375 C11.826125,25.4386562 10.669875,24.137875 9.8998125,22.5480312 L2.3125,9.25 C0.72265625,12.0932187 0,15.2729062 0,18.5 C0,23.125 1.5054375,27.1603125 4.5163125,30.6047812 C7.5271875,34.04925 11.2734375,36.1085312 15.7539063,36.7837812 L21.1200625,27.4979375 C20.5800938,27.6563437 19.679375,27.967375 18.5,27.967375 L18.5,27.967375 Z" id="Shape" fill-opacity="0.8"></path>
                                <path d="M12.6829063,11.0202188 C14.3918438,9.6963125 16.3320313,9.25 18.5,9.25 L34.3984375,9.25 C32.7600313,6.4565 30.5319375,4.0954375 27.7141563,2.45703125 C24.8952188,0.81978125 21.8242188,0 18.5,0 C15.609375,0 12.9106875,0.61396875 10.40625,1.8430625 C7.90065625,3.071 5.582375,4.85971875 3.88384375,7.154875 L9.25,16.1875 C9.7795625,14.1166562 10.9716563,12.3464375 12.6829063,11.0202188 L12.6829063,11.0202188 Z" id="Shape"></path>
                                <path d="M35.6090312,11.5625 L24.859375,11.5625 C26.7382812,13.4414062 27.967375,15.8510312 27.967375,18.5 C27.967375,20.4760312 27.4135312,22.2820937 26.3046875,23.9205 L18.717375,37 C23.7759687,36.9514375 28.087625,35.1210937 31.6535,31.5078125 C35.2170625,27.8945312 37,23.5585937 37,18.5 C37,16.1400937 36.60225,13.657625 35.6090312,11.5625 L35.6090312,11.5625 Z" id="Shape" fill-opacity="0.3"></path>
                                <circle id="Oval" cx="18.5" cy="18.5" r="6.9375"></circle>
                            </g>
                        </g>
                    </g>
                </g>
            </g>
        </g>
    </g>
</svg>