
<svg width="75px" height="23px" viewBox="0 0 75 23" version="1.1" xmlns="http://www.w3.org/2000/svg" xmlns:xlink="http://www.w3.org/1999/xlink">
    <!-- Generator: Sketch 46.2 (44496) - http://www.bohemiancoding.com/sketch -->
    <desc>Created with Sketch.</desc>
    <defs></defs>
    <g id="Components" stroke="none" stroke-width="1" fill="none" fill-rule="evenodd">
        <g id="Contents" transform="translate(-150.000000, -9340.000000)" fill="#D4E7F8">
            <g id="Contents-#16" transform="translate(0.000000, 8950.000000)">
                <g id="Logos" transform="translate(150.000000, 388.000000)">
                    <path d="M3.02957197,12.9055484 L0,12.9055484 L0,9.1617016 L3.11527121,9.1617016 L3.11527121,8.21066836 C3.11527121,3.60480348 5.20126191,2 9.31660472,2 C10.4311397,2 11.2882803,2.17832804 11.9457032,2.29711416 L11.6310773,5.98201446 C11.2027294,5.83330852 10.7739366,5.74414451 10.0023469,5.74414451 C8.68779765,5.74414451 8.17345394,6.6950289 8.17345394,8.21066836 L8.17345394,9.1617016 L11.8310916,9.1617016 L11.8310916,12.9055484 L8.17345394,12.9055484 L8.17345394,24.6430462 L3.02957197,24.6430462 L3.02957197,12.9055484 Z M15.3061697,2.69659079 L20.6633083,2.69659079 L20.6633083,25 L15.3061697,25 L15.3061697,2.69659079 Z M24.4898359,2.69659079 L29.8469745,2.69659079 L29.8469745,6.54200617 L24.4898359,6.54200617 L24.4898359,2.69659079 Z M24.4898359,8.8492554 L29.8469745,8.8492554 L29.8469745,24.2309169 L24.4898359,24.2309169 L24.4898359,8.8492554 Z M44.6613813,13.620152 C43.7073744,13.0277052 42.7532175,12.7610967 41.5101586,12.7610967 C39.2550423,12.7610967 37.5204298,14.361193 37.5204298,17.0281686 C37.5204298,19.4880624 39.5443944,21.0877134 41.7998107,21.0877134 C42.9845192,21.0877134 44.1699777,20.8214018 45.037434,20.3471177 L45.1530848,24.317892 C43.8519754,24.7627838 42.2909142,25 40.9031042,25 C35.9302683,25 32.142891,22.0362814 32.142891,16.9392496 C32.142891,11.8128255 35.9302683,8.8492554 40.9031042,8.8492554 C42.4643154,8.8492554 43.8519754,9.11616079 45.037434,9.70860761 L44.6613813,13.620152 Z M48.2143069,2.69659079 L53.2784369,2.69659079 L53.2784369,16.0194962 L53.3350781,16.0194962 L57.5554297,9.5069365 L63.0982361,9.5069365 L58.0053475,16.6141744 L63.5204172,25 L57.3862361,25 L53.3350781,17.3280265 L53.2784369,17.3280265 L53.2784369,25 L48.2143069,25 L48.2143069,2.69659079 Z M74.7467115,13.5762323 C74.1845454,13.3945364 73.6217956,13.3945364 73.0313241,13.3945364 C70.6692925,13.3945364 69.3475527,15.2429162 69.3475527,18.3338712 L69.3475527,25 L64.2857228,25 L64.2857228,9.21310253 L68.8975863,9.21310253 L68.8975863,12.1222099 L68.954051,12.1222099 C69.8255326,10.1220373 71.0910995,8.8492554 73.2846126,8.8492554 C73.8745004,8.8492554 74.4932772,8.94017924 75,9.03125486 L74.7467115,13.5762323 Z" id="Flickr"></path>
                </g>
            </g>
        </g>
    </g>
</svg>
