
<svg width="88px" height="24px" viewBox="0 0 88 24" version="1.1" xmlns="http://www.w3.org/2000/svg" xmlns:xlink="http://www.w3.org/1999/xlink">
    <!-- Generator: Sketch 46.2 (44496) - http://www.bohemiancoding.com/sketch -->
    <desc>Created with Sketch.</desc>
    <defs></defs>
    <g id="Components" stroke="none" stroke-width="1" fill="none" fill-rule="evenodd">
        <g id="Contents" transform="translate(-398.000000, -9342.000000)" fill="#D4E7F8">
            <g id="Contents-#16" transform="translate(0.000000, 8950.000000)">
                <g id="Logos" transform="translate(150.000000, 388.000000)">
                    <path d="M284.476859,12.0828505 L281.350969,12.0828505 C281.350969,12.0828505 281.346156,7.92804635 281.346156,7.92700856 C281.346156,7.76978293 281.265719,7.69108363 281.085078,7.69108363 L276.825156,7.69108363 C276.659641,7.69108363 276.570609,7.764421 276.570609,7.92458704 L276.570609,12.2193202 C276.570609,12.2193202 274.435922,12.7378708 274.291547,12.7797284 C274.147688,12.8215861 274.041984,12.9551155 274.041984,13.1142437 L274.041984,15.8130243 C274.041984,16.0070916 274.196156,16.1636254 274.386594,16.1636254 L276.570609,16.1636254 L276.570609,22.6558852 C276.570609,27.4783361 279.931969,27.9520886 282.200031,27.9520886 C283.236437,27.9520886 284.476172,27.6172274 284.680875,27.5411225 C284.804625,27.4952867 284.876469,27.3662544 284.876469,27.2263253 L284.880078,24.2575456 C284.880078,24.0639972 284.717484,23.9072905 284.534609,23.9072905 C284.352422,23.9072905 283.886297,23.9818386 283.406594,23.9818386 C281.871234,23.9818386 281.350969,23.26334 281.350969,22.3333045 L281.350969,16.1636254 L284.476859,16.1636254 C284.667469,16.1636254 284.821812,16.0070916 284.821812,15.8130243 L284.821812,12.4325867 C284.821812,12.2390383 284.667469,12.0828505 284.476859,12.0828505 L284.476859,12.0828505 Z M330.171031,11.649226 C327.822359,11.649226 326.224781,12.7037966 326.224781,12.7037966 L326.224781,5.27285307 C326.224781,5.07913171 326.071125,4.92277091 325.881031,4.92277091 L321.702063,4.92277091 C321.512141,4.92277091 321.357625,5.07913171 321.357625,5.27285307 L321.357625,27.2173311 C321.357625,27.4110525 321.512141,27.5686241 321.702578,27.5686241 L324.602109,27.5686241 C324.732734,27.5686241 324.831563,27.5008216 324.904438,27.3821673 C324.976625,27.2642048 325.080438,26.3703191 325.080438,26.3703191 C325.080438,26.3703191 326.789391,28 330.02425,28 C333.822,28 336,26.0615757 336,19.2972412 C336,12.5330797 332.521594,11.649226 330.171031,11.649226 L330.171031,11.649226 Z M328.540109,24.0133183 C327.105641,23.9693851 326.132828,23.3143648 326.132828,23.3143648 L326.132828,16.3649572 C326.132828,16.3649572 327.09275,15.7728963 328.270266,15.6670414 C329.759562,15.5328202 331.194375,15.9854709 331.194375,19.5604947 C331.194375,23.3302776 330.54675,24.0742022 328.540109,24.0133183 L328.540109,24.0133183 Z M319.012219,12.1205569 L314.876906,12.1205569 C314.687328,12.1205569 314.532812,12.2777826 314.532812,12.471331 L314.532812,23.2315143 C314.532812,23.2315143 313.482312,24.004843 311.991125,24.004843 C310.500109,24.004843 310.104281,23.3242238 310.104281,21.8550549 L310.104281,12.471331 C310.104281,12.2777826 309.950281,12.1205569 309.760359,12.1205569 L305.563688,12.1205569 C305.374109,12.1205569 305.219078,12.2777826 305.219078,12.471331 L305.219078,22.5654242 C305.219078,26.9293436 307.635812,27.9970596 310.960906,27.9970596 C313.688391,27.9970596 315.887703,26.4806711 315.887703,26.4806711 C315.887703,26.4806711 315.992375,27.2797717 316.039812,27.3747297 C316.08725,27.4691689 316.210656,27.5644729 316.344031,27.5644729 L319.013937,27.5527112 C319.203516,27.5527112 319.358547,27.3951397 319.358547,27.2024561 L319.357344,12.471331 C319.357344,12.2777826 319.202828,12.1205569 319.012219,12.1205569 L319.012219,12.1205569 Z M272.48325,22.5996714 L272.48325,12.4701202 C272.48325,12.2777826 272.328906,12.1205569 272.138469,12.1205569 L267.98425,12.1205569 C267.793813,12.1205569 267.623141,12.3184295 267.623141,12.5107671 L267.623141,27.0232639 C267.623141,27.4499697 267.887313,27.5767534 268.229172,27.5767534 L271.97175,27.5767534 C272.382531,27.5767534 272.48325,27.3740379 272.48325,27.0165182 L272.48325,22.5996714 Z M272.813937,8.20686673 C272.813937,6.69670501 271.610812,5.47643345 270.1265,5.47643345 C268.643734,5.47643345 267.43975,6.69670501 267.43975,8.20686673 C267.43975,9.7152988 268.643734,10.9388567 270.1265,10.9388567 C271.610812,10.9388567 272.813937,9.7152988 272.813937,8.20686673 L272.813937,8.20686673 Z M303.08525,5.27285307 C303.08525,5.07913171 302.932625,4.92277091 302.741672,4.92277091 L298.574391,4.92277091 C298.384125,4.92277091 298.229438,5.07913171 298.229438,5.27285307 C298.229438,5.27389086 298.230469,13.3773242 298.230469,13.3773242 L291.734797,13.3773242 L291.734797,5.27285307 C291.734797,5.07913171 291.581484,4.92277091 291.391047,4.92277091 L287.223766,4.92277091 C287.034188,4.92277091 286.8795,5.07913171 286.8795,5.27285307 L286.8795,27.2173311 C286.8795,27.4110525 287.034188,27.5686241 287.223766,27.5686241 L291.391047,27.5686241 C291.581484,27.5686241 291.734797,27.4110525 291.734797,27.2173311 L291.734797,17.8308397 L298.230469,17.8308397 C298.230469,17.8308397 298.218953,27.2166393 298.218953,27.2173311 C298.218953,27.4110525 298.373641,27.5686241 298.56425,27.5686241 L302.741328,27.5686241 C302.932281,27.5686241 303.084906,27.4110525 303.08525,27.2173311 L303.08525,5.27285307 Z M264.963547,14.2591023 L257.562266,14.2591023 C257.371484,14.2591023 257.216625,14.4151172 257.216625,14.6072818 L257.216625,18.2487244 C257.216625,18.440889 257.371484,18.5974228 257.562266,18.5974228 L260.449594,18.5974228 L260.449594,23.1215083 C260.449594,23.1215083 259.801281,23.3437689 258.008969,23.3437689 C255.894391,23.3437689 252.940547,22.566462 252.940547,16.0295771 C252.940547,9.49148145 256.016422,8.63132405 258.904094,8.63132405 C261.403844,8.63132405 262.480641,9.07411571 263.165906,9.28755513 C263.381094,9.35397388 263.580297,9.13828591 263.580297,8.94594828 L264.405984,5.42748422 C264.405984,5.33771513 264.375734,5.22926576 264.273641,5.15575543 C263.995547,4.95598028 262.297766,4 258.008969,4 C253.06825,4 248,6.11536798 248,16.2845282 C248,26.4540344 253.802672,27.9693851 258.692172,27.9693851 C262.740859,27.9693851 265.196953,26.2284874 265.196953,26.2284874 C265.298187,26.1721007 265.309187,26.0297501 265.309187,25.9643691 L265.309187,14.6072818 C265.309187,14.4151172 265.154328,14.2591023 264.963547,14.2591023 L264.963547,14.2591023 Z" id="Github"></path>
                </g>
            </g>
        </g>
    </g>
</svg>
