<?xml version="1.0" encoding="UTF-8"?>
<svg width="162px" height="48px" viewBox="0 0 162 48" version="1.1" xmlns="http://www.w3.org/2000/svg" xmlns:xlink="http://www.w3.org/1999/xlink">
    <!-- Generator: Sketch 45.1 (43504) - http://www.bohemiancoding.com/sketch -->
    <title>Google Play</title>
    <desc>Created with Sketch.</desc>
    <defs></defs>
    <g id="Components" stroke="none" stroke-width="1" fill="none" fill-rule="evenodd">
        <g id="Headers" transform="translate(-738.000000, -12320.000000)">
            <g id="Header-#15" transform="translate(0.000000, 11914.000000)">
                <g id="Buttons" transform="translate(540.000000, 406.000000)">
                    <g id="Controls-/-Buttons-/-Google-Play-Button" transform="translate(198.000000, 0.000000)">
                        <path d="M154.595211,0.113605536 C158.182256,0.113605536 161.117066,3.04841522 161.117066,6.63529412 L161.117066,41.3153772 C161.117066,44.90209 158.182256,47.8368997 154.595211,47.8368997 L6.52168858,47.8368997 C2.9346436,47.8368997 0,44.90209 0,41.3153772 L0,6.63529412 C0,3.04841522 2.9346436,0.113605536 6.52168858,0.113605536 L154.595211,0.113605536 Z" id="Button" fill="#3FA2F7"></path>
                        <g id="Google-Play" stroke-width="1" transform="translate(42.000000, 18.000000)" fill="#FFFFFE">
                            <path d="M16.2002491,8.27709343 L8.65710727,8.27709343 L8.65710727,10.5153218 L14.0068651,10.5153218 C13.7424498,13.6542561 11.1310173,14.9927751 8.66607612,14.9927751 C5.51235986,14.9927751 2.76041522,12.511391 2.76041522,9.03346713 C2.76041522,5.64556401 5.38380623,3.03629066 8.67288581,3.03629066 C11.2107405,3.03629066 12.7060484,4.65400692 12.7060484,4.65400692 L14.2734394,3.03097578 C14.2734394,3.03097578 12.2617578,0.791584775 8.59283045,0.791584775 C3.9210519,0.791418685 0.306768166,4.73456055 0.306768166,8.99360554 C0.306768166,13.1669481 3.70646367,17.2363183 8.71191696,17.2363183 C13.1141315,17.2361522 16.336609,14.2206228 16.336609,9.76094118 C16.336609,8.82004152 16.200083,8.27642907 16.200083,8.27642907 L16.2002491,8.27709343" id="Fill-30"></path>
                            <path d="M22.6124844,6.65605536 C19.5170657,6.65605536 17.2989343,9.07565398 17.2989343,11.8981869 C17.2989343,14.76191 19.4502976,17.2268512 22.648526,17.2268512 C25.5438062,17.2268512 27.915737,15.0137024 27.915737,11.9596401 C27.915737,8.45879585 25.1566505,6.65605536 22.6124844,6.65605536 L22.6124844,6.65605536 Z M22.643045,8.73201384 C24.1652595,8.73201384 25.6075848,9.96257439 25.6075848,11.9455225 C25.6075848,13.8862837 24.1712388,15.1520554 22.6360692,15.1520554 C20.9492595,15.1520554 19.6183806,13.8010796 19.6183806,11.9302422 C19.6183806,10.0992664 20.9328166,8.73201384 22.643045,8.73201384 L22.643045,8.73201384 Z" id="Fill-31"></path>
                            <path d="M34.2937578,6.65605536 C31.1985052,6.65605536 28.9802076,9.07565398 28.9802076,11.8981869 C28.9802076,14.76191 31.131737,17.2268512 34.3301315,17.2268512 C37.2252457,17.2268512 39.5971765,15.0137024 39.5971765,11.9596401 C39.5971765,8.45879585 36.8382561,6.65605536 34.2937578,6.65605536 L34.2937578,6.65605536 Z M34.3244844,8.73201384 C35.8465329,8.73201384 37.2890242,9.96257439 37.2890242,11.9455225 C37.2890242,13.8862837 35.8526782,15.1520554 34.3173426,15.1520554 C32.630699,15.1520554 31.2999862,13.8010796 31.2999862,11.9302422 C31.2999862,10.0992664 32.61409,8.73201384 34.3244844,8.73201384 L34.3244844,8.73201384 Z" id="Fill-32"></path>
                            <path d="M45.7355294,6.66153633 C42.8947266,6.66153633 40.6613149,9.14989619 40.6613149,11.942699 C40.6613149,15.1239862 43.2503253,17.233827 45.6865329,17.233827 C47.1931349,17.233827 47.9940208,16.635737 48.585301,15.9494533 L48.585301,16.9916678 C48.585301,18.8151696 47.4781453,19.907045 45.8069481,19.907045 C44.1925536,19.907045 43.382699,18.7067128 43.1013426,18.0254118 L41.0698962,18.8746298 C41.7907266,20.3985052 43.2413564,21.9874879 45.8237232,21.9874879 C48.6485813,21.9874879 50.8014394,20.2083322 50.8014394,16.4767889 L50.8014394,6.97926644 L48.5854671,6.97926644 L48.5854671,7.87465744 C47.9041661,7.1403737 46.9724014,6.66170242 45.7355294,6.66170242 L45.7355294,6.66153633 L45.7355294,6.66153633 Z M45.9411488,8.73350865 C47.3341453,8.73350865 48.7645121,9.92287889 48.7645121,11.953827 C48.7645121,14.0183253 47.3371349,15.1562076 45.9104221,15.1562076 C44.3960138,15.1562076 42.9865744,13.9263114 42.9865744,11.9735917 C42.9865744,9.94447059 44.4503253,8.73350865 45.9411488,8.73350865 L45.9411488,8.73350865 Z" id="Fill-33"></path>
                            <path d="M61.1202768,6.64891349 C58.4404152,6.64891349 56.1903945,8.78117647 56.1903945,11.9272526 C56.1903945,15.2563599 58.6983529,17.2308374 61.3777163,17.2308374 C63.6139516,17.2308374 64.9863529,16.0075848 65.8055087,14.9112249 L63.978519,13.6956125 C63.5043322,14.431391 62.7115848,15.1507266 61.3888443,15.1507266 C59.9031696,15.1505606 59.2198754,14.3368858 58.7965121,13.5487889 L65.883737,10.608 L65.5156817,9.74615917 C64.8310588,8.05851903 63.2341038,6.64924567 61.1204429,6.64924567 L61.1202768,6.64891349 L61.1202768,6.64891349 Z M61.2127889,8.68168858 C62.178436,8.68168858 62.8733564,9.19507266 63.1684983,9.81060208 L58.4355986,11.7887336 C58.2316401,10.2573841 59.6826021,8.68168858 61.2126228,8.68168858 L61.2127889,8.68168858 L61.2127889,8.68168858 Z" id="Fill-34"></path>
                            <polygon id="Fill-35" points="52.5786021 16.9169273 54.906519 16.9169273 54.906519 1.33818685 52.5786021 1.33818685"></polygon>
                            <polygon id="Fill-36" points="83.7898962 16.9169273 86.1178131 16.9169273 86.1178131 1.33818685 83.7898962 1.33818685"></polygon>
                            <polygon id="Fill-37" points="71.4450934 16.9169273 73.7730104 16.9169273 73.7730104 1.33818685 71.4450934 1.33818685"></polygon>
                            <path d="M73.7730104,3.66610381 L73.7730104,8.93597232 L77.0762076,8.93597232 C78.5210242,8.93597232 79.711391,7.74577163 79.711391,6.30095502 C79.711391,4.8563045 78.5210242,3.66610381 77.0762076,3.66610381 L73.7730104,3.66610381 L73.7730104,3.66610381 Z M71.4450934,1.33802076 L77.0762076,1.33802076 C79.8058962,1.33802076 82.0391419,3.57143253 82.0391419,6.30095502 C82.0391419,9.0306436 79.8058962,11.2637232 77.0762076,11.2637232 L71.4450934,11.2637232 L71.4450934,1.33802076 L71.4450934,1.33802076 Z" id="Fill-38"></path>
                            <polyline id="Fill-39" points="103.305135 21.9874879 110.045564 6.64924567 107.502893 6.64924567 100.76263 21.9874879 103.305135 21.9874879"></polyline>
                            <polyline id="Fill-40" points="104.057522 18.4766782 98.8600692 6.64924567 101.402574 6.64924567 104.98746 14.8065882 104.057522 14.8065882 104.057522 18.4766782"></polyline>
                            <path d="M95.6452318,12.4137301 C95.3474325,13.7092318 94.3430865,14.6409965 93.0690104,14.9881246 C90.3771903,15.72191 89.7075156,11.348263 93.7077924,11.9496747 C94.3945744,12.0325536 94.993827,12.2027958 95.6452318,12.4137301 L95.6452318,12.4137301 Z M95.6452318,16.9169273 L97.9731488,16.9169273 L97.9731488,11.3140484 C98.3373841,5.53528028 91.0109896,4.176 88.238782,8.34186851 L90.1121107,9.59900346 C91.4675709,7.22906574 95.335474,7.7743391 95.5897578,10.3140208 C94.4272941,10.0062561 93.1714879,9.78286505 92.0241384,9.89896194 C90.2331903,10.0801661 88.6998478,11.2177163 88.4561938,13.0805813 C88.3244844,14.0869204 88.5492042,15.3281107 89.2519308,16.0843183 C90.347128,17.2622284 92.145218,17.4211765 93.6224221,17.0187405 C94.4540346,16.7918616 95.1087612,16.29791 95.6452318,15.6596263 L95.6452318,16.9169273 L95.6452318,16.9169273 Z" id="Fill-41"></path>
                        </g>
                        <g id="Get-it-on" stroke-width="1" transform="translate(42.000000, 6.000000)" fill="#FFFFFE">
                            <path d="M8.01035294,3.85943253 L4.57760554,3.85943253 L4.57760554,4.87806228 L7.01231834,4.87806228 C6.89190311,6.30660208 5.70352941,6.91565398 4.58175779,6.91565398 C3.14657439,6.91565398 1.89408997,5.7864083 1.89408997,4.20373702 C1.89408997,2.66192388 3.08794464,1.47438062 4.5847474,1.47438062 C5.73990311,1.47438062 6.4203737,2.21065744 6.4203737,2.21065744 L7.13356401,1.47205536 C7.13356401,1.47205536 6.21807612,0.452927336 4.5483737,0.452927336 C2.42225606,0.452761246 0.777633218,2.24736332 0.777633218,4.18546713 C0.777633218,6.08470588 2.32476125,7.936609 4.60251903,7.936609 C6.60606228,7.936609 8.07263668,6.56420761 8.07263668,4.53475433 C8.07263668,4.10657439 8.01035294,3.85910035 8.01035294,3.85910035 L8.01035294,3.85943253" id="Fill-42"></path>
                            <polygon id="Fill-43" points="22.0411349 7.79128028 23.1004567 7.79128028 23.1004567 0.701564014 22.0411349 0.701564014"></polygon>
                            <path d="M16.1082353,7.79128028 L17.1677232,7.79128028 L17.1677232,1.76088581 L18.9066851,1.76088581 L18.9066851,0.701564014 L14.3692734,0.701564014 L14.3692734,1.76088581 L16.1082353,1.76088581 L16.1082353,7.79128028" id="Fill-44"></path>
                            <path d="M9.18942561,7.79128028 L13.2523183,7.79128028 L13.2523183,6.73195848 L10.2489135,6.73195848 L10.2489135,4.77624913 L12.8907405,4.77624913 L12.8907405,3.71676125 L10.2489135,3.71676125 L10.2489135,1.76088581 L13.2523183,1.76088581 L13.2523183,0.701564014 L9.18942561,0.701564014 L9.18942561,7.79128028" id="Fill-45"></path>
                            <path d="M25.7019239,7.79128028 L26.7612457,7.79128028 L26.7612457,1.76088581 L28.5002076,1.76088581 L28.5002076,0.701564014 L23.9629619,0.701564014 L23.9629619,1.76088581 L25.7019239,1.76088581 L25.7019239,7.79128028" id="Fill-46"></path>
                            <path d="M34.9969827,0.452927336 C32.8708651,0.452761246 31.2260761,2.24719723 31.2260761,4.18546713 C31.2260761,6.0695917 32.7487889,7.90687889 34.9969827,7.93594464 C37.2451765,7.90687889 38.7678893,6.0695917 38.7678893,4.18546713 C38.7678893,2.24719723 37.1231003,0.452761246 34.9969827,0.452927336 L34.9969827,0.452927336 Z M34.9969827,6.9153218 C33.5757509,6.89788235 32.342699,5.77411765 32.342699,4.20373702 C32.342699,2.67438062 33.5172872,1.49397924 34.9969827,1.47487889 C36.4768443,1.49397924 37.6512664,2.67438062 37.6512664,4.20373702 C37.6512664,5.77411765 36.4182145,6.89788235 34.9969827,6.9153218 L34.9969827,6.9153218 Z" id="Fill-47"></path>
                            <polyline id="Fill-48" points="39.8260484 7.79128028 40.8855363 7.79128028 40.8855363 2.62704498 44.2880554 7.79128028 45.3457163 7.79128028 45.3457163 0.701564014 44.2862284 0.701564014 44.2862284 5.86314187 40.8855363 0.701564014 39.8260484 0.701564014 39.8260484 7.79128028"></polyline>
                        </g>
                        <g id="Icon" stroke-width="1" transform="translate(13.000000, 15.000000)" fill="#FFFFFE">
                            <path d="M0.850740484,0.295889273 L12.8205121,12.2477232 L0.908207612,24.3038616 C0.560581315,24.0834602 0.374228374,23.604955 0.371072664,22.9869343 C0.365093426,21.8023806 0.270256055,2.99950173 0.263114187,1.58873356 C0.259792388,0.912083045 0.505937716,0.499183391 0.850740484,0.295889273 L0.850740484,0.295889273 Z M16.7676401,8.25309343 L2.21234602,0.31216609 C2.05688581,0.227128028 1.88033218,0.175474048 1.70444291,0.152387543 L13.3156263,11.7466298 L16.7676401,8.25309343 L16.7676401,8.25309343 Z M17.4148927,15.8395848 L13.8142284,12.2444014 L17.4112388,8.60420761 L22.3647059,11.3061592 C23.5849689,11.9715156 22.9608028,12.8039585 22.3647059,13.1303253 L17.4148927,15.8395848 L17.4148927,15.8395848 Z M1.8949481,24.3076817 C1.99642907,24.269481 2.10239446,24.2208166 2.21234602,24.160692 L16.7706298,16.1920277 L13.3191142,12.7456609 L1.8949481,24.3076817 L1.8949481,24.3076817 Z" id="Fill-49"></path>
                        </g>
                    </g>
                </g>
            </g>
        </g>
    </g>
</svg>