<?xml version="1.0" encoding="UTF-8"?>
<svg width="128px" height="34px" viewBox="0 0 128 34" version="1.1" xmlns="http://www.w3.org/2000/svg" xmlns:xlink="http://www.w3.org/1999/xlink">
    <!-- Generator: Sketch 45.1 (43504) - http://www.bohemiancoding.com/sketch -->
    <title>Your Logo</title>
    <desc>Created with Sketch.</desc>
    <defs></defs>
    <g id="Components" stroke="none" stroke-width="1" fill="none" fill-rule="evenodd">
        <g id="Headers" transform="translate(-70.000000, -50.000000)" fill="#297FCA">
            <g id="Header-#1">
                <g id="Images-/-Your-Logo-Here" transform="translate(70.000000, 50.000000)">
                    <g id="Your-logo---Switch">
                        <path d="M17,31.4814815 L17,31.4814815 C24.9979014,31.4814815 31.4814815,24.9979014 31.4814815,17 C31.4814815,9.00209862 24.9979014,2.51851852 17,2.51851852 C9.00209862,2.51851852 2.51851852,9.00209862 2.51851852,17 C2.51851852,24.9979014 9.00209862,31.4814815 17,31.4814815 L17,31.4814815 Z M17,34 L17,34 C7.61115925,34 0,26.3888407 0,17 C0,7.61115925 7.61115925,0 17,0 C26.3888407,0 34,7.61115925 34,17 C34,26.3888407 26.3888407,34 17,34 L17,34 Z M12.1617934,22.5744615 C10.7917276,21.246707 10.0958212,19.3920657 10.0740741,16.9894623 C10.0740741,14.6079343 10.7699805,12.753293 12.1400463,11.4255385 C13.5101121,10.097784 15.1846369,9.44444444 17.1418738,9.44444444 C18.7294103,9.44444444 20.055982,9.82380288 21.1215887,10.6035952 C22.1654483,11.3833876 22.9048489,12.5003874 23.2962963,13.9124438 L21.0346004,14.460406 C20.643153,13.4909344 20.1429703,12.7743685 19.5340521,12.3317837 C18.9468811,11.8681234 18.1422393,11.6573687 17.1418738,11.6573687 C15.7935551,11.6573687 14.6844542,12.0999535 13.8363182,13.0272741 C12.9664352,13.9335193 12.5314937,15.2612738 12.5314937,16.9894623 C12.5314937,18.7176507 12.9664352,20.0454052 13.8363182,20.9727259 C14.6844542,21.878971 15.7935551,22.3426313 17.1418738,22.3426313 C18.1422393,22.3426313 18.9468811,22.1318766 19.5340521,21.6682163 C20.1429703,21.2256315 20.643153,20.5090656 21.0346004,19.539594 L23.2962963,20.0875562 C22.9048489,21.4996126 22.1871954,22.6166124 21.1215887,23.3964048 C20.055982,24.1761971 18.7294103,24.5555556 17.1418738,24.5555556 C15.1846369,24.5555556 13.5101121,23.902216 12.1617934,22.5744615 Z M46.1476974,17.0525714 L46.1284652,17.0336249 C46.1284652,14.8926679 46.743896,13.225374 47.9555255,12.0317431 C49.167155,10.8381122 50.6480355,10.25077 52.3789347,10.25077 C53.7828863,10.25077 54.9560514,10.5918074 55.8984299,11.2928287 C56.8215761,11.99385 57.4754714,12.9980157 57.8216513,14.2674327 L55.821501,14.7600422 C55.4753212,13.8885022 55.0329802,13.2443205 54.4944783,12.8464435 C53.9752085,12.4296201 53.2636166,12.2401548 52.3789347,12.2401548 C51.1865375,12.2401548 50.2056945,12.6380318 49.4556382,13.4716788 C48.6863496,14.2863792 48.3017054,15.4800101 48.3017054,17.0336249 C48.3017054,18.5872397 48.6863496,19.7808705 49.4556382,20.6145175 C50.2056945,21.4292179 51.1865375,21.8460414 52.3789347,21.8460414 C53.2636166,21.8460414 53.9752085,21.6565762 54.4944783,21.2397527 C55.0329802,20.8418757 55.4753212,20.197694 55.821501,19.326154 L57.8216513,19.8187636 C57.4754714,21.0881805 56.8408084,22.0923462 55.8984299,22.7933675 C54.9560514,23.4943888 53.7828863,23.8354262 52.3789347,23.8354262 C50.6480355,23.8354262 49.167155,23.248084 47.9747577,22.0544531 C46.7631282,20.8608223 46.1476974,19.1935283 46.1476974,17.0525714 Z M59.4756217,18.9093305 C59.4756217,17.5262344 59.8987304,16.3515501 60.76418,15.404224 C61.6296296,14.4568979 62.7835625,13.9832348 64.2259785,13.9832348 C65.6876268,13.9832348 66.8415596,14.4568979 67.7070092,15.404224 C68.5532267,16.3515501 68.9955676,17.5262344 68.9955676,18.9093305 C68.9955676,20.2924266 68.5532267,21.467111 67.7070092,22.4144371 C66.8415596,23.3428166 65.6876268,23.8164797 64.2259785,23.8164797 C62.7835625,23.8164797 61.6296296,23.3428166 60.76418,22.4144371 C59.8987304,21.467111 59.4756217,20.2924266 59.4756217,18.9093305 Z M61.5911652,18.9093305 C61.5911652,19.7808705 61.8219518,20.5197849 62.3027571,21.1639666 C62.7643303,21.7892018 63.4182255,22.1112927 64.2452107,22.1112927 C65.0914281,22.1112927 65.7453234,21.7892018 66.2068966,21.1639666 C66.6684697,20.5197849 66.9184885,19.7808705 66.9184885,18.9093305 C66.9184885,18.0377905 66.6684697,17.2988762 66.2068966,16.6546944 C65.7453234,16.0294592 65.0914281,15.7263149 64.2452107,15.7263149 C63.4182255,15.7263149 62.7643303,16.0294592 62.3027571,16.6546944 C61.8219518,17.2988762 61.5911652,18.0377905 61.5911652,18.9093305 Z M71.6111487,23.683854 L71.6111487,14.1727001 L73.6112989,14.1727001 L73.6112989,15.8021009 C74.3805875,14.6084701 75.3614304,14.0211279 76.5345954,14.0211279 C77.1692585,14.0211279 77.7462249,14.1916466 78.2462625,14.5516305 C78.7463001,14.9116144 79.0732477,15.3852775 79.2078732,15.9726196 C79.5348208,15.3473844 79.9771617,14.8547748 80.4964315,14.5137375 C81.0157013,14.1727001 81.5926677,14.0021814 82.2273308,14.0021814 C83.1120126,14.0021814 83.7851401,14.2484861 84.2659455,14.7789888 C84.765983,15.3094914 84.9967696,16.0105127 84.9967696,16.8631062 L84.9967696,23.7028005 L82.9966193,23.7028005 L82.9966193,17.2988762 C82.9966193,16.7873201 82.8619938,16.4083896 82.6119751,16.1431383 C82.3619563,15.8589405 82.0157764,15.7452614 81.5734355,15.7452614 C80.9387724,15.7452614 80.4002705,16.1052453 79.9771617,16.8631062 C79.5348208,17.6020205 79.3040343,18.6061862 79.3040343,19.8566566 L79.3040343,23.683854 L77.303884,23.683854 L77.303884,17.2988762 C77.303884,16.7873201 77.1692585,16.3894431 76.9192397,16.1241918 C76.6692209,15.8589405 76.3230411,15.7263149 75.8807002,15.7263149 C75.2460371,15.7263149 74.7075351,16.1052453 74.2651942,16.8820527 C73.8228533,17.6399136 73.6112989,18.7009188 73.6112989,20.0650684 L73.6112989,23.683854 L71.6111487,23.683854 Z M88.1700849,27.5489445 L88.1700849,14.1158605 L90.1702351,14.1158605 L90.1702351,15.2147588 C90.3625573,14.9116144 90.6895049,14.6084701 91.1895425,14.3621653 C91.6703478,14.096914 92.2088498,13.9642883 92.8050485,13.9642883 C94.2090001,13.9642883 95.2860041,14.4000583 96.0168282,15.2715983 C96.7476523,16.1431383 97.1130644,17.3557157 97.1130644,18.9093305 C97.1130644,20.4250523 96.7476523,21.6376297 96.0168282,22.5091697 C95.2667718,23.3807097 94.1897679,23.8354262 92.766584,23.8354262 C92.2088498,23.8354262 91.68958,23.7028005 91.2280069,23.4754423 C90.7664338,23.248084 90.4202539,22.9638862 90.1702351,22.6228488 L90.1702351,27.5489445 L88.1700849,27.5489445 Z M90.0740741,18.890384 L90.0356096,18.890384 C90.0356096,19.8566566 90.2663962,20.633464 90.7279693,21.2208062 C91.1895425,21.7892018 91.7857411,22.0733997 92.5165652,22.0733997 C93.2473894,22.0733997 93.843588,21.7892018 94.3051611,21.2208062 C94.7667343,20.633464 94.9975208,19.8566566 94.9975208,18.890384 C94.9975208,17.9241114 94.7859665,17.147304 94.3243934,16.5789083 C93.8628202,15.9915662 93.2666216,15.7073683 92.5357975,15.7073683 C91.8049733,15.7073683 91.2087747,15.9915662 90.7472016,16.5789083 C90.2856284,17.147304 90.0740741,17.9241114 90.0740741,18.890384 Z M98.9208925,20.9366084 L98.9016603,20.9366084 C98.9016603,19.9703357 99.2863046,19.1935283 100.074825,18.6440792 C100.844114,18.0946301 101.844189,17.8104323 103.113515,17.8104323 L104.786718,17.8104323 L104.786718,17.3936088 C104.786718,16.8252131 104.594396,16.4083896 104.248216,16.1431383 C103.882804,15.877887 103.440463,15.7452614 102.882729,15.7452614 C101.998047,15.7452614 101.401848,16.1620849 101.0749,16.9957318 L99.2478401,16.6168014 C99.4593945,15.8210475 99.8825032,15.1768657 100.536398,14.7032027 C101.209526,14.2295396 101.998047,14.0021814 102.901961,14.0021814 C105.49831,14.0021814 106.786868,15.2526518 106.786868,17.7725392 L106.786868,23.7028005 L105.094433,23.7028005 L104.882879,22.4523301 C104.209751,23.3807097 103.209676,23.8543727 101.901886,23.8354262 C101.036436,23.8354262 100.324844,23.5891214 99.7671099,23.0965118 C99.2093757,22.6039023 98.9208925,21.8839345 98.9208925,20.9366084 Z M101.017204,20.9366084 C101.017204,21.2965923 101.113365,21.5618436 101.324919,21.7702553 C101.536474,21.9976136 101.824957,22.1112927 102.228833,22.1112927 C102.901961,22.1112927 103.498159,21.8839345 104.017429,21.467111 C104.517467,21.031341 104.767486,20.4439988 104.767486,19.6671914 L104.767486,19.4587797 L103.017354,19.4587797 C102.401923,19.4587797 101.921118,19.5914053 101.555706,19.8566566 C101.209526,20.1219079 101.017204,20.4818918 101.017204,20.9366084 Z M109.614003,23.683854 L109.614003,14.1537535 L111.614154,14.1537535 L111.614154,15.7831544 C111.960334,15.2147588 112.421907,14.7600422 112.979641,14.4568979 C113.537375,14.134807 114.133574,13.9832348 114.768237,13.9832348 C115.614454,13.9832348 116.306814,14.2295396 116.826084,14.7221492 C117.345353,15.2337053 117.595372,15.9347266 117.595372,16.8441596 L117.595372,23.683854 L115.595222,23.683854 L115.595222,17.4693949 C115.595222,16.313657 115.114417,15.7263149 114.095109,15.7263149 C113.441214,15.7263149 112.845015,16.1052453 112.36421,16.8441596 C111.864172,17.583074 111.614154,18.5682931 111.614154,19.8187636 L111.614154,23.683854 L109.614003,23.683854 Z M119.268575,14.134807 L121.384118,14.134807 L123.672752,20.5576779 L125.884456,14.134807 L128,14.134807 L123.095785,27.5489445 L121.095635,27.5489445 L122.672677,23.210191 L119.268575,14.134807 Z" id="Acme-Logo"></path>
                    </g>
                </g>
            </g>
        </g>
    </g>
</svg>