<?xml version="1.0" encoding="UTF-8"?>
<svg width="128px" height="21px" viewBox="0 0 128 21" version="1.1" xmlns="http://www.w3.org/2000/svg" xmlns:xlink="http://www.w3.org/1999/xlink">
    <!-- Generator: Sketch 45.1 (43504) - http://www.bohemiancoding.com/sketch -->
    <title>Mashable</title>
    <desc>Created with Sketch.</desc>
    <defs></defs>
    <g id="Components" stroke="none" stroke-width="1" fill="none" fill-rule="evenodd">
        <g id="Contents" transform="translate(-833.000000, -13596.000000)" fill="#3fa2f7">
            <g id="Contents-#22" transform="translate(0.000000, 13121.000000)">
                <g id="Mashable" transform="translate(833.000000, 475.000000)">
                    <polygon id="Fill-1" points="17.1062585 0 12.5180739 11.0354827 7.8937415 0 0 0 0 20 5.68099541 20 5.68099541 6.77471192 11.2626788 20 13.7735231 20 19.3190586 6.77471192 19.3190586 20 25 20 25 0"></polygon>
                    <path d="M35.1949757,16.4696434 L35.1949757,15.1416843 C34.6788586,14.4311759 33.5186243,14.088547 32.4201468,14.088547 C31.1319654,14.088547 29.9364718,14.6468434 29.9364718,15.8225904 C29.9364718,16.9982867 31.1319654,17.5523325 32.4201468,17.5523325 C33.5186243,17.5523325 34.6788586,17.1843518 35.1949757,16.4696434 L35.1949757,16.4696434 Z M35.1949757,20.305559 L35.1949757,18.8210867 C34.2288792,19.9333783 32.3540091,20.6776892 30.3555728,20.6776892 C27.9689666,20.6776892 25,19.1002096 25,15.7591349 C25,12.1431373 27.9689666,10.933588 30.3555728,10.933588 C32.4201468,10.933588 34.2597575,11.5848916 35.1949757,12.6971831 L35.1949757,11.2127108 C35.1949757,9.91435422 34.0347942,9.01773012 32.0319241,9.01773012 C30.4834672,9.01773012 28.9350631,9.60562892 27.67776,10.6248627 L25.8381493,7.31764096 C27.8410194,5.67665542 30.5187794,5 32.9054384,5 C36.6463637,5 40.1623258,6.32795904 40.1623258,10.967441 L40.1623258,20.305559 L35.1949757,20.305559 L35.1949757,20.305559 Z" id="Fill-2"></path>
                    <path d="M41,18.3600988 L43.064574,14.9598193 C44.2248082,15.9494506 46.7084833,16.9686843 48.548094,16.9686843 C50.0303604,16.9686843 50.6435464,16.5669012 50.6435464,15.9155976 C50.6435464,14.0632458 41.5823076,15.979053 41.5823076,9.91860482 C41.5823076,7.28798795 43.9689138,5 48.2568874,5 C50.9038219,5 53.0963431,5.80351566 54.7727472,6.97931325 L52.871327,10.3499398 C51.9361089,9.48296867 50.1626887,8.71325542 48.2921996,8.71325542 C47.1275843,8.71325542 46.3555728,9.14464096 46.3555728,9.73248916 C46.3555728,11.3692241 55.3859332,9.66908434 55.3859332,15.792988 C55.3859332,18.6392723 52.7743109,20.6777398 48.3230779,20.6777398 C45.5173707,20.6777398 42.645473,19.7811157 41,18.3600988" id="Fill-4"></path>
                    <path d="M66.5478862,20.6258964 L66.5478862,11.9348313 C66.5478862,10.1120819 65.5464775,9.52418313 63.9671423,9.52418313 C62.5157542,9.52418313 61.5496577,10.2980964 60.9673501,10.9790024 L60.9673501,20.6258964 L56,20.6258964 L56,0 L60.9673501,0 L60.9673501,7.51531807 C61.9025682,6.46223133 63.7422318,5.32033735 66.3538012,5.32033735 C69.9006944,5.32033735 71.5152363,7.23619518 71.5152363,9.98942169 L71.5152363,20.6258964 L66.5478862,20.6258964 Z" id="Fill-6"></path>
                    <path d="M82.1949757,16.4696434 L82.1949757,15.1416843 C81.6788058,14.4311759 80.5185715,14.088547 79.4201468,14.088547 C78.1319126,14.088547 76.936419,14.6468434 76.936419,15.8225904 C76.936419,16.9982867 78.1319126,17.5523325 79.4201468,17.5523325 C80.5185715,17.5523325 81.6788058,17.1843518 82.1949757,16.4696434 L82.1949757,16.4696434 Z M82.1949757,20.305559 L82.1949757,18.8210867 C81.2288264,19.9333783 79.3539563,20.6776892 77.35552,20.6776892 C74.9689138,20.6776892 72,19.1002096 72,15.7591349 C72,12.1431373 74.9689138,10.933588 77.35552,10.933588 C79.4201468,10.933588 81.2597047,11.5848916 82.1949757,12.6971831 L82.1949757,11.2127108 C82.1949757,9.91435422 81.0347414,9.01773012 79.0319241,9.01773012 C77.4834672,9.01773012 75.9350103,9.60562892 74.67776,10.6248627 L72.8380965,7.31764096 C74.8409666,5.67665542 77.5187266,5 79.9053856,5 C83.6463637,5 87.1623258,6.32795904 87.1623258,10.967441 L87.1623258,20.305559 L82.1949757,20.305559 Z" id="Fill-8"></path>
                    <path d="M96.9363167,16.7900313 C98.9038219,16.7900313 100.386088,15.3986169 100.386088,13.1444313 C100.386088,10.9156482 98.9038219,9.52423373 96.9363167,9.52423373 C95.8730986,9.52423373 94.5805361,10.0824795 93.9673501,10.8860458 L93.9673501,15.4620723 C94.5805361,16.265588 95.8730986,16.7900313 96.9363167,16.7900313 L96.9363167,16.7900313 Z M89,20.625947 L89,0 L93.9673501,0 L93.9673501,7.45191325 C95.1937221,5.96744096 96.8701262,5.32038795 98.5817897,5.32038795 C102.485974,5.32038795 105.450507,8.25547952 105.450507,13.1444313 C105.450507,18.2152482 102.419837,20.9980771 98.5817897,20.9980771 C96.8392478,20.9980771 95.2599126,20.3172217 93.9673501,18.8961542 L93.9673501,20.625947 L89,20.625947 Z" id="Fill-10"></path>
                    <polygon id="Fill-12" points="106 20.6258964 110.96735 20.6258964 110.96735 0 106 0"></polygon>
                    <path d="M119.258349,8.83591566 C117.096706,8.83591566 116.258557,10.0708169 116.064419,11.153506 L122.48321,11.153506 C122.355263,10.1004193 121.547939,8.83591566 119.258349,8.83591566 M111,12.8240434 C111,8.49328675 114.388015,5 119.258349,5 C123.872788,5 127.225544,8.24806747 127.225544,13.3188843 L127.225544,14.4015229 L116.130609,14.4015229 C116.48352,15.7295325 117.776082,16.8460747 120.03036,16.8460747 C121.128891,16.8460747 122.93757,16.3808361 123.837529,15.5773205 L125.999172,18.6984265 C124.450715,20.0306361 121.870024,20.6777398 119.483365,20.6777398 C114.679221,20.6777398 111,17.6791928 111,12.8240434" id="Fill-14"></path>
                </g>
            </g>
        </g>
    </g>
</svg>