<?xml version="1.0" encoding="UTF-8"?>
<svg width="105px" height="29px" viewBox="0 0 105 29" version="1.1" xmlns="http://www.w3.org/2000/svg" xmlns:xlink="http://www.w3.org/1999/xlink">
    <!-- Generator: Sketch 45.1 (43504) - http://www.bohemiancoding.com/sketch -->
    <title>Netflix</title>
    <desc>Created with Sketch.</desc>
    <defs></defs>
    <g id="Components" stroke="none" stroke-width="1" fill="none" fill-rule="evenodd">
        <g id="Testimonials" transform="translate(-903.000000, -2413.000000)" fill="#3fa2f7">
            <g id="Testimonials-#5" transform="translate(0.000000, 2304.000000)">
                <g id="Logos" transform="translate(150.000000, 100.000000)">
                    <path d="M839.192492,22.1821603 L839.192492,35.3636874 L834.707112,35.3636874 L834.707112,21.9912738 L834.707112,9.00054281 L839.192492,9.00054281 L839.192492,22.1821603 Z M842.589458,35.6747147 L848.050983,22.1606743 L843.424473,9.01483668 L847.909853,9.01483668 L850.456515,16.231432 L853.356904,9.07183122 L853.399424,9.00036187 L857.942703,9.00036187 L852.578883,22.2457138 L857.942703,37.4714 C856.385757,37.2452312 854.81524,37.0480119 853.243819,36.8489834 L850.186921,28.174956 L846.976229,36.1279571 C845.517892,35.9714483 844.045985,35.8167488 842.589458,35.6747147 Z M805.51369,33.8776676 C805.216052,33.8776676 804.932889,33.8921424 804.636155,33.8776676 L804.636155,9 L815.333941,9 L815.333941,13.132557 L809.136915,13.132557 L809.136915,20.0949386 L814.527876,20.0949386 L814.527876,24.2130208 L809.136915,24.2130208 L809.136915,33.8921424 C807.933697,33.8921424 806.730479,33.8776676 805.51369,33.8776676 Z M791.589289,34.1326051 L791.589289,13.1332808 L787.400642,13.1332808 L787.400642,9.00072374 L800.264221,9.00072374 L800.264221,13.1332808 L796.07467,13.1332808 L796.07467,33.9905711 C794.574718,34.0339955 793.089241,34.0765153 791.589289,34.1326051 Z M757.301731,36.9194576 C755.872344,37.0895365 754.442957,37.2876604 753.028045,37.4713095 L753,37.4713095 L753,9.0002714 L757.301731,9.0002714 L757.486285,9.0002714 L763.217403,25.2600016 L763.217403,9.0002714 L767.51823,9.0002714 L767.51823,35.7596638 C765.877149,35.9288381 764.235163,36.0998217 762.608557,36.2834708 L757.301731,21.2133887 L757.301731,36.9194576 Z M783.069961,13.1329189 L776.85846,13.1329189 L776.85846,20.0943958 L782.250325,20.0943958 L782.250325,24.2269528 L776.85846,24.2269528 L776.85846,30.8211315 C778.923834,30.6655273 780.990113,30.5243979 783.055487,30.4113135 L783.055487,33.3542225 L783.055487,34.5429659 C779.475686,34.7546599 775.910361,35.0097784 772.358605,35.3209867 L772.358605,31.1884297 L772.358605,9.00036187 L783.069961,9.00036187 L783.069961,13.1329189 Z M824.235314,30.2126468 C826.300687,30.3112564 828.366966,30.4252455 830.447719,30.5808497 L830.447719,33.3681545 L830.447719,34.6980272 C826.881489,34.4582883 823.315259,34.2737345 819.734554,34.1470799 L819.734554,30.0145229 L819.734554,9.00072374 L824.235314,9.00072374 L824.235314,30.2126468 Z" id="Netflix"></path>
                </g>
            </g>
        </g>
    </g>
</svg>