<?xml version="1.0" encoding="UTF-8"?>
<svg width="336px" height="32px" viewBox="0 0 336 32" version="1.1" xmlns="http://www.w3.org/2000/svg" xmlns:xlink="http://www.w3.org/1999/xlink">
    <!-- Generator: Sketch 45.1 (43504) - http://www.bohemiancoding.com/sketch -->
    <title>Logos</title>
    <desc>Created with Sketch.</desc>
    <defs></defs>
    <g id="Components" stroke="none" stroke-width="1" fill="none" fill-rule="evenodd">
        <g id="Contents" transform="translate(-150.000000, -9338.000000)" fill="#D4E7F8">
            <g id="Contents-#16" transform="translate(0.000000, 8950.000000)">
                <g id="Logos" transform="translate(150.000000, 388.000000)">
                    <path d="M137.771035,25.9135863 C137.545697,27.5794402 136.419788,29.0209695 134.84281,29.6615625 C134.070781,29.981859 133.234089,30.0778309 132.397398,29.981859 C131.593233,29.8858871 130.788677,29.6295718 129.951985,29.148932 C128.793941,28.508339 127.635505,27.5154589 126.283866,26.0419389 C128.407535,23.4471862 129.694903,21.0771482 130.177324,18.9630352 C130.402662,17.9697649 130.434797,17.0728567 130.338392,16.2403199 C130.209459,15.4393836 129.91985,14.7024286 129.469565,14.0618356 C128.471805,12.6206964 126.798814,11.7877694 124.932619,11.7877694 C123.066424,11.7877694 121.393041,12.652687 120.395673,14.0618356 C119.944996,14.7024286 119.655387,15.4393836 119.526846,16.2403199 C119.398305,17.0728567 119.430441,18.0017556 119.687914,18.9630352 C120.170335,21.0771482 121.489839,23.4791768 123.58098,26.0739296 C122.261868,27.5474495 121.071297,28.5403297 119.912861,29.1809227 C119.076561,29.6615625 118.272005,29.9178777 117.467448,30.0138496 C116.598621,30.1098215 115.762322,29.981859 115.022036,29.6935531 C113.44545,29.0529601 112.319149,27.6114308 112.094203,25.945967 C111.997405,25.1450307 112.062067,24.3440944 112.383812,23.4471862 C112.480217,23.1268897 112.641285,22.8065932 112.801962,22.4223154 C113.0273,21.909685 113.284774,21.3650639 113.541856,20.8208329 L113.574383,20.7564615 C115.794457,15.9840047 118.175599,11.1151858 120.653147,6.37432946 L120.749553,6.18199551 C121.007026,5.70174583 121.2645,5.18911538 121.521974,4.70847557 C121.779056,4.19623525 122.068665,3.71559544 122.422936,3.29932703 C123.098559,2.53038135 123.999522,2.11411294 124.996889,2.11411294 C125.994257,2.11411294 126.895219,2.53038135 127.570843,3.29932703 C127.925114,3.71559544 128.214723,4.19623525 128.471805,4.70847557 C128.729279,5.18911538 128.986752,5.70174583 129.244226,6.18199551 L129.340632,6.37432946 C131.786045,11.1471764 134.167187,16.0159953 136.387653,20.7888423 L136.387653,20.8208329 C136.644735,21.3330732 136.870073,21.909685 137.127547,22.4223154 C137.288223,22.8065932 137.449291,23.1268897 137.545697,23.4471862 C137.80317,24.2801131 137.899968,25.0810494 137.771035,25.9135863 L137.771035,25.9135863 Z M124.932619,24.4084658 C123.194965,22.2299815 122.068665,20.1802399 121.68265,18.4504048 C121.521974,17.7134497 121.489839,17.0728567 121.586244,16.496245 C121.650515,15.9840047 121.843718,15.5353555 122.101192,15.1510777 C122.712545,14.2861601 123.742048,13.7415391 124.932619,13.7415391 C126.12319,13.7415391 127.184828,14.2541695 127.764046,15.1510777 C128.02152,15.5353555 128.214723,15.9840047 128.278994,16.496245 C128.375399,17.0728567 128.343264,17.7454404 128.182196,18.4504048 C127.796181,20.1478592 126.670273,22.1979908 124.932619,24.4084658 L124.932619,24.4084658 Z M139.444027,22.7426119 C139.28335,22.3583341 139.122674,21.9416756 138.961606,21.5893885 C138.704132,21.0127767 138.446659,20.4685458 138.22132,19.9559153 L138.189185,19.9239247 C135.969111,15.1190871 133.587969,10.2502682 131.078286,5.44543061 L130.98188,5.25309665 C130.724406,4.77284697 130.466933,4.26021652 130.209459,3.74758607 C129.887715,3.17097435 129.56597,2.56237199 129.051023,1.9861504 C128.02152,0.704574271 126.54134,0 124.964754,0 C123.356033,0 121.907988,0.704574271 120.845958,1.92177899 C120.363538,2.49839071 120.009658,3.10699308 119.687914,3.6836048 C119.430441,4.19623525 119.172967,4.70847557 118.915493,5.18911538 L118.819087,5.38144933 C116.34154,10.1862869 113.928262,15.0551058 111.707796,19.8595533 L111.675661,19.9239247 C111.450714,20.436165 111.193241,20.9807861 110.935767,21.5573978 C110.774699,21.909685 110.614023,22.2939627 110.452955,22.7106213 C110.034805,23.8958354 109.906264,25.016678 110.06694,26.1699015 C110.420819,28.5723203 112.02954,30.5904613 114.250006,31.4873696 C115.086306,31.8396567 115.955133,32 116.856095,32 C117.113569,32 117.435313,31.9676192 117.692787,31.9356286 C118.754817,31.807666 119.84859,31.4553789 120.910621,30.8467766 C122.229733,30.1098215 123.484574,29.0529601 124.900484,27.5154589 C126.316001,29.0529601 127.60337,30.1098215 128.890347,30.8467766 C129.951985,31.4553789 131.04615,31.807666 132.107789,31.9356286 C132.365262,31.9676192 132.687007,32 132.94448,32 C133.845442,32 134.746405,31.8396567 135.550961,31.4873696 C137.80317,30.5904613 139.379756,28.5403297 139.733636,26.1699015 C139.991109,25.0490588 139.862568,23.927826 139.444027,22.7426119 L139.444027,22.7426119 Z M171.524391,11.4674729 C172.457489,11.4674729 172.940301,11.6274261 172.940301,11.6274261 L172.940301,14.4784941 C172.940301,14.4784941 170.365955,13.6135765 168.757235,15.4393836 L168.757235,23.8638447 L165.668334,23.8638447 L165.668334,11.7877694 L168.274422,11.7877694 C168.531896,11.7877694 168.725099,12.012094 168.725099,12.2360285 L168.725099,12.7486589 C169.304317,12.0760753 170.559159,11.4674729 171.524391,11.4674729 L171.524391,11.4674729 Z M179.890132,21.2371013 C178.699561,21.2371013 177.766464,20.628499 177.284043,19.9239247 L177.284043,15.6317175 C177.766464,14.9907344 178.796359,14.3181508 179.890132,14.3181508 C181.94953,14.3181508 183.526116,15.5993368 183.526116,17.7778211 C183.526116,19.9559153 181.94953,21.2371013 179.890132,21.2371013 L179.890132,21.2371013 Z M180.40508,11.4674729 C178.281411,11.4674729 177.284043,12.7486589 177.284043,12.7486589 L177.284043,5.99005169 L174.195142,5.99005169 L174.195142,23.8318541 L176.801231,23.8318541 C177.058705,23.8318541 177.251908,23.6075295 177.251908,23.3832049 L177.251908,22.8385838 C177.251908,22.8385838 178.249276,24.1521506 180.372944,24.1521506 C183.879995,24.1521506 186.615017,21.4614259 186.615017,17.8098118 C186.647544,14.1581976 183.912522,11.4674729 180.40508,11.4674729 L180.40508,11.4674729 Z M198.971013,16.688579 L198.971013,23.8638447 L195.882112,23.8638447 L195.882112,17.0408661 C195.882112,15.0551058 195.238623,14.2541695 193.50097,14.2541695 C192.567872,14.2541695 191.60264,14.7348093 190.991287,15.4393836 L190.991287,23.8318541 L187.902386,23.8318541 L187.902386,11.7877694 L190.347798,11.7877694 C190.605272,11.7877694 190.798083,12.012094 190.798083,12.2360285 L190.798083,12.7486589 C191.699045,11.8197601 192.889616,11.4674729 194.080188,11.4674729 C195.431435,11.4674729 196.557735,11.8517507 197.458697,12.6206964 C198.552863,13.5176046 198.971013,14.6704379 198.971013,16.688579 L198.971013,16.688579 Z M206.275115,21.2371013 C205.084544,21.2371013 204.151447,20.628499 203.668635,19.9239247 L203.668635,15.6317175 C204.151447,14.9907344 205.18095,14.3181508 206.275115,14.3181508 C208.334513,14.3181508 209.911099,15.5993368 209.911099,17.7778211 C209.911099,19.9559153 208.334513,21.2371013 206.275115,21.2371013 L206.275115,21.2371013 Z M206.790063,11.4674729 C204.666394,11.4674729 203.668635,12.7486589 203.668635,12.7486589 L203.668635,5.99005169 L200.579734,5.99005169 L200.579734,23.8318541 L203.186214,23.8318541 C203.443688,23.8318541 203.636499,23.6075295 203.636499,23.3832049 L203.636499,22.8385838 C203.636499,22.8385838 204.634259,24.1521506 206.757928,24.1521506 C210.264978,24.1521506 213,21.4614259 213,17.8098118 C213,14.1581976 210.264978,11.4674729 206.790063,11.4674729 L206.790063,11.4674729 Z M160.648576,11.7877694 L163.737476,11.7877694 L163.737476,23.8318541 L160.648576,23.8318541 L160.648576,11.7877694 Z M155.661345,19.9559153 C155.178532,20.6604896 154.2133,21.269092 153.054864,21.269092 C150.995466,21.269092 149.41888,19.987906 149.41888,17.8098118 C149.41888,15.6317175 150.995466,14.3501414 153.054864,14.3501414 C154.181165,14.3501414 155.210668,14.9907344 155.661345,15.6637082 L155.661345,19.9559153 L155.661345,19.9559153 Z M155.661345,12.2360285 L155.661345,12.7486589 C155.661345,12.7486589 154.663585,11.4674729 152.540308,11.4674729 C149.032866,11.4674729 146.297844,14.126207 146.297844,17.8098118 C146.297844,21.4614259 149.00073,24.1521506 152.540308,24.1521506 C154.696112,24.1521506 155.661345,22.8385838 155.661345,22.8385838 L155.661345,23.3832049 C155.661345,23.6395201 155.854156,23.8318541 156.11163,23.8318541 L158.71811,23.8318541 L158.71811,11.7877694 L156.11163,11.7877694 C155.854156,11.7877694 155.661345,12.012094 155.661345,12.2360285 L155.661345,12.2360285 Z M164.284559,8.03979323 C164.284559,9.19301668 163.351462,10.1219155 162.193026,10.1219155 C161.03459,10.1219155 160.101493,9.19301668 160.101493,8.03979323 C160.101493,6.88695991 161.002455,5.95806106 162.193026,5.95806106 C163.383597,5.99005169 164.284559,6.91895055 164.284559,8.03979323 L164.284559,8.03979323 Z" id="Airbnb"></path>
                    <path d="M284.476859,12.0828505 L281.350969,12.0828505 C281.350969,12.0828505 281.346156,7.92804635 281.346156,7.92700856 C281.346156,7.76978293 281.265719,7.69108363 281.085078,7.69108363 L276.825156,7.69108363 C276.659641,7.69108363 276.570609,7.764421 276.570609,7.92458704 L276.570609,12.2193202 C276.570609,12.2193202 274.435922,12.7378708 274.291547,12.7797284 C274.147688,12.8215861 274.041984,12.9551155 274.041984,13.1142437 L274.041984,15.8130243 C274.041984,16.0070916 274.196156,16.1636254 274.386594,16.1636254 L276.570609,16.1636254 L276.570609,22.6558852 C276.570609,27.4783361 279.931969,27.9520886 282.200031,27.9520886 C283.236437,27.9520886 284.476172,27.6172274 284.680875,27.5411225 C284.804625,27.4952867 284.876469,27.3662544 284.876469,27.2263253 L284.880078,24.2575456 C284.880078,24.0639972 284.717484,23.9072905 284.534609,23.9072905 C284.352422,23.9072905 283.886297,23.9818386 283.406594,23.9818386 C281.871234,23.9818386 281.350969,23.26334 281.350969,22.3333045 L281.350969,16.1636254 L284.476859,16.1636254 C284.667469,16.1636254 284.821812,16.0070916 284.821812,15.8130243 L284.821812,12.4325867 C284.821812,12.2390383 284.667469,12.0828505 284.476859,12.0828505 L284.476859,12.0828505 Z M330.171031,11.649226 C327.822359,11.649226 326.224781,12.7037966 326.224781,12.7037966 L326.224781,5.27285307 C326.224781,5.07913171 326.071125,4.92277091 325.881031,4.92277091 L321.702063,4.92277091 C321.512141,4.92277091 321.357625,5.07913171 321.357625,5.27285307 L321.357625,27.2173311 C321.357625,27.4110525 321.512141,27.5686241 321.702578,27.5686241 L324.602109,27.5686241 C324.732734,27.5686241 324.831563,27.5008216 324.904438,27.3821673 C324.976625,27.2642048 325.080438,26.3703191 325.080438,26.3703191 C325.080438,26.3703191 326.789391,28 330.02425,28 C333.822,28 336,26.0615757 336,19.2972412 C336,12.5330797 332.521594,11.649226 330.171031,11.649226 L330.171031,11.649226 Z M328.540109,24.0133183 C327.105641,23.9693851 326.132828,23.3143648 326.132828,23.3143648 L326.132828,16.3649572 C326.132828,16.3649572 327.09275,15.7728963 328.270266,15.6670414 C329.759562,15.5328202 331.194375,15.9854709 331.194375,19.5604947 C331.194375,23.3302776 330.54675,24.0742022 328.540109,24.0133183 L328.540109,24.0133183 Z M319.012219,12.1205569 L314.876906,12.1205569 C314.687328,12.1205569 314.532812,12.2777826 314.532812,12.471331 L314.532812,23.2315143 C314.532812,23.2315143 313.482312,24.004843 311.991125,24.004843 C310.500109,24.004843 310.104281,23.3242238 310.104281,21.8550549 L310.104281,12.471331 C310.104281,12.2777826 309.950281,12.1205569 309.760359,12.1205569 L305.563688,12.1205569 C305.374109,12.1205569 305.219078,12.2777826 305.219078,12.471331 L305.219078,22.5654242 C305.219078,26.9293436 307.635812,27.9970596 310.960906,27.9970596 C313.688391,27.9970596 315.887703,26.4806711 315.887703,26.4806711 C315.887703,26.4806711 315.992375,27.2797717 316.039812,27.3747297 C316.08725,27.4691689 316.210656,27.5644729 316.344031,27.5644729 L319.013937,27.5527112 C319.203516,27.5527112 319.358547,27.3951397 319.358547,27.2024561 L319.357344,12.471331 C319.357344,12.2777826 319.202828,12.1205569 319.012219,12.1205569 L319.012219,12.1205569 Z M272.48325,22.5996714 L272.48325,12.4701202 C272.48325,12.2777826 272.328906,12.1205569 272.138469,12.1205569 L267.98425,12.1205569 C267.793813,12.1205569 267.623141,12.3184295 267.623141,12.5107671 L267.623141,27.0232639 C267.623141,27.4499697 267.887313,27.5767534 268.229172,27.5767534 L271.97175,27.5767534 C272.382531,27.5767534 272.48325,27.3740379 272.48325,27.0165182 L272.48325,22.5996714 Z M272.813937,8.20686673 C272.813937,6.69670501 271.610812,5.47643345 270.1265,5.47643345 C268.643734,5.47643345 267.43975,6.69670501 267.43975,8.20686673 C267.43975,9.7152988 268.643734,10.9388567 270.1265,10.9388567 C271.610812,10.9388567 272.813937,9.7152988 272.813937,8.20686673 L272.813937,8.20686673 Z M303.08525,5.27285307 C303.08525,5.07913171 302.932625,4.92277091 302.741672,4.92277091 L298.574391,4.92277091 C298.384125,4.92277091 298.229438,5.07913171 298.229438,5.27285307 C298.229438,5.27389086 298.230469,13.3773242 298.230469,13.3773242 L291.734797,13.3773242 L291.734797,5.27285307 C291.734797,5.07913171 291.581484,4.92277091 291.391047,4.92277091 L287.223766,4.92277091 C287.034188,4.92277091 286.8795,5.07913171 286.8795,5.27285307 L286.8795,27.2173311 C286.8795,27.4110525 287.034188,27.5686241 287.223766,27.5686241 L291.391047,27.5686241 C291.581484,27.5686241 291.734797,27.4110525 291.734797,27.2173311 L291.734797,17.8308397 L298.230469,17.8308397 C298.230469,17.8308397 298.218953,27.2166393 298.218953,27.2173311 C298.218953,27.4110525 298.373641,27.5686241 298.56425,27.5686241 L302.741328,27.5686241 C302.932281,27.5686241 303.084906,27.4110525 303.08525,27.2173311 L303.08525,5.27285307 Z M264.963547,14.2591023 L257.562266,14.2591023 C257.371484,14.2591023 257.216625,14.4151172 257.216625,14.6072818 L257.216625,18.2487244 C257.216625,18.440889 257.371484,18.5974228 257.562266,18.5974228 L260.449594,18.5974228 L260.449594,23.1215083 C260.449594,23.1215083 259.801281,23.3437689 258.008969,23.3437689 C255.894391,23.3437689 252.940547,22.566462 252.940547,16.0295771 C252.940547,9.49148145 256.016422,8.63132405 258.904094,8.63132405 C261.403844,8.63132405 262.480641,9.07411571 263.165906,9.28755513 C263.381094,9.35397388 263.580297,9.13828591 263.580297,8.94594828 L264.405984,5.42748422 C264.405984,5.33771513 264.375734,5.22926576 264.273641,5.15575543 C263.995547,4.95598028 262.297766,4 258.008969,4 C253.06825,4 248,6.11536798 248,16.2845282 C248,26.4540344 253.802672,27.9693851 258.692172,27.9693851 C262.740859,27.9693851 265.196953,26.2284874 265.196953,26.2284874 C265.298187,26.1721007 265.309187,26.0297501 265.309187,25.9643691 L265.309187,14.6072818 C265.309187,14.4151172 265.154328,14.2591023 264.963547,14.2591023 L264.963547,14.2591023 Z" id="Github"></path>
                    <path d="M3.02957197,12.9055484 L0,12.9055484 L0,9.1617016 L3.11527121,9.1617016 L3.11527121,8.21066836 C3.11527121,3.60480348 5.20126191,2 9.31660472,2 C10.4311397,2 11.2882803,2.17832804 11.9457032,2.29711416 L11.6310773,5.98201446 C11.2027294,5.83330852 10.7739366,5.74414451 10.0023469,5.74414451 C8.68779765,5.74414451 8.17345394,6.6950289 8.17345394,8.21066836 L8.17345394,9.1617016 L11.8310916,9.1617016 L11.8310916,12.9055484 L8.17345394,12.9055484 L8.17345394,24.6430462 L3.02957197,24.6430462 L3.02957197,12.9055484 Z M15.3061697,2.69659079 L20.6633083,2.69659079 L20.6633083,25 L15.3061697,25 L15.3061697,2.69659079 Z M24.4898359,2.69659079 L29.8469745,2.69659079 L29.8469745,6.54200617 L24.4898359,6.54200617 L24.4898359,2.69659079 Z M24.4898359,8.8492554 L29.8469745,8.8492554 L29.8469745,24.2309169 L24.4898359,24.2309169 L24.4898359,8.8492554 Z M44.6613813,13.620152 C43.7073744,13.0277052 42.7532175,12.7610967 41.5101586,12.7610967 C39.2550423,12.7610967 37.5204298,14.361193 37.5204298,17.0281686 C37.5204298,19.4880624 39.5443944,21.0877134 41.7998107,21.0877134 C42.9845192,21.0877134 44.1699777,20.8214018 45.037434,20.3471177 L45.1530848,24.317892 C43.8519754,24.7627838 42.2909142,25 40.9031042,25 C35.9302683,25 32.142891,22.0362814 32.142891,16.9392496 C32.142891,11.8128255 35.9302683,8.8492554 40.9031042,8.8492554 C42.4643154,8.8492554 43.8519754,9.11616079 45.037434,9.70860761 L44.6613813,13.620152 Z M48.2143069,2.69659079 L53.2784369,2.69659079 L53.2784369,16.0194962 L53.3350781,16.0194962 L57.5554297,9.5069365 L63.0982361,9.5069365 L58.0053475,16.6141744 L63.5204172,25 L57.3862361,25 L53.3350781,17.3280265 L53.2784369,17.3280265 L53.2784369,25 L48.2143069,25 L48.2143069,2.69659079 Z M74.7467115,13.5762323 C74.1845454,13.3945364 73.6217956,13.3945364 73.0313241,13.3945364 C70.6692925,13.3945364 69.3475527,15.2429162 69.3475527,18.3338712 L69.3475527,25 L64.2857228,25 L64.2857228,9.21310253 L68.8975863,9.21310253 L68.8975863,12.1222099 L68.954051,12.1222099 C69.8255326,10.1220373 71.0910995,8.8492554 73.2846126,8.8492554 C73.8745004,8.8492554 74.4932772,8.94017924 75,9.03125486 L74.7467115,13.5762323 Z" id="Flickr"></path>
                </g>
            </g>
        </g>
    </g>
</svg>