<?xml version="1.0" encoding="UTF-8"?>
<svg width="122px" height="20px" viewBox="0 0 122 20" version="1.1" xmlns="http://www.w3.org/2000/svg" xmlns:xlink="http://www.w3.org/1999/xlink">
    <!-- Generator: Sketch 45.1 (43504) - http://www.bohemiancoding.com/sketch -->
    <title>The Verge Logo</title>
    <desc>Created with Sketch.</desc>
    <defs></defs>
    <g id="Components" stroke="none" stroke-width="1" fill="none" fill-rule="evenodd">
        <g id="Contents" transform="translate(-1021.000000, -13597.000000)" fill="#D4E7F8">
            <g id="Contents-#22" transform="translate(0.000000, 13121.000000)">
                <path d="M1121.25284,495.892808 C1117.70263,495.286562 1114.75475,492.989413 1113.42168,489.780958 C1112.73473,488.129761 1112.50177,485.298031 1112.91194,483.598411 C1113.49833,481.175365 1115.07631,478.965375 1117.13217,477.679282 C1118.95606,476.542329 1120.39764,476.222742 1124.21267,476.10556 L1127.63047,476 L1127.63047,479.480588 L1127.63047,482.960207 L1126.31731,482.441121 C1125.45415,482.098292 1124.46157,481.891045 1123.42617,481.835843 C1121.95173,481.758368 1121.78348,481.793232 1120.85859,482.370424 C1119.53847,483.199413 1118.92818,484.34024 1118.91524,486.011774 C1118.90827,487.094494 1118.99588,487.398586 1119.54643,488.157846 C1120.39764,489.336442 1121.55848,489.958183 1122.9035,489.958183 C1124.2973,489.958183 1124.52628,489.789674 1124.44265,488.817356 L1124.37296,488.020327 L1122.74321,488.031948 L1121.11246,488.044538 L1121.11246,485.782253 L1121.11246,483.519968 L1125.52981,483.579043 L1129.94816,483.637149 L1129.94816,487.794679 C1129.94816,490.317476 1130.04075,492.204005 1130.18112,492.603004 C1130.47382,493.427149 1130.20004,493.760294 1128.49064,494.64642 C1126.43379,495.709772 1123.32861,496.243385 1121.25284,495.892808 Z M1024.51038,495.126769 C1024.60596,494.932111 1024.71846,491.790479 1024.7553,488.150098 L1024.82001,481.531752 L1022.9115,481.60148 L1021,481.67605 L1021.05575,478.915016 L1021.11648,476.152046 L1026.00374,476.097813 L1030.891,476.042612 L1030.891,485.761915 L1030.891,495.482188 L1027.61059,495.482188 C1024.55817,495.486061 1024.34512,495.458945 1024.51038,495.126769 Z M1032.15657,485.766758 L1032.15657,476.051328 L1036.4664,476.051328 L1040.77523,476.051328 L1040.77523,478.879184 L1040.77523,481.708009 L1039.61937,481.613101 L1038.46152,481.519162 L1038.46152,482.567019 L1038.46152,483.613907 L1040.24858,483.613907 L1042.03563,483.613907 L1042.03563,479.827291 L1042.03563,476.042612 L1045.1886,476.042612 L1048.34954,476.042612 L1048.34954,485.758042 L1048.34954,495.47444 L1044.98749,495.47444 L1041.63043,495.47444 L1041.83552,494.950512 C1041.94702,494.661915 1042.0406,493.051393 1042.0406,491.372111 L1042.0406,488.316671 L1040.24161,488.316671 L1038.44161,488.316671 L1038.50633,491.540621 C1038.54217,493.313841 1038.65068,494.923395 1038.74725,495.119021 C1038.91152,495.451197 1038.69051,495.477345 1035.53853,495.477345 L1032.15259,495.477345 L1032.15259,485.766758 L1032.15657,485.766758 Z M1049.21688,495.14575 C1049.65394,494.631506 1049.75549,478.105978 1049.32938,476.894455 L1049.02872,476.05094 L1055.10071,476.05094 L1061.1727,476.05094 L1061.1727,478.883639 L1061.1727,481.714401 L1060.06861,481.433552 C1059.44638,481.274727 1058.23278,481.174977 1057.282,481.206936 L1055.59849,481.261169 L1055.53378,482.464945 L1055.47006,483.66872 L1057.26906,483.579624 L1059.06806,483.484716 L1059.06806,485.879678 L1059.06806,488.273672 L1058.1362,488.083857 C1057.62647,487.978296 1056.84395,487.918253 1056.40192,487.954085 L1055.59849,488.018002 L1055.53378,489.113313 L1055.47006,490.211528 L1057.84749,490.11081 C1059.15667,490.055609 1060.43797,489.942301 1060.69881,489.860951 L1061.1727,489.712779 L1061.1727,492.598742 L1061.1727,495.486642 L1055.0569,495.486642 C1049.38215,495.486642 1048.95206,495.458558 1049.21688,495.14575 Z M1073.09646,494.818513 C1070.18441,488.044247 1065.18067,477.06984 1064.79936,476.62823 L1064.2976,476.046195 L1071.36118,476.046195 C1075.2449,476.046195 1078.42575,476.116891 1078.42575,476.19824 C1078.42575,476.284432 1078.01159,477.409764 1077.50982,478.702637 L1076.59489,481.054987 L1074.98804,481.114062 C1074.10397,481.145052 1073.38119,481.207033 1073.38119,481.249644 C1073.38119,481.444302 1075.35342,486.595455 1075.48185,486.738785 C1075.56249,486.82885 1076.55408,484.458099 1077.69102,481.473355 L1079.75484,476.046195 L1087.92748,476.046195 L1096.10013,476.046195 L1096.10013,479.035781 C1096.10013,481.808436 1096.07225,482.01181 1095.73077,481.859764 C1095.53066,481.769699 1094.25235,481.660265 1092.8914,481.616685 L1090.42139,481.539209 L1090.42139,482.606434 L1090.42139,483.671723 L1092.20844,483.582626 L1093.99649,483.493529 L1093.99649,485.887522 L1093.99649,488.282484 L1093.06463,488.090733 C1092.5539,487.985172 1091.77138,487.927066 1091.32935,487.96193 L1090.52592,488.02391 L1090.46121,489.199601 L1090.39749,490.37626 L1092.27315,490.37626 C1093.40512,490.37626 1094.50622,490.254236 1095.04383,490.068295 C1095.53365,489.899786 1095.97269,489.758393 1096.0155,489.758393 C1096.05931,489.758393 1096.09615,491.047392 1096.09615,492.622082 L1096.09615,495.485771 L1089.97239,495.485771 C1084.9557,495.485771 1083.88745,495.440254 1084.07661,495.220417 C1084.32551,494.926979 1084.53458,480.757675 1084.28568,480.757675 C1084.20902,480.757675 1082.69476,484.070722 1080.92364,488.121723 L1077.70296,495.485771 L1075.53859,495.485771 L1073.38119,495.485771 L1073.09646,494.818513 Z M1096.89967,476.046388 L1100.75452,476.055104 C1106.40937,476.05801 1108.28104,476.464756 1109.92374,478.06172 C1111.94375,480.023788 1112.21654,483.809435 1110.50216,486.070752 L1109.98845,486.742852 L1110.88745,487.414952 C1112.24541,488.422134 1113.09662,490.153712 1113.5745,492.86826 C1113.79153,494.103026 1114.01653,495.1964 1114.08025,495.299055 C1114.14794,495.403647 1112.70735,495.482091 1110.60271,495.482091 L1107.00771,495.482091 L1107.25262,495.048228 C1107.62596,494.361601 1107.3691,492.735584 1106.7389,491.804909 C1106.1764,490.985605 1105.02055,490.118848 1104.13648,489.864147 C1103.66259,489.732439 1103.66259,489.735344 1103.66259,492.211655 C1103.66259,493.576193 1103.75916,494.869066 1103.87962,495.087934 C1104.09267,495.471438 1103.98814,495.482091 1100.4897,495.482091 C1097.12467,495.482091 1096.89569,495.454974 1097.06494,495.12183 C1097.2969,494.666661 1097.30089,477.120393 1097.0719,476.508336 L1096.89967,476.046388 Z M1104.12055,481.168489 C1103.67453,481.140404 1103.66259,481.597509 1103.66259,483.000785 L1103.66259,484.840828 L1104.30573,484.840828 C1104.7388,484.840828 1105.15296,484.649076 1105.56612,484.247172 C1106.5378,483.301002 1106.28492,481.968423 1105.03249,481.461927 C1104.61435,481.29245 1104.32066,481.18011 1104.12055,481.168489 Z M1130.92372,495.126769 C1131.15171,494.668695 1131.16067,477.124363 1130.93168,476.507465 L1130.75845,476.042612 L1136.81949,476.097813 L1142.87954,476.152046 L1142.93927,478.980871 L1143,481.808727 L1142.52213,481.660555 C1141.35731,481.297389 1140.46229,481.175365 1138.94006,481.168586 L1137.30931,481.163743 L1137.30931,482.418847 L1137.30931,483.672013 L1139.09636,483.582916 L1140.88342,483.492851 L1140.88342,485.934298 C1140.88342,488.172372 1140.85156,488.365093 1140.51406,488.235321 C1140.31295,488.157846 1139.51749,488.044538 1138.74692,487.98062 L1137.35013,487.868281 L1137.27347,488.946159 C1137.22071,489.699609 1137.28044,490.055996 1137.47358,490.125724 C1137.83099,490.259369 1141.89591,490.044375 1142.51018,489.861339 L1142.98407,489.719946 L1142.98407,492.606877 L1142.98407,495.494777 L1136.8633,495.494777 C1131.10491,495.486061 1130.75547,495.462819 1130.92372,495.126769 Z" id="The-Verge-Logo"></path>
            </g>
        </g>
    </g>
</svg>