<?xml version="1.0" encoding="UTF-8"?>
<svg width="100px" height="37px" viewBox="0 0 100 37" version="1.1" xmlns="http://www.w3.org/2000/svg" xmlns:xlink="http://www.w3.org/1999/xlink">
    <!-- Generator: Sketch 45.1 (43504) - http://www.bohemiancoding.com/sketch -->
    <title>Tinder</title>
    <desc>Created with Sketch.</desc>
    <defs></defs>
    <g id="Components" stroke="none" stroke-width="1" fill="#D4E7F8" fill-rule="evenodd">
        <g id="Testimonials" transform="translate(-670.000000, -2404.000000)">
            <g id="Testimonials-#5" transform="translate(0.000000, 2304.000000)">
                <g id="Logos" transform="translate(150.000000, 100.000000)">
                    <g id="Tinder" transform="translate(520.000000, 0.000000)">
                        <path d="M14.6606,0.0674 C14.8996,0.1794 15.0516,0.4104 15.2426,0.5934 C15.5536,0.8644 15.7846,1.2234 16.0876,1.5024 C16.4626,1.8614 16.7016,2.3164 17.0126,2.7224 C17.5546,3.5444 18.0336,4.4214 18.2806,5.3784 C18.5356,6.0314 18.5756,6.7414 18.5596,7.4424 C18.5756,8.0804 18.4006,8.7104 18.1136,9.2844 C17.6186,10.1534 16.7256,10.7354 15.7926,11.0464 C14.6286,11.3264 13.3446,11.3744 12.2206,10.8794 C11.8136,10.6564 11.3516,10.5054 11.0246,10.1534 C10.2666,9.5314 9.8286,8.5194 9.9726,7.5384 C10.1956,5.7924 11.2396,4.2934 12.3566,3.0014 C12.4596,3.1924 12.3716,3.4164 12.4436,3.6154 C12.5396,4.0384 12.6906,4.4844 13.0096,4.7874 C13.4006,4.4294 13.8156,4.0704 14.1506,3.6554 C14.4526,3.2094 14.7006,2.7144 14.8036,2.1884 C14.8276,1.5184 14.8916,0.8174 14.6366,0.1794 L14.6606,0.0674 Z" id="Fill-1" fill="#D4E7F8"></path>
                        <path d="M14.6606,0.0674 C14.8996,0.1794 15.0516,0.4104 15.2426,0.5934 C15.5536,0.8644 15.7846,1.2234 16.0876,1.5024 C16.4626,1.8614 16.7016,2.3164 17.0126,2.7224 C17.5546,3.5444 18.0336,4.4214 18.2806,5.3784 C18.5356,6.0314 18.5756,6.7414 18.5596,7.4424 C18.5756,8.0804 18.4006,8.7104 18.1136,9.2844 C17.6186,10.1534 16.7256,10.7354 15.7926,11.0464 C14.6286,11.3264 13.3446,11.3744 12.2206,10.8794 C11.8136,10.6564 11.3516,10.5054 11.0246,10.1534 C10.2666,9.5314 9.8286,8.5194 9.9726,7.5384 C10.1956,5.7924 11.2396,4.2934 12.3566,3.0014 C12.4596,3.1924 12.3716,3.4164 12.4436,3.6154 C12.5396,4.0384 12.6906,4.4844 13.0096,4.7874 C13.4006,4.4294 13.8156,4.0704 14.1506,3.6554 C14.4526,3.2094 14.7006,2.7144 14.8036,2.1884 C14.8276,1.5184 14.8916,0.8174 14.6366,0.1794 L14.6606,0.0674 L14.6606,0.0674 Z" id="Stroke-3"></path>
                        <path d="M0.0532,8.0327 C1.9192,8.0487 3.7922,8.0167 5.6582,8.0487 C5.6582,9.9067 5.6742,11.7647 5.6502,13.6227 C6.9742,13.6457 8.2982,13.6307 9.6292,13.6307 C9.6452,13.7737 9.6532,13.9177 9.6532,14.0607 C9.6372,15.5917 9.6612,17.1147 9.6372,18.6457 C8.3052,18.6617 6.9822,18.6457 5.6502,18.6537 C5.6742,21.4047 5.6422,24.1477 5.6662,26.8987 C5.7142,27.1377 5.7462,27.3767 5.7382,27.6237 C5.7142,27.8467 5.8492,28.0307 5.8972,28.2377 C6.0012,28.7167 6.2642,29.1467 6.5672,29.5217 C7.0142,29.9687 7.5882,30.2797 8.2012,30.4147 C8.7602,30.5027 9.3182,30.5507 9.8842,30.5107 C9.9162,30.6057 9.9322,30.7017 9.9322,30.8047 C9.9242,32.2407 9.9242,33.6757 9.9322,35.1027 C9.9322,35.3027 9.8922,35.5017 9.8602,35.6927 C9.0552,35.6927 8.2502,35.7487 7.4442,35.6927 C6.9662,35.5897 6.4562,35.6367 5.9932,35.4297 C4.7092,35.1267 3.4812,34.4887 2.5642,33.5247 C1.2172,32.2247 0.4912,30.3907 0.1972,28.5727 C0.1162,28.3737 0.1642,28.1417 0.1332,27.9267 C0.0212,27.4887 0.0692,27.0257 0.0532,26.5787 C0.0452,20.3997 0.0452,14.2127 0.0532,8.0327" id="Fill-5" fill="#D4E7F8"></path>
                        <path d="M0.0532,8.0327 C1.9192,8.0487 3.7922,8.0167 5.6582,8.0487 C5.6582,9.9067 5.6742,11.7647 5.6502,13.6227 C6.9742,13.6457 8.2982,13.6307 9.6292,13.6307 C9.6452,13.7737 9.6532,13.9177 9.6532,14.0607 C9.6372,15.5917 9.6612,17.1147 9.6372,18.6457 C8.3052,18.6617 6.9822,18.6457 5.6502,18.6537 C5.6742,21.4047 5.6422,24.1477 5.6662,26.8987 C5.7142,27.1377 5.7462,27.3767 5.7382,27.6237 C5.7142,27.8467 5.8492,28.0307 5.8972,28.2377 C6.0012,28.7167 6.2642,29.1467 6.5672,29.5217 C7.0142,29.9687 7.5882,30.2797 8.2012,30.4147 C8.7602,30.5027 9.3182,30.5507 9.8842,30.5107 C9.9162,30.6057 9.9322,30.7017 9.9322,30.8047 C9.9242,32.2407 9.9242,33.6757 9.9322,35.1027 C9.9322,35.3027 9.8922,35.5017 9.8602,35.6927 C9.0552,35.6927 8.2502,35.7487 7.4442,35.6927 C6.9662,35.5897 6.4562,35.6367 5.9932,35.4297 C4.7092,35.1267 3.4812,34.4887 2.5642,33.5247 C1.2172,32.2247 0.4912,30.3907 0.1972,28.5727 C0.1162,28.3737 0.1642,28.1417 0.1332,27.9267 C0.0212,27.4887 0.0692,27.0257 0.0532,26.5787 C0.0452,20.3997 0.0452,14.2127 0.0532,8.0327 L0.0532,8.0327 Z" id="Stroke-7"></path>
                        <path d="M27.2905,13.1997 C27.6255,13.1127 27.9835,13.1757 28.3185,13.1037 C29.0205,13.0167 29.7145,13.1277 30.4085,13.1517 C30.8945,13.1437 31.3645,13.2877 31.8435,13.3837 C33.6215,13.8137 35.3035,14.7627 36.5235,16.1497 C36.7385,16.5087 37.0655,16.7717 37.2725,17.1387 C37.7915,17.9597 38.1345,18.8767 38.4295,19.8017 C38.6125,20.4797 38.7085,21.1807 38.7965,21.8747 C38.8355,23.4137 38.8115,24.9607 38.8205,26.4997 C38.8115,29.5697 38.8285,32.6387 38.8115,35.7087 C36.9465,35.6847 35.0885,35.7007 33.2305,35.6927 C33.2145,35.6847 33.1745,35.6537 33.1585,35.6367 C33.1505,31.3397 33.1585,27.0417 33.1585,22.7517 C33.1665,22.2257 33.0715,21.7157 32.9595,21.2137 C32.7605,20.7027 32.5045,20.2167 32.1545,19.8017 C31.9465,19.5547 31.6605,19.3947 31.4285,19.1797 C31.0695,18.9407 30.6465,18.8287 30.2405,18.7177 C30.0255,18.7017 29.8105,18.7177 29.6105,18.6457 C28.7575,18.5897 27.8885,18.6617 27.0905,18.9887 C26.5085,19.2677 25.9665,19.6507 25.5835,20.1847 C24.9545,20.9337 24.7475,21.9547 24.7625,22.9117 C24.7625,27.1697 24.7705,31.4347 24.7625,35.6927 C22.8805,35.7087 20.9995,35.6847 19.1175,35.7087 C19.0855,31.6027 19.1175,27.4887 19.1015,23.3817 C19.1095,22.8557 19.0935,22.3297 19.1335,21.8037 C19.2375,21.5397 19.1655,21.2527 19.2455,20.9977 C19.3885,20.0247 19.7555,19.0997 20.1625,18.2157 C20.5605,17.4417 21.0395,16.6997 21.6615,16.0857 C22.1475,15.5917 22.6495,15.0737 23.2635,14.7307 C24.4525,13.9017 25.8555,13.3987 27.2905,13.1997" id="Fill-9" fill="#D4E7F8"></path>
                        <path d="M27.2905,13.1997 C27.6255,13.1127 27.9835,13.1757 28.3185,13.1037 C29.0205,13.0167 29.7145,13.1277 30.4085,13.1517 C30.8945,13.1437 31.3645,13.2877 31.8435,13.3837 C33.6215,13.8137 35.3035,14.7627 36.5235,16.1497 C36.7385,16.5087 37.0655,16.7717 37.2725,17.1387 C37.7915,17.9597 38.1345,18.8767 38.4295,19.8017 C38.6125,20.4797 38.7085,21.1807 38.7965,21.8747 C38.8355,23.4137 38.8115,24.9607 38.8205,26.4997 C38.8115,29.5697 38.8285,32.6387 38.8115,35.7087 C36.9465,35.6847 35.0885,35.7007 33.2305,35.6927 C33.2145,35.6847 33.1745,35.6537 33.1585,35.6367 C33.1505,31.3397 33.1585,27.0417 33.1585,22.7517 C33.1665,22.2257 33.0715,21.7157 32.9595,21.2137 C32.7605,20.7027 32.5045,20.2167 32.1545,19.8017 C31.9465,19.5547 31.6605,19.3947 31.4285,19.1797 C31.0695,18.9407 30.6465,18.8287 30.2405,18.7177 C30.0255,18.7017 29.8105,18.7177 29.6105,18.6457 C28.7575,18.5897 27.8885,18.6617 27.0905,18.9887 C26.5085,19.2677 25.9665,19.6507 25.5835,20.1847 C24.9545,20.9337 24.7475,21.9547 24.7625,22.9117 C24.7625,27.1697 24.7705,31.4347 24.7625,35.6927 C22.8805,35.7087 20.9995,35.6847 19.1175,35.7087 C19.0855,31.6027 19.1175,27.4887 19.1015,23.3817 C19.1095,22.8557 19.0935,22.3297 19.1335,21.8037 C19.2375,21.5397 19.1655,21.2527 19.2455,20.9977 C19.3885,20.0247 19.7555,19.0997 20.1625,18.2157 C20.5605,17.4417 21.0395,16.6997 21.6615,16.0857 C22.1475,15.5917 22.6495,15.0737 23.2635,14.7307 C24.4525,13.9017 25.8555,13.3987 27.2905,13.1997 L27.2905,13.1997 Z" id="Stroke-11"></path>
                        <path d="M94.1084,13.1519 C94.8014,13.1359 95.4884,13.0009 96.1814,13.1119 C96.5564,13.1599 96.9394,13.1519 97.3134,13.1679 C97.3854,13.8619 97.3304,14.5639 97.3454,15.2569 L97.3454,18.0479 C97.3454,18.2229 97.3694,18.4059 97.2974,18.5739 C97.1144,18.4389 96.8674,18.4859 96.6604,18.4299 C95.8144,18.3589 94.9454,18.3989 94.1484,18.7169 C93.1994,19.0449 92.3704,19.7379 91.9074,20.6389 C91.7724,20.8069 91.7724,21.0459 91.6214,21.2049 C91.3734,22.0979 91.3574,23.0309 91.3734,23.9479 C91.3654,27.8709 91.3974,31.7859 91.3574,35.7089 C89.5004,35.6849 87.6334,35.7089 85.7684,35.6929 C85.7524,35.6769 85.7284,35.6449 85.7124,35.6299 L85.7124,22.8319 C85.6884,22.2979 85.8074,21.7789 85.7994,21.2529 C85.9274,20.9979 85.8954,20.7029 85.9754,20.4399 C86.3744,18.4229 87.4344,16.5169 89.0454,15.2169 C89.3564,14.8659 89.8024,14.6989 90.1704,14.4199 C91.3574,13.6939 92.7374,13.3429 94.1084,13.1519" id="Fill-13" fill="#D4E7F8"></path>
                        <path d="M94.1084,13.1519 C94.8014,13.1359 95.4884,13.0009 96.1814,13.1119 C96.5564,13.1599 96.9394,13.1519 97.3134,13.1679 C97.3854,13.8619 97.3304,14.5639 97.3454,15.2569 L97.3454,18.0479 C97.3454,18.2229 97.3694,18.4059 97.2974,18.5739 C97.1144,18.4389 96.8674,18.4859 96.6604,18.4299 C95.8144,18.3589 94.9454,18.3989 94.1484,18.7169 C93.1994,19.0449 92.3704,19.7379 91.9074,20.6389 C91.7724,20.8069 91.7724,21.0459 91.6214,21.2049 C91.3734,22.0979 91.3574,23.0309 91.3734,23.9479 C91.3654,27.8709 91.3974,31.7859 91.3574,35.7089 C89.5004,35.6849 87.6334,35.7089 85.7684,35.6929 C85.7524,35.6769 85.7284,35.6449 85.7124,35.6299 L85.7124,22.8319 C85.6884,22.2979 85.8074,21.7789 85.7994,21.2529 C85.9274,20.9979 85.8954,20.7029 85.9754,20.4399 C86.3744,18.4229 87.4344,16.5169 89.0454,15.2169 C89.3564,14.8659 89.8024,14.6989 90.1704,14.4199 C91.3574,13.6939 92.7374,13.3429 94.1084,13.1519 L94.1084,13.1519 Z" id="Stroke-15"></path>
                        <path d="M11.4634,13.6226 C13.3444,13.6546 15.2264,13.6146 17.1084,13.6386 C17.1084,20.9346 17.1004,28.2216 17.1084,35.5096 C17.1084,35.5816 17.1084,35.7256 16.9964,35.7016 L11.4794,35.7016 C11.4314,34.4976 11.4714,33.2856 11.4554,32.0806 C11.4634,25.9336 11.4554,19.7776 11.4634,13.6226" id="Fill-17" fill="#D4E7F8"></path>
                        <path d="M11.4634,13.6226 C13.3444,13.6546 15.2264,13.6146 17.1084,13.6386 C17.1084,20.9346 17.1004,28.2216 17.1084,35.5096 C17.1084,35.5816 17.1084,35.7256 16.9964,35.7016 L11.4794,35.7016 C11.4314,34.4976 11.4714,33.2856 11.4554,32.0806 C11.4634,25.9336 11.4554,19.7776 11.4634,13.6226 L11.4634,13.6226 Z" id="Stroke-19"></path>
                        <path d="M68.2104,24.3867 C68.0984,24.1077 68.2024,23.7807 68.1864,23.4857 C68.3144,23.0787 68.3544,22.6487 68.5054,22.2417 C68.8884,21.3407 69.3584,20.4557 70.0444,19.7457 C70.3634,19.4827 70.6344,19.1637 71.0014,18.9647 C71.2724,18.8207 71.5354,18.6617 71.8144,18.5337 C72.3334,18.3827 72.8354,18.1437 73.3774,18.1437 C73.8714,18.0237 74.3814,18.0877 74.8844,18.0947 C76.1994,18.2787 77.5234,18.8447 78.3764,19.8897 C78.4644,20.0967 78.1694,20.1127 78.0494,20.1927 C77.5314,20.4797 76.9494,20.6227 76.4314,20.9177 C76.1994,20.9577 76.0004,21.1017 75.7774,21.1737 C74.1274,21.8907 72.4444,22.5207 70.8104,23.2697 C69.9324,23.6137 69.0634,23.9797 68.2104,24.3867 M70.5064,28.4217 C70.9854,28.2377 71.4474,27.9987 71.9344,27.8307 C72.6354,27.5597 73.3214,27.2337 74.0224,26.9627 C75.4744,26.2927 76.9734,25.7347 78.4404,25.1047 C78.7914,24.9127 79.1894,24.8247 79.5324,24.6177 C79.9234,24.4667 80.3144,24.3307 80.6964,24.1557 C81.0314,23.9557 81.4144,23.8767 81.7574,23.7007 C82.2114,23.5177 82.6504,23.3107 83.1124,23.1427 C83.5834,22.8797 84.1094,22.7517 84.5804,22.4967 C84.7074,22.4087 84.9154,22.4327 84.9944,22.2817 C84.8584,22.0907 84.9304,21.8507 84.8584,21.6437 C84.7554,21.2687 84.6514,20.9027 84.5644,20.5357 C84.2054,19.4277 83.6874,18.3667 82.9854,17.4417 C82.1324,16.2057 80.9604,15.2097 79.6604,14.4757 C78.8074,13.9577 77.8504,13.6617 76.8934,13.4077 C76.3034,13.3357 75.7374,13.1287 75.1394,13.1367 C74.5974,13.0647 74.0394,13.0327 73.5044,13.1287 C72.5564,13.1437 71.6474,13.3757 70.7464,13.6377 C69.1754,14.1887 67.6844,15.0257 66.4804,16.1817 C66.1214,16.5167 65.8264,16.9077 65.4834,17.2507 C64.9494,17.9357 64.4624,18.6617 64.0964,19.4427 C63.5774,20.6157 63.0834,21.8437 63.0274,23.1427 C62.8524,23.7647 62.9084,24.4187 62.8994,25.0557 C62.8844,25.4637 62.9474,25.8617 63.0274,26.2527 C63.0034,26.6667 63.1634,27.0497 63.2194,27.4487 C63.3544,28.2937 63.7294,29.0747 64.0724,29.8567 C65.0134,31.7857 66.4964,33.4607 68.3544,34.5527 C69.5734,35.3027 70.9294,35.8367 72.3484,36.0357 C73.5044,36.2197 74.6924,36.2507 75.8564,36.0997 C76.2554,36.1317 76.6384,35.9557 77.0374,35.9317 C78.7354,35.5337 80.4014,34.8157 81.6854,33.6117 C82.0684,33.3087 82.4274,32.9497 82.7304,32.5677 C83.2404,32.0487 83.6074,31.4197 83.9744,30.7977 C84.3254,30.1357 84.6114,29.4337 84.8194,28.7087 C84.7074,28.6607 84.5804,28.6767 84.4684,28.6767 C82.6024,28.6847 80.7454,28.6687 78.8784,28.6767 C78.7034,28.6767 78.7034,28.9157 78.5914,29.0117 C78.2734,29.4737 77.8664,29.8647 77.4354,30.2317 C76.8144,30.6777 76.0804,30.9167 75.3554,31.1327 C75.1634,31.1567 74.9804,31.1477 74.8044,31.2197 C74.3574,31.2517 73.9034,31.2357 73.4494,31.2277 C72.9464,31.1327 72.4444,31.0207 71.9584,30.8617 C71.2084,30.4787 70.4754,30.0397 69.9094,29.4177 C69.7654,29.2427 69.5344,29.1067 69.4864,28.8757 C69.6134,28.8197 69.7334,28.7327 69.8774,28.7087 C70.1084,28.6687 70.2834,28.4847 70.5064,28.4217" id="Fill-21" fill="#D4E7F8"></path>
                        <path d="M68.2104,24.3867 C68.0984,24.1077 68.2024,23.7807 68.1864,23.4857 C68.3144,23.0787 68.3544,22.6487 68.5054,22.2417 C68.8884,21.3407 69.3584,20.4557 70.0444,19.7457 C70.3634,19.4827 70.6344,19.1637 71.0014,18.9647 C71.2724,18.8207 71.5354,18.6617 71.8144,18.5337 C72.3334,18.3827 72.8354,18.1437 73.3774,18.1437 C73.8714,18.0237 74.3814,18.0877 74.8844,18.0947 C76.1994,18.2787 77.5234,18.8447 78.3764,19.8897 C78.4644,20.0967 78.1694,20.1127 78.0494,20.1927 C77.5314,20.4797 76.9494,20.6227 76.4314,20.9177 C76.1994,20.9577 76.0004,21.1017 75.7774,21.1737 C74.1274,21.8907 72.4444,22.5207 70.8104,23.2697 C69.9324,23.6137 69.0634,23.9797 68.2104,24.3867 L68.2104,24.3867 Z M70.5064,28.4217 C70.9854,28.2377 71.4474,27.9987 71.9344,27.8307 C72.6354,27.5597 73.3214,27.2337 74.0224,26.9627 C75.4744,26.2927 76.9734,25.7347 78.4404,25.1047 C78.7914,24.9127 79.1894,24.8247 79.5324,24.6177 C79.9234,24.4667 80.3144,24.3307 80.6964,24.1557 C81.0314,23.9557 81.4144,23.8767 81.7574,23.7007 C82.2114,23.5177 82.6504,23.3107 83.1124,23.1427 C83.5834,22.8797 84.1094,22.7517 84.5804,22.4967 C84.7074,22.4087 84.9154,22.4327 84.9944,22.2817 C84.8584,22.0907 84.9304,21.8507 84.8584,21.6437 C84.7554,21.2687 84.6514,20.9027 84.5644,20.5357 C84.2054,19.4277 83.6874,18.3667 82.9854,17.4417 C82.1324,16.2057 80.9604,15.2097 79.6604,14.4757 C78.8074,13.9577 77.8504,13.6617 76.8934,13.4077 C76.3034,13.3357 75.7374,13.1287 75.1394,13.1367 C74.5974,13.0647 74.0394,13.0327 73.5044,13.1287 C72.5564,13.1437 71.6474,13.3757 70.7464,13.6377 C69.1754,14.1887 67.6844,15.0257 66.4804,16.1817 C66.1214,16.5167 65.8264,16.9077 65.4834,17.2507 C64.9494,17.9357 64.4624,18.6617 64.0964,19.4427 C63.5774,20.6157 63.0834,21.8437 63.0274,23.1427 C62.8524,23.7647 62.9084,24.4187 62.8994,25.0557 C62.8844,25.4637 62.9474,25.8617 63.0274,26.2527 C63.0034,26.6667 63.1634,27.0497 63.2194,27.4487 C63.3544,28.2937 63.7294,29.0747 64.0724,29.8567 C65.0134,31.7857 66.4964,33.4607 68.3544,34.5527 C69.5734,35.3027 70.9294,35.8367 72.3484,36.0357 C73.5044,36.2197 74.6924,36.2507 75.8564,36.0997 C76.2554,36.1317 76.6384,35.9557 77.0374,35.9317 C78.7354,35.5337 80.4014,34.8157 81.6854,33.6117 C82.0684,33.3087 82.4274,32.9497 82.7304,32.5677 C83.2404,32.0487 83.6074,31.4197 83.9744,30.7977 C84.3254,30.1357 84.6114,29.4337 84.8194,28.7087 C84.7074,28.6607 84.5804,28.6767 84.4684,28.6767 C82.6024,28.6847 80.7454,28.6687 78.8784,28.6767 C78.7034,28.6767 78.7034,28.9157 78.5914,29.0117 C78.2734,29.4737 77.8664,29.8647 77.4354,30.2317 C76.8144,30.6777 76.0804,30.9167 75.3554,31.1327 C75.1634,31.1567 74.9804,31.1477 74.8044,31.2197 C74.3574,31.2517 73.9034,31.2357 73.4494,31.2277 C72.9464,31.1327 72.4444,31.0207 71.9584,30.8617 C71.2084,30.4787 70.4754,30.0397 69.9094,29.4177 C69.7654,29.2427 69.5344,29.1067 69.4864,28.8757 C69.6134,28.8197 69.7334,28.7327 69.8774,28.7087 C70.1084,28.6687 70.2834,28.4847 70.5064,28.4217 L70.5064,28.4217 Z" id="Stroke-23"></path>
                        <path d="M56.6011,25.4712 C56.5531,26.3162 56.2341,27.1212 55.8591,27.8792 C55.2291,29.0672 54.1691,29.9762 52.9651,30.5502 C52.7821,30.6462 52.5421,30.6382 52.4151,30.8132 C52.1921,30.8132 51.9691,30.8212 51.7531,30.9012 C51.0671,30.9172 50.3581,30.9812 49.6881,30.7892 C49.4011,30.6542 49.0821,30.5982 48.7951,30.4472 C48.4361,30.2472 48.0301,30.1122 47.7341,29.8082 C47.1761,29.4182 46.7461,28.8842 46.3551,28.3332 C46.0441,27.7992 45.7331,27.2492 45.5901,26.6432 C45.4301,26.3242 45.4461,25.9652 45.3581,25.6302 C45.3341,24.7772 45.2871,23.9002 45.4861,23.0712 C45.5741,22.8082 45.6301,22.5292 45.7251,22.2652 C45.9561,21.8432 46.1001,21.3722 46.4031,20.9902 C46.5621,20.6552 46.8421,20.4082 47.0651,20.1202 C47.6631,19.4352 48.4841,18.9962 49.3131,18.6542 C49.6241,18.5822 49.9271,18.4222 50.2541,18.4222 C50.9161,18.2552 51.6011,18.3902 52.2561,18.5102 C53.1171,18.8212 53.9701,19.2522 54.6401,19.8892 C54.8871,20.1202 55.0701,20.4082 55.3171,20.6392 C56.3381,22.0102 56.8091,23.7732 56.6011,25.4712 L56.6011,25.4712 Z M62.2701,3.8782 C60.5241,3.8632 58.7781,3.8782 57.0321,3.8702 C56.9041,3.8872 56.7531,3.8312 56.6491,3.9272 C56.6651,7.6742 56.6491,11.4292 56.6571,15.1772 C56.6491,15.3132 56.6811,15.4482 56.6251,15.5752 C56.4661,15.5522 56.3861,15.4002 56.2661,15.3132 C55.4611,14.6192 54.5601,14.0292 53.5551,13.6862 C52.8771,13.4232 52.1681,13.2872 51.4501,13.1592 C50.6371,13.1442 49.8161,13.1202 48.9941,13.1682 C48.9071,13.1922 48.8271,13.2162 48.7391,13.2232 C46.9131,13.4792 45.2071,14.3322 43.8041,15.5042 C43.0221,16.2382 42.2411,17.0032 41.6911,17.9282 C41.0451,18.8452 40.6301,19.8972 40.2311,20.9342 C40.0481,21.5882 39.8651,22.2342 39.7851,22.9042 C39.6341,23.9322 39.6971,24.9842 39.7131,26.0212 C39.7531,26.2922 39.8411,26.5472 39.8491,26.8182 C39.9921,27.6962 40.2471,28.5562 40.5981,29.3782 C40.8931,30.1672 41.3721,30.8852 41.8101,31.6022 C42.1211,32.0012 42.4241,32.4162 42.7991,32.7672 C43.3571,33.3172 43.9071,33.9152 44.6091,34.2982 C45.4381,34.9282 46.4191,35.3022 47.3751,35.6692 C47.7261,35.7332 48.0531,35.9322 48.4121,35.9402 C48.7151,35.9642 48.9941,36.1082 49.2971,36.0922 C49.4561,36.0752 49.6011,36.1872 49.7681,36.1712 C50.5411,36.1952 51.3221,36.1952 52.0961,36.1712 C52.2241,36.1712 52.3511,36.1162 52.4871,36.1082 C53.0201,36.1162 53.5151,35.9082 54.0331,35.8362 C54.7111,35.5892 55.4371,35.4292 56.0661,35.0632 C56.9991,34.6322 57.8451,34.0262 58.6021,33.3412 C59.5591,32.5122 60.3321,31.4752 60.9071,30.3432 C61.1541,29.8402 61.4331,29.3542 61.5921,28.8122 C61.8951,28.0622 62.0311,27.2652 62.1351,26.4752 C62.3101,25.7822 62.2541,25.0562 62.2701,24.3392 L62.2701,3.8782 Z" id="Fill-25" fill="#D4E7F8"></path>
                        <path d="M56.6011,25.4712 C56.5531,26.3162 56.2341,27.1212 55.8591,27.8792 C55.2291,29.0672 54.1691,29.9762 52.9651,30.5502 C52.7821,30.6462 52.5421,30.6382 52.4151,30.8132 C52.1921,30.8132 51.9691,30.8212 51.7531,30.9012 C51.0671,30.9172 50.3581,30.9812 49.6881,30.7892 C49.4011,30.6542 49.0821,30.5982 48.7951,30.4472 C48.4361,30.2472 48.0301,30.1122 47.7341,29.8082 C47.1761,29.4182 46.7461,28.8842 46.3551,28.3332 C46.0441,27.7992 45.7331,27.2492 45.5901,26.6432 C45.4301,26.3242 45.4461,25.9652 45.3581,25.6302 C45.3341,24.7772 45.2871,23.9002 45.4861,23.0712 C45.5741,22.8082 45.6301,22.5292 45.7251,22.2652 C45.9561,21.8432 46.1001,21.3722 46.4031,20.9902 C46.5621,20.6552 46.8421,20.4082 47.0651,20.1202 C47.6631,19.4352 48.4841,18.9962 49.3131,18.6542 C49.6241,18.5822 49.9271,18.4222 50.2541,18.4222 C50.9161,18.2552 51.6011,18.3902 52.2561,18.5102 C53.1171,18.8212 53.9701,19.2522 54.6401,19.8892 C54.8871,20.1202 55.0701,20.4082 55.3171,20.6392 C56.3381,22.0102 56.8091,23.7732 56.6011,25.4712 L56.6011,25.4712 Z M62.2701,3.8782 C60.5241,3.8632 58.7781,3.8782 57.0321,3.8702 C56.9041,3.8872 56.7531,3.8312 56.6491,3.9272 C56.6651,7.6742 56.6491,11.4292 56.6571,15.1772 C56.6491,15.3132 56.6811,15.4482 56.6251,15.5752 C56.4661,15.5522 56.3861,15.4002 56.2661,15.3132 C55.4611,14.6192 54.5601,14.0292 53.5551,13.6862 C52.8771,13.4232 52.1681,13.2872 51.4501,13.1592 C50.6371,13.1442 49.8161,13.1202 48.9941,13.1682 C48.9071,13.1922 48.8271,13.2162 48.7391,13.2232 C46.9131,13.4792 45.2071,14.3322 43.8041,15.5042 C43.0221,16.2382 42.2411,17.0032 41.6911,17.9282 C41.0451,18.8452 40.6301,19.8972 40.2311,20.9342 C40.0481,21.5882 39.8651,22.2342 39.7851,22.9042 C39.6341,23.9322 39.6971,24.9842 39.7131,26.0212 C39.7531,26.2922 39.8411,26.5472 39.8491,26.8182 C39.9921,27.6962 40.2471,28.5562 40.5981,29.3782 C40.8931,30.1672 41.3721,30.8852 41.8101,31.6022 C42.1211,32.0012 42.4241,32.4162 42.7991,32.7672 C43.3571,33.3172 43.9071,33.9152 44.6091,34.2982 C45.4381,34.9282 46.4191,35.3022 47.3751,35.6692 C47.7261,35.7332 48.0531,35.9322 48.4121,35.9402 C48.7151,35.9642 48.9941,36.1082 49.2971,36.0922 C49.4561,36.0752 49.6011,36.1872 49.7681,36.1712 C50.5411,36.1952 51.3221,36.1952 52.0961,36.1712 C52.2241,36.1712 52.3511,36.1162 52.4871,36.1082 C53.0201,36.1162 53.5151,35.9082 54.0331,35.8362 C54.7111,35.5892 55.4371,35.4292 56.0661,35.0632 C56.9991,34.6322 57.8451,34.0262 58.6021,33.3412 C59.5591,32.5122 60.3321,31.4752 60.9071,30.3432 C61.1541,29.8402 61.4331,29.3542 61.5921,28.8122 C61.8951,28.0622 62.0311,27.2652 62.1351,26.4752 C62.3101,25.7822 62.2541,25.0562 62.2701,24.3392 L62.2701,3.8782 L62.2701,3.8782 Z" id="Stroke-27"></path>
                        <path d="M94.0605,32.9024 L96.1495,32.9024 C96.1585,33.0624 96.1585,33.2214 96.1495,33.3814 C95.9105,33.4124 95.6715,33.3724 95.4395,33.4044 C95.4085,34.1224 95.4395,34.8324 95.4235,35.5494 C95.2085,35.5334 94.9935,35.5334 94.7865,35.5414 C94.7615,34.9754 94.7705,34.4014 94.7785,33.8354 C94.7785,33.6834 94.8105,33.5084 94.6745,33.4044 C94.4675,33.3724 94.2595,33.4124 94.0525,33.3814 C94.0445,33.2214 94.0445,33.0624 94.0605,32.9024" id="Fill-29" fill="#D4E7F8"></path>
                        <path d="M94.0605,32.9024 L96.1495,32.9024 C96.1585,33.0624 96.1585,33.2214 96.1495,33.3814 C95.9105,33.4124 95.6715,33.3724 95.4395,33.4044 C95.4085,34.1224 95.4395,34.8324 95.4235,35.5494 C95.2085,35.5334 94.9935,35.5334 94.7865,35.5414 C94.7615,34.9754 94.7705,34.4014 94.7785,33.8354 C94.7785,33.6834 94.8105,33.5084 94.6745,33.4044 C94.4675,33.3724 94.2595,33.4124 94.0525,33.3814 C94.0445,33.2214 94.0445,33.0624 94.0605,32.9024 L94.0605,32.9024 Z" id="Stroke-31"></path>
                        <path d="M96.5322,32.9102 C96.8272,32.9022 97.1232,32.8862 97.4182,32.9262 C97.4012,33.1572 97.5932,33.3172 97.6482,33.5322 C97.7282,33.8032 97.8472,34.0582 97.9282,34.3292 C97.9912,34.4492 98.1032,34.5532 98.0632,34.7042 C98.2222,34.0822 98.4692,33.4922 98.7172,32.9102 C98.9962,32.9022 99.2832,32.8942 99.5702,32.9102 C99.5862,33.7642 99.5702,34.6322 99.5702,35.4862 C99.3792,35.5012 99.1872,35.5012 98.9882,35.4862 C98.9962,34.8882 98.9882,34.2892 99.0042,33.7002 C98.9322,33.7642 98.8602,33.8192 98.8042,33.8992 C98.7012,34.4412 98.4222,34.9352 98.2862,35.4772 C98.1272,35.5012 97.9752,35.5012 97.8162,35.4862 C97.7682,35.1832 97.5532,34.9352 97.5532,34.6242 C97.3382,34.3612 97.3302,33.9872 97.1622,33.6922 C97.0512,33.9072 97.1382,34.1622 97.1142,34.3932 C97.0822,34.7682 97.1542,35.1512 97.0822,35.5262 C96.8912,35.5262 96.6762,35.5892 96.5242,35.4532 C96.5492,34.6082 96.5242,33.7642 96.5322,32.9102" id="Fill-33" fill="#D4E7F8"></path>
                        <path d="M96.5322,32.9102 C96.8272,32.9022 97.1232,32.8862 97.4182,32.9262 C97.4012,33.1572 97.5932,33.3172 97.6482,33.5322 C97.7282,33.8032 97.8472,34.0582 97.9282,34.3292 C97.9912,34.4492 98.1032,34.5532 98.0632,34.7042 C98.2222,34.0822 98.4692,33.4922 98.7172,32.9102 C98.9962,32.9022 99.2832,32.8942 99.5702,32.9102 C99.5862,33.7642 99.5702,34.6322 99.5702,35.4862 C99.3792,35.5012 99.1872,35.5012 98.9882,35.4862 C98.9962,34.8882 98.9882,34.2892 99.0042,33.7002 C98.9322,33.7642 98.8602,33.8192 98.8042,33.8992 C98.7012,34.4412 98.4222,34.9352 98.2862,35.4772 C98.1272,35.5012 97.9752,35.5012 97.8162,35.4862 C97.7682,35.1832 97.5532,34.9352 97.5532,34.6242 C97.3382,34.3612 97.3302,33.9872 97.1622,33.6922 C97.0512,33.9072 97.1382,34.1622 97.1142,34.3932 C97.0822,34.7682 97.1542,35.1512 97.0822,35.5262 C96.8912,35.5262 96.6762,35.5892 96.5242,35.4532 C96.5492,34.6082 96.5242,33.7642 96.5322,32.9102 L96.5322,32.9102 Z" id="Stroke-35"></path>
                    </g>
                </g>
            </g>
        </g>
    </g>
</svg>