<?xml version="1.0" encoding="UTF-8"?>
<svg width="89px" height="34px" viewBox="0 0 89 34" version="1.1" xmlns="http://www.w3.org/2000/svg" xmlns:xlink="http://www.w3.org/1999/xlink">
    <!-- Generator: Sketch 45.1 (43504) - http://www.bohemiancoding.com/sketch -->
    <title>Vine</title>
    <desc>Created with Sketch.</desc>
    <defs></defs>
    <g id="Components" stroke="none" stroke-width="1" fill="none" fill-rule="evenodd" opacity="0.2">
        <g id="Testimonials" transform="translate(-961.000000, -3590.000000)" fill="#3FA2F7">
            <g id="Testimonials-#6" transform="translate(0.000000, 2850.000000)">
                <g id="Logos" transform="translate(0.000000, 675.000000)">
                    <path d="M1041.10768,83.4087899 C1039.07481,84.1975766 1037.95519,86.3881092 1037.80992,88.4723483 C1039.78477,88.4267306 1041.92082,88.2447029 1043.57413,87.0493435 C1044.51483,86.3788085 1045.17916,84.9832629 1044.46611,83.9247565 C1043.68928,82.926483 1042.18478,83.0115178 1041.10768,83.4087899 L1041.10768,83.4087899 Z M978.378103,67.0347136 C980.626212,64.844181 984.197232,64.5195428 987.046341,65.5966506 C988.996828,66.34602 990.380415,68.1574391 990.868923,70.1566433 C991.597033,73.1058461 991.226777,76.279151 990.070835,79.0702421 C988.341794,79.4555562 986.066226,79.0977013 985.149887,77.4288927 C985.641495,75.4327887 986.154361,73.2209974 985.28364,71.2519096 C984.885925,70.326713 983.736183,69.8413058 982.807887,70.2660371 C981.797655,70.6996261 981.406141,71.8498108 981.26663,72.8600423 C980.978309,75.3384532 981.53945,78.0538102 983.283993,79.9197046 C984.740214,81.5003781 986.948906,82.2466473 989.073005,82.1496544 C991.954888,82.083221 994.776539,80.8147848 996.709309,78.6698698 C998.201848,78.6574689 999.697487,78.6605691 1001.19047,78.6698698 C1001.19623,82.4047589 1001.18427,86.1365478 1001.19623,89.870994 C1001.23254,91.1270293 1001.28746,92.5199175 1002.09441,93.5540651 C1002.80126,94.4673037 1004.21806,94.3672106 1005.05557,93.6935753 C1006.24163,92.7776794 1006.84263,91.3396164 1007.34309,89.9741873 C1008.54155,86.3274333 1008.94812,82.4804931 1009.16957,78.6667696 C1010.70152,78.6605691 1012.23392,78.6605691 1013.76588,78.6698698 C1013.82035,79.9440635 1013.85401,81.2213575 1013.90229,82.4986515 C1015.01261,80.7935261 1016.60259,79.3311042 1018.57788,78.7181448 C1020.55582,78.0932273 1022.94034,78.2088216 1024.57859,79.5981667 C1026.05651,80.8573022 1026.62651,82.8538491 1026.72085,84.7286013 C1026.81474,87.1556371 1026.68453,89.5857731 1026.78728,92.0101515 C1026.86656,92.823297 1027.09066,93.8361858 1027.95562,94.1457658 C1029.03539,94.4885624 1030.03056,93.6634588 1030.55849,92.7958378 C1032.16972,90.2230914 1032.26981,87.0586442 1033.63524,84.3796042 C1034.78498,81.9406105 1036.75673,79.7620359 1039.36623,78.8851142 C1041.73259,78.1087285 1044.46301,78.1299872 1046.69296,79.3160459 C1048.55265,80.2961609 1049.78477,82.3259245 1049.76927,84.4283221 C1049.89062,86.4913025 1048.84717,88.5361244 1047.14825,89.6920666 C1044.59942,91.4941849 1041.36234,91.8338813 1038.32544,91.8281238 C1038.88393,92.8108961 1039.78477,93.5965825 1040.87693,93.9212207 C1043.61975,94.7587251 1046.681,94.1457658 1049.0323,92.5407334 C1049.0261,94.1612669 1049.04736,95.7813575 1049.0261,97.398348 C1047.06011,98.7575766 1044.51173,99.0184386 1042.17238,98.9821216 C1038.72272,98.9032873 1035.12778,97.2039194 1033.52275,94.0275142 C1032.52137,96.703454 1030.00665,99.0516553 1027.02113,98.9878792 C1025.064,99.0427975 1023.12857,97.9382305 1022.24279,96.1848301 C1020.98985,93.8849037 1021.39908,91.1939057 1021.32955,88.6880356 C1021.28083,87.204355 1021.50848,85.6236815 1020.8685,84.2312362 C1020.29186,83.0903522 1018.7413,83.1417274 1017.74037,83.6302348 C1016.0534,84.4615388 1015.25842,86.3424915 1014.81243,88.0657755 C1013.97227,91.5247443 1014.37574,95.1108225 1014.26944,98.6300243 C1012.46423,98.6300243 1010.65901,98.6331245 1008.85689,98.6269241 C1008.84183,97.07681 1008.86309,95.5231528 1008.84493,93.9730388 C1008.0743,95.4987939 1007.05787,96.952358 1005.61361,97.908114 C1003.69944,99.2367832 1001.03236,99.3550348 998.993735,98.2509107 C997.29481,97.3009122 996.424088,95.4049013 996.053833,93.5722235 C995.459032,90.4383358 995.804929,87.2256137 995.717236,84.0580663 C993.226425,85.7569913 990.15587,86.3185755 987.191609,86.4031674 C985.265482,90.3351425 982.6046,93.899962 979.455211,96.9341995 C978.469339,97.8168788 977.428548,98.8727279 976.024144,98.9515623 C974.765009,98.9878792 973.724218,98.1508176 972.804779,97.3921475 C969.925996,94.8738765 967.886931,91.5486604 966.284999,88.1113931 C963.700295,82.5017518 962.349924,76.4124608 961.485403,70.3236127 L961.485403,70.0928672 C963.411974,70.0990677 965.338544,70.0840094 967.262014,70.0990677 C967.801897,74.3919978 968.606184,78.6760702 970.077464,82.7564134 C971.454851,86.6427708 973.517831,90.2837673 976.163655,93.4482144 C978.548173,91.0543954 980.465443,88.2265445 981.991641,85.2202089 C978.247894,83.2785804 976.063562,79.1433189 975.839017,75.0169153 C975.614471,72.1802065 976.266848,69.0737779 978.378103,67.0347136 Z M998.01052,68.8036152 C999.111986,68.6065292 1000.3348,68.8492328 1001.16921,69.6287188 C1002.65245,70.9817469 1002.63739,73.600111 1001.16611,74.9562394 C999.679328,76.3548851 996.891337,76.13034 995.82043,74.3251215 C994.582553,72.3622342 995.501549,69.1282534 998.01052,68.8036152 Z" id="Vine"></path>
                </g>
            </g>
        </g>
    </g>
</svg>