<?xml version="1.0" encoding="UTF-8"?>
<svg width="17px" height="11px" viewBox="0 0 17 11" version="1.1" xmlns="http://www.w3.org/2000/svg" xmlns:xlink="http://www.w3.org/1999/xlink">
    <!-- Generator: Sketch 45.2 (43514) - http://www.bohemiancoding.com/sketch -->
    <title>Behance</title>
    <desc>Created with Sketch.</desc>
    <defs></defs>
    <g id="Components" stroke="none" stroke-width="1" fill="none" fill-rule="evenodd">
        <g id="Footers" transform="translate(-1353.000000, -45.000000)" fill="#3FA2F7">
            <g id="Footer-#1">
                <g id="Social" transform="translate(1184.000000, 42.000000)">
                    <path d="M175.993869,7.97152341 C176.346556,7.7879979 176.613391,7.58381377 176.795303,7.36137317 C177.120146,6.96309399 177.281175,6.43509783 177.281175,5.78074773 C177.281175,5.14513452 177.120146,4.59984277 176.79948,4.14343117 C176.264881,3.40020091 175.358105,3.01969776 174.076832,3 L169,3 L169,13.7295161 L173.73389,13.7295161 C174.267561,13.7295161 174.761322,13.6824336 175.217959,13.5853861 C175.675059,13.4873777 176.069975,13.3086565 176.404563,13.04634 C176.702491,12.8176537 176.9503,12.5361198 177.14799,12.2022187 C177.461231,11.6977638 177.617156,11.1270091 177.617156,10.4913959 C177.617156,9.87451957 177.480258,9.34988644 177.208318,8.91893781 C176.933593,8.4870283 176.529396,8.17186408 175.993869,7.97152341 L175.993869,7.97152341 Z M171.094309,4.8631202 L173.381204,4.8631202 C173.883782,4.8631202 174.297725,4.91933089 174.623496,5.0307914 C174.999386,5.19173655 175.18733,5.5217942 175.18733,6.02288609 C175.18733,6.47209119 175.0444,6.78629455 174.760394,6.96405486 C174.474532,7.14181516 174.103747,7.23069532 173.648967,7.23069532 L171.094309,7.23069532 L171.094309,4.8631202 L171.094309,4.8631202 Z M174.709347,11.6785465 C174.456434,11.8039396 174.100499,11.8673567 173.64479,11.8673567 L171.094309,11.8673567 L171.094309,9.00589623 L173.680987,9.00589623 C174.130663,9.00973969 174.481493,9.07123515 174.731622,9.1875 C175.178049,9.3969689 175.399871,9.77987421 175.399871,10.3390985 C175.399871,10.9987334 175.17016,11.4436146 174.709347,11.6785465 Z M179.862749,3.50013103 L184.364608,3.50013103 L184.364608,4.83525507 L179.862749,4.83525507 L179.862749,3.50013103 Z M185.309437,7.13028477 C185.630104,7.60207023 185.836147,8.14928372 185.929887,8.77096436 C185.985111,9.13465234 186.006922,9.6612072 185.998105,10.346305 L180.337948,10.346305 C180.371824,11.1414221 180.639588,11.6996855 181.151447,12.0196541 C181.460976,12.2185535 181.834082,12.3184836 182.271692,12.3184836 C182.732505,12.3184836 183.109322,12.196934 183.398433,11.955276 C183.557142,11.8231569 183.697288,11.6415531 183.817016,11.4090234 L185.890906,11.4090234 C185.836147,11.8784067 185.584162,12.3573987 185.138663,12.8431167 C184.442571,13.6142121 183.468506,14 182.216004,14 C181.181147,14 180.268803,13.6752271 179.480362,13.0237596 C178.687745,12.3737334 178.293757,11.3138976 178.293757,9.84809574 C178.293757,8.47309574 178.650621,7.41854472 179.363419,6.6844427 C180.078073,5.9522624 181.002484,5.58377009 182.140826,5.58377009 C182.817428,5.58377009 183.426276,5.70820231 183.967836,5.9565863 C184.510788,6.203529 184.957679,6.59556254 185.309437,7.13028477 Z M180.387602,8.97707023 C180.461852,8.46060447 180.642836,8.05127533 180.929626,7.74908281 C181.216416,7.44689029 181.622006,7.29603424 182.141754,7.29603424 C182.621594,7.29603424 183.022543,7.43776205 183.348314,7.72265898 C183.670373,8.00947764 183.852285,8.42601328 183.888946,8.97707023 L180.387602,8.97707023 L180.387602,8.97707023 Z" id="Behance"></path>
                </g>
            </g>
        </g>
    </g>
</svg>