<?xml version="1.0" encoding="UTF-8"?>
<svg width="23px" height="15px" viewBox="0 0 23 15" version="1.1" xmlns="http://www.w3.org/2000/svg" xmlns:xlink="http://www.w3.org/1999/xlink">
    <!-- Generator: Sketch 46.2 (44496) - http://www.bohemiancoding.com/sketch -->
    <desc>Created with Sketch.</desc>
    <defs></defs>
    <g id="Components" stroke="none" stroke-width="1" fill="none" fill-rule="evenodd">
        <g id="Footers" transform="translate(-1191.000000, -2033.000000)" fill="#3FA2F7">
            <g id="Footer-#11" transform="translate(0.000000, 1990.000000)">
                <g id="Social" transform="translate(1191.000000, 42.000000)">
                    <path d="M7.30530568,7.01483703 L14.3210666,7.01483703 C14.8095309,10.609019 13.3355884,16 7.30530568,16 C3.27105791,16 0,12.6418085 0,8.49970793 C0,4.35760738 3.27105791,1 7.30530568,1 C9.1981761,1 10.9229054,1.73893064 12.2207271,2.95159469 C10.6920675,4.43412905 10.7422249,4.52233342 10.1414765,5.13917987 C9.39082596,4.5018887 8.57234902,4.04451108 7.30530568,4.04451108 C4.90858177,4.04451108 3.03794018,6.03933175 3.03794018,8.49970793 C3.03794018,10.9606683 4.90858177,12.9554889 7.30530568,12.9554889 C9.67353109,12.9554889 10.6356405,11.9069668 11.2546279,9.98107403 C10.111838,9.98107403 7.30530568,9.98516297 7.30530568,9.98516297 L7.30530568,7.01483703 Z M20.4687632,7.16320729 L23,7.16320729 L23,9.01958799 L20.4687632,9.01958799 L20.4687632,11.6931734 L18.6608183,11.6931734 L18.6608183,9.01958799 L16.0566253,9.01958799 L16.0566253,7.16320729 L18.6608183,7.16320729 L18.6608183,4.56439114 L20.4687632,4.56439114 L20.4687632,7.16320729 Z" id="Google+"></path>
                </g>
            </g>
        </g>
    </g>
</svg>
