<?xml version="1.0" encoding="UTF-8"?>
<svg width="17px" height="17px" viewBox="0 0 17 17" version="1.1" xmlns="http://www.w3.org/2000/svg" xmlns:xlink="http://www.w3.org/1999/xlink">
    <!-- Generator: Sketch 45.2 (43514) - http://www.bohemiancoding.com/sketch -->
    <title>Instagram</title>
    <desc>Created with Sketch.</desc>
    <defs></defs>
    <g id="Components" stroke="none" stroke-width="1" fill="none" fill-rule="evenodd">
        <g id="Footers" transform="translate(-1311.000000, -42.000000)" fill="#3FA2F7">
            <g id="Footer-#1">
                <g id="Social" transform="translate(1184.000000, 42.000000)">
                    <path d="M141.979271,0 L129.020729,0 C127.904645,0 127,0.902326596 127,2.01609252 L127,14.9839075 C127,16.0972097 127.904645,17 129.020729,17 L141.979271,17 C143.095355,17 144,16.0972097 144,14.9839075 L144,2.01609252 C144,0.902326596 143.095355,0 141.979271,0 L141.979271,0 Z M139.218967,2.65597469 C139.218967,2.3629272 139.456837,2.12505796 139.749884,2.12505796 L141.343562,2.12505796 C141.637073,2.12505796 141.874942,2.3629272 141.874942,2.65597469 L141.874942,4.25011592 C141.874942,4.54316341 141.637073,4.78103265 141.343562,4.78103265 L139.749884,4.78103265 C139.456837,4.78103265 139.218967,4.54316341 139.218967,4.25011592 L139.218967,2.65597469 L139.218967,2.65597469 Z M135.519707,5.25816218 C137.325287,5.25816218 138.789133,6.71876279 138.789133,8.51970652 C138.789133,10.3211139 137.325287,11.7812509 135.519707,11.7812509 C133.71459,11.7812509 132.250743,10.3211139 132.250743,8.51970652 C132.250743,6.71876279 133.71459,5.25816218 135.519707,5.25816218 L135.519707,5.25816218 Z M142.406322,14.874942 C142.406322,15.1679895 142.168453,15.4063225 141.874942,15.4063225 L129.125058,15.4063225 C128.831547,15.4063225 128.593678,15.1679895 128.593678,14.874942 L128.593678,6.90609061 L130.718736,6.90609061 C130.441917,7.30439408 130.348253,8.0476775 130.348253,8.51970652 C130.348253,11.3644001 132.668521,13.6791043 135.519707,13.6791043 C138.371355,13.6791043 140.691624,11.3644001 140.691624,8.51970652 C140.691624,8.0476775 140.62439,7.31598614 140.281264,6.90609061 L142.406322,6.90609061 L142.406322,14.874942 L142.406322,14.874942 Z" id="Instagram"></path>
                </g>
            </g>
        </g>
    </g>
</svg>