<?xml version="1.0" encoding="UTF-8"?>
<svg width="76px" height="20px" viewBox="0 0 76 20" version="1.1" xmlns="http://www.w3.org/2000/svg" xmlns:xlink="http://www.w3.org/1999/xlink">
    <!-- Generator: Sketch 45.1 (43504) - http://www.bohemiancoding.com/sketch -->
    <title>Facebook</title>
    <desc>Created with Sketch.</desc>
    <defs>
        <path d="M53,12.5734119 L53,18.0092049 C53,19.1017876 53.8958174,20 55.0008642,20 L73.9991358,20 C75.0983727,20 76,19.1086907 76,18.0092049 L76,1.99079514 C76,0.898212381 75.1041826,0 73.9991358,0 L55.0008642,0 C53.9016273,0 53,0.891309342 53,1.99079514 L53,7.02895958 L49,9.55726696 L53,12.5734119 Z" id="path-1"></path>
    </defs>
    <g id="Components" stroke="none" stroke-width="1" fill="none" fill-rule="evenodd">
        <g id="Headers" transform="translate(-1114.000000, -11971.000000)">
            <g id="Header-#15" transform="translate(0.000000, 11914.000000)">
                <g id="Menu" transform="translate(150.000000, 50.000000)">
                    <g id="Facebook" transform="translate(964.000000, 7.000000)">
                        <rect id="Shape" fill="#3FA2F7" x="0" y="0" width="47" height="20" rx="2"></rect>
                        <g id="Combined-Shape">
                            <use fill="#FFFFFF" fill-rule="evenodd" xlink:href="#path-1"></use>
                            <path stroke="#3FA2F7" stroke-width="1" d="M49.878514,9.5934854 L53.5,12.324217 L53.5,18.0092049 C53.5,18.827732 54.1740538,19.5 55.0008642,19.5 L73.9991358,19.5 C74.8250228,19.5 75.5,18.8297638 75.5,18.0092049 L75.5,1.99079514 C75.5,1.172268 74.8259462,0.5 73.9991358,0.5 L55.0008642,0.5 C54.1749772,0.5 53.5,1.17023619 53.5,1.99079514 L53.5,7.30442795 L49.878514,9.5934854 Z"></path>
                        </g>
                        <text id="20" font-family="HelveticaNeue-Medium, Helvetica Neue" font-size="10" font-weight="400" letter-spacing="-0.0909090936" fill="#3FA2F7">
                            <tspan x="59.0309091" y="13">20</tspan>
                        </text>
                        <text id="Like" font-family="HelveticaNeue-Medium, Helvetica Neue" font-size="10" font-weight="400" letter-spacing="-0.0909090936" fill="#FFFFFF">
                            <tspan x="22.1418182" y="13">Like</tspan>
                        </text>
                        <path d="M16.1936216,16.9625405 C16.6181622,16.9625405 16.9624324,16.6182703 16.9624324,16.1936216 L16.9624324,3.80064865 C16.9624324,3.37594595 16.6182162,3.03178378 16.1936216,3.03178378 L3.80064865,3.03178378 C3.37594595,3.03178378 3.03178378,3.37594595 3.03178378,3.80064865 L3.03178378,16.1936216 C3.03178378,16.6182162 3.37589189,16.9625405 3.80064865,16.9625405 L16.1936216,16.9625405 L16.1936216,16.9625405 Z" id="Blue" fill="#FFFFFF"></path>
                        <path d="M12.6437297,16.9625405 L12.6437297,11.5677838 L14.4544865,11.5677838 L14.7256216,9.46535135 L12.6437297,9.46535135 L12.6437297,8.12308108 C12.6437297,7.51437838 12.8127568,7.09956757 13.6856216,7.09956757 L14.7989189,7.09908108 L14.7989189,5.21864865 C14.6063784,5.19302703 13.9455135,5.13578378 13.1766486,5.13578378 C11.5715135,5.13578378 10.4725946,6.11556757 10.4725946,7.91486486 L10.4725946,9.46535135 L8.65718919,9.46535135 L8.65718919,11.5677838 L10.4725946,11.5677838 L10.4725946,16.9625405 L12.6437297,16.9625405 L12.6437297,16.9625405 Z" id="f" fill="#3FA2F7"></path>
                    </g>
                </g>
            </g>
        </g>
    </g>
</svg>