<?xml version="1.0" encoding="UTF-8"?>
<svg width="90px" height="20px" viewBox="0 0 90 20" version="1.1" xmlns="http://www.w3.org/2000/svg" xmlns:xlink="http://www.w3.org/1999/xlink">
    <!-- Generator: Sketch 45.1 (43504) - http://www.bohemiancoding.com/sketch -->
    <title>Linkedin</title>
    <desc>Created with Sketch.</desc>
    <defs>
        <path d="M67,12.5734119 L67,18.0092049 C67,19.1017876 67.8958174,20 69.0008642,20 L87.9991358,20 C89.0983727,20 90,19.1086907 90,18.0092049 L90,1.99079514 C90,0.898212381 89.1041826,0 87.9991358,0 L69.0008642,0 C67.9016273,0 67,0.891309342 67,1.99079514 L67,7.02895958 L63,9.55726696 L67,12.5734119 Z" id="path-1"></path>
    </defs>
    <g id="Components" stroke="none" stroke-width="1" fill="none" fill-rule="evenodd">
        <g id="Headers" transform="translate(-1200.000000, -11971.000000)">
            <g id="Header-#15" transform="translate(0.000000, 11914.000000)">
                <g id="Menu" transform="translate(150.000000, 50.000000)">
                    <g id="Linkedin" transform="translate(1050.000000, 7.000000)">
                        <g id="Combined-Shape">
                            <use fill="#FFFFFF" fill-rule="evenodd" xlink:href="#path-1"></use>
                            <path stroke="#3FA2F7" stroke-width="1" d="M63.878514,9.5934854 L67.5,12.324217 L67.5,18.0092049 C67.5,18.827732 68.1740538,19.5 69.0008642,19.5 L87.9991358,19.5 C88.8250228,19.5 89.5,18.8297638 89.5,18.0092049 L89.5,1.99079514 C89.5,1.172268 88.8259462,0.5 87.9991358,0.5 L69.0008642,0.5 C68.1749772,0.5 67.5,1.17023619 67.5,1.99079514 L67.5,7.30442795 L63.878514,9.5934854 Z"></path>
                        </g>
                        <g id="Button">
                            <rect id="Rectangle-802" fill="#3FA2F7" x="0" y="0" width="61" height="20" rx="2"></rect>
                            <text id="Share" font-family="HelveticaNeue-Medium, Helvetica Neue" font-size="10" font-weight="400" letter-spacing="-0.0909090936" fill="#FFFFFF">
                                <tspan x="28.3872727" y="13">Share</tspan>
                            </text>
                            <rect id="Rectangle-809" fill="#FFFFFF" opacity="0.200000003" x="22" y="0" width="1" height="20"></rect>
                            <text id="20" font-family="HelveticaNeue-Medium, Helvetica Neue" font-size="10" font-weight="400" letter-spacing="-0.0909090936" fill="#3FA2F7">
                                <tspan x="73.0309091" y="13">20</tspan>
                            </text>
                        </g>
                        <g id="Lgoo" transform="translate(11.000000, 10.000000) scale(1, -1) translate(-11.000000, -10.000000) translate(5.000000, 4.000000)" fill="#FFFFFF">
                            <path d="M2.7154316,0.223930284 L2.7154316,8.01945624 L0.172326206,8.01945624 L0.172326206,0.223930284 L2.7154316,0.223930284 L2.7154316,0.223930284 Z M1.44386758,9.08380366 C2.33069989,9.08380366 2.88267771,9.68241258 2.88267771,10.4305007 C2.86615008,11.1954283 2.33069989,11.7774285 1.46068955,11.7774285 C0.590769775,11.7774285 0.0219926222,11.1954283 0.0219926222,10.4305007 C0.0219926222,9.68241258 0.573857247,9.08380366 1.42729466,9.08380366 L1.4438223,9.08380366 L1.44386758,9.08380366 Z" id="path28"></path>
                            <path d="M4.12261281,0.223930284 L6.66569557,0.223930284 L6.66569557,4.57728194 C6.66569557,4.81026653 6.68222321,5.04302044 6.74937523,5.20956982 C6.9332169,5.67507764 7.35166047,6.15719427 8.05419828,6.15719427 C8.97442547,6.15719427 9.34253899,5.44232373 9.34253899,4.39435444 L9.34253899,0.223930284 L11.885418,0.223930284 L11.885418,4.69377423 C11.885418,7.08820992 10.6307891,8.20238374 8.95762615,8.20238374 C7.58569635,8.20238374 6.98341111,7.421078 6.64878304,6.88890429 L6.66576349,6.88890429 L6.66576349,8.01945624 L4.12268073,8.01945624 C4.15605298,7.2879769 4.12268073,0.223930284 4.12268073,0.223930284 L4.12261281,0.223930284 Z" id="path30"></path>
                        </g>
                    </g>
                </g>
            </g>
        </g>
    </g>
</svg>