<?xml version="1.0" encoding="UTF-8"?>
<svg width="61px" height="20px" viewBox="0 0 61 20" version="1.1" xmlns="http://www.w3.org/2000/svg" xmlns:xlink="http://www.w3.org/1999/xlink">
    <!-- Generator: Sketch 45.1 (43504) - http://www.bohemiancoding.com/sketch -->
    <title>Twitter</title>
    <desc>Created with Sketch.</desc>
    <defs></defs>
    <g id="Components" stroke="none" stroke-width="1" fill="none" fill-rule="evenodd">
        <g id="Headers" transform="translate(-1043.000000, -11971.000000)">
            <g id="Header-#15" transform="translate(0.000000, 11914.000000)">
                <g id="Menu" transform="translate(150.000000, 50.000000)">
                    <g id="Twitter" transform="translate(893.000000, 7.000000)">
                        <rect id="Shape" fill="#3FA2F7" x="0" y="0" width="61" height="20" rx="2"></rect>
                        <text id="Tweet" font-family="HelveticaNeue-Bold, Helvetica Neue" font-size="10" font-weight="bold" letter-spacing="-0.0909090936" fill="#FFFFFF">
                            <tspan x="25.6572727" y="13">Tweet</tspan>
                        </text>
                        <path d="M18.0996739,5.79651405 C17.6519667,5.30630227 17.0121103,5 16.3037209,5 C14.9458676,5 13.8438929,6.1303707 13.8438929,7.52443049 C13.8438929,7.7224376 13.8650293,7.91435712 13.9073021,8.09922784 C11.8621958,7.99381628 10.0492695,6.99000352 8.83488759,5.460735 C8.62288315,5.83496203 8.50182925,6.26910384 8.50182925,6.73144084 C8.50182925,7.60677325 8.93608609,8.37957771 9.59675854,8.83230271 C9.19388605,8.82012752 8.8137512,8.70542437 8.48133335,8.51767005 L8.48133335,8.54842844 C8.48133335,9.7720355 9.32967138,10.7928295 10.4563053,11.0238377 C10.2500653,11.0831117 10.0322964,11.1129089 9.80780224,11.1129089 C9.64927928,11.1129089 9.4945993,11.0975297 9.34472305,11.0680529 C9.65792599,12.0705841 10.5661505,12.8007754 11.6431458,12.8203198 C10.8012128,13.4976451 9.73958933,13.9013489 8.58701533,13.9013489 C8.38846131,13.9013489 8.19214904,13.8898145 8,13.8667457 C9.08884457,14.5818782 10.3829684,15 11.772206,15 C16.2989172,15 18.7734766,11.1539201 18.7734766,7.81759636 C18.7734766,7.70769921 18.7715551,7.59812246 18.7673919,7.4904681 C19.2480847,7.13450386 19.6656886,6.69010926 19.9942635,6.18387748 C19.5536017,6.38444779 19.0789936,6.52029733 18.5813275,6.5811733 C19.0895617,6.26910384 19.4796243,5.77440646 19.6634469,5.18487072 C19.1875578,5.47387139 18.6617099,5.6840537 18.0996739,5.79651405 Z" fill="#FFFFFF"></path>
                    </g>
                </g>
            </g>
        </g>
    </g>
</svg>