<?xml version="1.0" encoding="UTF-8"?>
<svg width="926px" height="517px" viewBox="0 0 926 517" version="1.1" xmlns="http://www.w3.org/2000/svg" xmlns:xlink="http://www.w3.org/1999/xlink">
    <!-- Generator: Sketch 45.1 (43504) - http://www.bohemiancoding.com/sketch -->
    <title>Group 3</title>
    <desc>Created with Sketch.</desc>
    <defs>
        <path d="M104.172414,0 C90.2698994,0 79,11.2490299 79,25.1257996 L79,474.249467 C79,483.499949 86.5139655,491 95.7816092,491 L792.218391,491 C801.487083,491 809,483.499949 809,474.249467 L809,25.1257996 C809,11.2490299 797.730101,0 783.827586,0 L104.172414,0 Z" id="path-1"></path>
        <path d="M890,488 L447.739666,488 L0,488 L0,503.016 L0,503.126 C1.0322017,503.102 20.019912,514 34.5531867,514 L447.478745,514 L855.689991,514 C870.120985,514 888.973017,503.102 889.959296,503.102 C889.986432,503.102 890,503.016 890,503.016 L890,488 Z" id="path-2"></path>
        <polygon id="path-3" points="0 418 679 418 679 0 0 0"></polygon>
        <path d="M231,0.993569132 L231,308.006431 C231,308.397269 230.398437,309 230.008584,309 L0.991416309,309 C0.6015625,309 1.42108547e-14,308.397269 1.42108547e-14,308.006431 L1.42108547e-14,0.993569132 C1.42108547e-14,0.602730819 0.6015625,-5.1159077e-13 0.991416309,-5.1159077e-13 L230.008584,-5.1159077e-13 C230.398437,-5.1159077e-13 231,0.602730819 231,0.993569132 Z" id="path-5"></path>
        <polygon id="path-7" points="119 0 119 0 0 0 0 0 0 0 0 211 0 211 0 211 119 211 119 211 119 211"></polygon>
    </defs>
    <g id="Components" stroke="none" stroke-width="1" fill="none" fill-rule="evenodd">
        <g id="Contents" transform="translate(-257.000000, -9862.000000)">
            <g id="Contents-#17" transform="translate(0.000000, 9551.000000)">
                <g id="Group-3" transform="translate(258.000000, 311.000000)">
                    <g id="Group-2" transform="translate(17.000000, 0.000000)">
                        <g id="Images-/-Macbook-/-Macbook-890px">
                            <g id="Macbook">
                                <g id="Shape">
                                    <use fill="#E4F1FD" fill-rule="evenodd" xlink:href="#path-1"></use>
                                    <path stroke="#3FA2F7" stroke-width="3" d="M104.172414,1.5 C91.0977048,1.5 80.5,12.07808 80.5,25.1257996 L80.5,474.249467 C80.5,482.670899 87.3417709,489.5 95.7816092,489.5 L792.218391,489.5 C800.658901,489.5 807.5,482.671275 807.5,474.249467 L807.5,25.1257996 C807.5,12.07808 796.902295,1.5 783.827586,1.5 L104.172414,1.5 Z"></path>
                                </g>
                                <polygon id="Shape" fill="#3FA2F7" points="106 452 789 452 789 30 106 30"></polygon>
                                <path d="M33.991494,512 C22.8339264,512 8.86843895,505.32 2.90500147,502.468 C2.05531862,502.062 1.45093733,501.772 1,501.568 L1,489 L888,489 L888,501.57 C887.548019,501.775 886.947813,502.065 886.103349,502.472 C880.182709,505.323 866.320561,512 855.249632,512 L33.991494,512 Z" id="Shape"></path>
                                <g id="Shape">
                                    <use fill="#E4F1FD" fill-rule="evenodd" xlink:href="#path-2"></use>
                                    <path stroke="#3FA2F7" stroke-width="3" d="M888.5,489.5 L1.5,489.5 L1.5,502.081773 C1.59603809,502.125086 1.6994096,502.172176 1.81119306,502.223321 C2.11110785,502.360545 2.46154031,502.524757 2.97301519,502.767002 C3.10329819,502.828707 4.1102577,503.306745 4.43923672,503.462384 C7.53813068,504.928458 10.0170216,506.042088 12.8005465,507.173362 C17.4130142,509.04795 21.7753915,510.495963 25.8642086,511.416238 C29.0199963,512.126514 31.9297522,512.5 34.5531867,512.5 L855.689991,512.5 C858.288492,512.5 861.170297,512.128062 864.294736,511.420636 C868.36667,510.498681 872.712451,509.044346 877.297018,507.163271 C880.135628,505.998573 885.807093,503.325047 888.5,502.160837 L888.5,489.5 Z"></path>
                                </g>
                                <polygon id="Line" fill="#3FA2F7" fill-rule="nonzero" points="2 501 1 503 887 503 888 501"></polygon>
                                <path d="M491.254626,498 L389.744362,498 C384.361318,498 380,493.566756 380,488.100802 L380,488 L501,488 L501,488.100802 C501,493.566756 496.636657,498 491.254626,498" id="Shape" fill="#3FA2F7"></path>
                                <path d="M444,17.5 C444,19.4328052 442.433832,21 440.5,21 C438.566168,21 437,19.4328052 437,17.5 C437,15.5671948 438.566168,14 440.5,14 C442.433832,14 444,15.5671948 444,17.5" id="Oval" fill="#3FA2F7"></path>
                            </g>
                            <g id="Screen" transform="translate(108.000000, 32.000000)">
                                <mask id="mask-4" fill="white">
                                    <use xlink:href="#path-3"></use>
                                </mask>
                                <use id="Mask" fill="#FFFFFF" xlink:href="#path-3"></use>
                                <path d="M384.029703,224.82 L357.930693,197.46 C357.371287,196.873 356.350495,196.873 355.791089,197.46 L332.960396,221.395 C332.391089,221.991 332.407921,222.94 332.99901,223.515 C333.590099,224.09 334.531683,224.074 335.09901,223.476 L356.861386,200.663 L383.455446,228.541 C383.620792,228.715 383.818812,228.834 384.029703,228.909 L384.029703,240 L343.074257,240 L309.842574,205.455 C309.282178,204.874 308.272277,204.874 307.711881,205.455 L289.970297,223.898 L289.970297,177 L384.029703,177 L384.029703,224.82 Z M289.970297,240 L289.970297,228.178 C289.993069,228.156 290.023762,228.149 290.045545,228.126 L308.777228,208.652 L338.931683,240 L289.970297,240 Z M385.514851,174 C386.334653,174 387,174.671 387,175.5 L387,241.5 C387,242.329 386.334653,243 385.514851,243 L288.485149,243 C287.665347,243 287,242.329 287,241.5 L287,175.5 C287,174.671 287.665347,174 288.485149,174 L385.514851,174 Z M329.574257,206.0001 C334.488119,206.0001 338.485149,201.9621 338.485149,197.0001 C338.485149,192.0381 334.488119,188.0001 329.574257,188.0001 C324.660396,188.0001 320.663366,192.0381 320.663366,197.0001 C320.663366,201.9621 324.660396,206.0001 329.574257,206.0001 Z M329.574257,191.0001 C332.850495,191.0001 335.514851,193.6911 335.514851,197.0001 C335.514851,200.3091 332.850495,203.0001 329.574257,203.0001 C326.29802,203.0001 323.633663,200.3091 323.633663,197.0001 C323.633663,193.6911 326.29802,191.0001 329.574257,191.0001 Z" id="Icon" fill="#3FA2F7" mask="url(#mask-4)"></path>
                            </g>
                        </g>
                        <g id="Images-/-iPad-/-iPad-269px" transform="translate(638.000000, 135.000000)">
                            <g id="iPad">
                                <path d="M254,6.82121026e-13 L15,6.82121026e-13 C6.65608598,6.82121026e-13 0,6.58867125 0,15 L0,366 C0,374.344097 7.19395151,381 16,381 L253,381 C261.671582,381 269,374.613023 269,365 L269,15 C269,6.65590259 262.343914,6.82121026e-13 254,6.82121026e-13 L254,6.82121026e-13 L254,6.82121026e-13 Z" id="Shape" stroke="#3FA2F7" stroke-width="2" fill="#E4F1FD"></path>
                                <path d="M143,362 C143,366.963235 138.963235,371 134,371 C129.036765,371 125,366.963235 125,362 C125,357.036765 129.036765,353 134,353 C138.963235,353.066176 143,357.036765 143,362 L143,362 Z" id="Oval" stroke="#3FA2F7"></path>
                                <circle id="Oval" fill="#3FA2F7" cx="134.5" cy="18.5" r="2.5"></circle>
                                <path d="M250,35 C250.393229,35 251,35.606632 251,36 L251,345 C251,345.393368 250.393229,346 250,346 L19,346 C18.6067708,346 18,345.393368 18,345 L18,36 C18,35.606632 18.6067708,35 19,35 L250,35 L250,35 Z" id="Shape" fill="#3FA2F7"></path>
                            </g>
                            <g id="Screen" transform="translate(19.000000, 36.000000)">
                                <mask id="mask-6" fill="white">
                                    <use xlink:href="#path-5"></use>
                                </mask>
                                <use id="Mask" fill="#FFFFFF" xlink:href="#path-5"></use>
                                <path d="M163.029703,170.82 L136.930693,143.46 C136.371287,142.873 135.350495,142.873 134.791089,143.46 L111.960396,167.395 C111.391089,167.991 111.407921,168.94 111.99901,169.515 C112.590099,170.09 113.531683,170.074 114.09901,169.476 L135.861386,146.663 L162.455446,174.541 C162.620792,174.715 162.818812,174.834 163.029703,174.909 L163.029703,186 L122.074257,186 L88.8425743,151.455 C88.2821782,150.874 87.2722772,150.874 86.7118812,151.455 L68.970297,169.898 L68.970297,123 L163.029703,123 L163.029703,170.82 Z M68.970297,186 L68.970297,174.178 C68.9930693,174.156 69.0237624,174.149 69.0455446,174.126 L87.7772277,154.652 L117.931683,186 L68.970297,186 Z M164.514851,120 C165.334653,120 166,120.671 166,121.5 L166,187.5 C166,188.329 165.334653,189 164.514851,189 L67.4851485,189 C66.6653465,189 66,188.329 66,187.5 L66,121.5 C66,120.671 66.6653465,120 67.4851485,120 L164.514851,120 Z M108.574257,152.0001 C113.488119,152.0001 117.485149,147.9621 117.485149,143.0001 C117.485149,138.0381 113.488119,134.0001 108.574257,134.0001 C103.660396,134.0001 99.6633663,138.0381 99.6633663,143.0001 C99.6633663,147.9621 103.660396,152.0001 108.574257,152.0001 Z M108.574257,137.0001 C111.850495,137.0001 114.514851,139.6911 114.514851,143.0001 C114.514851,146.3091 111.850495,149.0001 108.574257,149.0001 C105.29802,149.0001 102.633663,146.3091 102.633663,143.0001 C102.633663,139.6911 105.29802,137.0001 108.574257,137.0001 Z" id="Icon" fill="#3FA2F7" mask="url(#mask-6)"></path>
                            </g>
                        </g>
                    </g>
                    <g id="Images-/-iPhone-/-iPhone-Small" transform="translate(0.000000, 244.000000)">
                        <g id="iPhone" stroke="#3FA2F7">
                            <path d="M118,272 L16,272 C7.74154028,272 1,265.48048 1,257 L1,15 C1,6.56726097 7.74154028,0 16,0 L118,0 C126.466782,0 133,6.56726097 133,15 L133,257 C133,265.48048 126.466782,272 118,272 Z" id="Shape" stroke-width="2" fill="#E4F1FD"></path>
                            <path d="M77,17 C77,17.5524 76.6475591,18 76,18 L58,18 C57.3524409,18 57,17.5524 57,17 C57,16.4476 57.3524409,16 58,16 L76,16 C76.6475591,16 77,16.4476 77,17 L77,17 Z" id="Shape"></path>
                            <path d="M76,256.5 C76,261.746646 71.7466463,266 66.5,266 C61.2533537,266 57,261.746646 57,256.5 C57,251.252891 61.2533537,247 66.5,247 C71.7466463,247 76,251.252891 76,256.5 L76,256.5 Z" id="Oval"></path>
                            <path d="M69,8.99992123 C69,10.1047221 68.1045646,11 67.0000788,11 C65.8952779,11 65,10.1047221 65,8.99992123 C65,7.89559293 65.8952779,7 67.0000788,7 C68.1045646,7 69,7.89559293 69,8.99992123 L69,8.99992123 Z" id="Oval"></path>
                            <path d="M47,17.0000716 C47,18.1043643 46.1043643,19 45.0000716,19 C43.895206,19 43,18.1043643 43,17.0000716 C43,15.895206 43.895206,15 45.0000716,15 C46.1043643,15 47,15.895206 47,17.0000716 L47,17.0000716 Z" id="Oval"></path>
                            <path d="M135,59 L133,59 L133,78 L135,78 C134.8726,78 135,77.8229262 135,78 L135,59 C135,59.1770738 134.8726,59 135,59 L135,59 Z" id="Shape"></path>
                            <path d="M1,34 L1,34 C0.3274,34 0,34.176431 0,34 L0,43 C0,42.823569 0.3274,43 1,43 L1,43 L1,34 L1,34 Z" id="Shape" stroke-width="2"></path>
                            <path d="M1,59 L0,59 C0.233857143,59 0,59.1770738 0,59 L0,78 C0,77.8229262 0.233857143,78 0,78 L1,78 L1,59 L1,59 Z" id="Shape" stroke-width="2"></path>
                            <path d="M1,84 L0,84 C0.233857143,84 0,84.1770738 0,84 L0,103 C0,102.822926 0.233857143,103 0,103 L1,103 L1,84 L1,84 Z" id="Shape" stroke-width="2"></path>
                        </g>
                        <g id="Screen" transform="translate(8.000000, 30.000000)">
                            <mask id="mask-8" fill="white">
                                <use xlink:href="#path-7"></use>
                            </mask>
                            <use id="Mask" stroke="#3FA2F7" fill="#FFFFFF" xlink:href="#path-7"></use>
                            <path d="M92.6,116.898 L74.148,98.354 C73.922,98.128 73.617,98 73.297,98 C72.978,98 72.672,98.128 72.447,98.354 L56.35,114.531 C55.882,115 55.884,115.76 56.354,116.227 C56.825,116.695 57.584,116.694 58.051,116.223 L73.297,100.902 L91.95,119.646 C92.132,119.83 92.363,119.921 92.6,119.961 L92.6,127.6 L64.296,127.6 L40.969,104.35 C40.502,103.884 39.743,103.884 39.276,104.35 L27.401,116.187 L27.401,84.401 L92.6,84.401 L92.6,116.898 Z M27.401,127.6 L27.401,119.575 L40.122,106.895 L60.896,127.6 L27.401,127.6 Z M54.0004,105.0008 C50.4164,105.0008 47.5004,102.0848 47.5004,98.5008 C47.5004,94.9168 50.4164,92.0008 54.0004,92.0008 C57.5844,92.0008 60.5004,94.9168 60.5004,98.5008 C60.5004,102.0848 57.5844,105.0008 54.0004,105.0008 Z M54.0004,94.4008 C51.7394,94.4008 49.9004,96.2398 49.9004,98.5008 C49.9004,100.7608 51.7394,102.5998 54.0004,102.5998 C56.2614,102.5998 58.1004,100.7608 58.1004,98.5008 C58.1004,96.2398 56.2614,94.4008 54.0004,94.4008 Z M93.8,82 L26.201,82 C25.537,82 25,82.538 25,83.201 L25,128.8 C25,129.463 25.537,130 26.201,130 L93.8,130 C94.463,130 95,129.463 95,128.8 L95,83.201 C95,82.538 94.463,82 93.8,82 L93.8,82 Z" id="Icon" fill="#3FA2F7" mask="url(#mask-8)"></path>
                        </g>
                    </g>
                </g>
            </g>
        </g>
    </g>
</svg>