<?xml version="1.0" encoding="UTF-8"?>
<svg width="596px" height="420px" viewBox="0 0 596 420" version="1.1" xmlns="http://www.w3.org/2000/svg" xmlns:xlink="http://www.w3.org/1999/xlink">
    <!-- Generator: Sketch 45.2 (43514) - http://www.bohemiancoding.com/sketch -->
    <title>iPad</title>
    <desc>Created with Sketch.</desc>
    <defs>
        <path d="M489,364 C489,365.046875 488.046164,366 487,366 L2,366 C0.953836151,366 -5.68434189e-14,365.046875 -5.68434189e-14,364 L0,2 C0,0.953125 0.953836151,1.13686838e-13 2,1.13686838e-13 L487,2.27373675e-13 C488.046164,2.27373675e-13 489,0.953125 489,2 L489,364 L489,364 L489,364 Z" id="path-1"></path>
    </defs>
    <g id="Components" stroke="none" stroke-width="1" fill="none" fill-rule="evenodd">
        <g id="Features" transform="translate(-422.000000, -11791.000000)">
            <g id="Features-#16" transform="translate(0.000000, 11510.000000)">
                <g id="Images-/-iPad-/-iPad-594px" transform="translate(423.000000, 282.000000)">
                    <g id="iPad">
                        <path d="M21,418 C9.21669342,418 1.13686838e-13,408.454199 1.13686838e-13,396 L2.27373675e-13,22 C2.27373675e-13,9.97005836 9.00481541,5.68434189e-14 20,5.68434189e-14 L574,1.70530257e-13 C584.995185,1.70530257e-13 594,8.8033494 594,20 L594,397 C594,408.984522 585.207063,418 574,418 L21,418 Z" id="Shape" stroke="#3FA2F7" stroke-width="2" fill="#E4F1FD"></path>
                        <path d="M27.5,224 C19.5036765,224 13,217.496324 13,209.5 C13,201.503676 19.5036765,195 27.5,195 C35.4963235,195 42,201.503676 42,209.5 C41.8933824,217.496324 35.4963235,224 27.5,224 L27.5,224 L27.5,224 Z" id="Oval" stroke="#3FA2F7" stroke-width="2"></path>
                        <path d="M566,209.5 C566,211.432997 567.567003,213 569.5,213 C571.432997,213 573,211.432997 573,209.5 C573,207.567003 571.432997,206 569.5,206 C567.567003,206 566,207.567003 566,209.5 L566,209.5 Z" id="Oval" fill="#3FA2F7"></path>
                        <path d="M549,390 L549,28 C549,26.4821634 547.516616,25 546,25 L61,25 C59.4833837,25 58,26.4821634 58,28 L58,390 C58,391.517837 59.4833837,393 61,393 L546,393 C547.516616,393 549,391.517837 549,390 L549,390 L549,390 L549,390 Z" id="Shape" fill="#3FA2F7"></path>
                    </g>
                    <g id="Screen" transform="translate(59.000000, 26.000000)">
                        <mask id="mask-2" fill="white">
                            <use xlink:href="#path-1"></use>
                        </mask>
                        <use id="Mask" fill="#FFFFFF" xlink:href="#path-1"></use>
                        <path d="M270.6,193.898 L252.148,175.354 C251.922,175.128 251.617,175 251.297,175 C250.978,175 250.672,175.128 250.447,175.354 L234.35,191.531 C233.882,192 233.884,192.76 234.354,193.227 C234.825,193.695 235.584,193.694 236.051,193.223 L251.297,177.902 L269.95,196.646 C270.132,196.83 270.363,196.921 270.6,196.961 L270.6,204.6 L242.296,204.6 L218.969,181.35 C218.502,180.884 217.743,180.884 217.276,181.35 L205.401,193.187 L205.401,161.401 L270.6,161.401 L270.6,193.898 Z M205.401,204.6 L205.401,196.575 L218.122,183.895 L238.896,204.6 L205.401,204.6 Z M232.0004,182.0008 C228.4164,182.0008 225.5004,179.0848 225.5004,175.5008 C225.5004,171.9168 228.4164,169.0008 232.0004,169.0008 C235.5844,169.0008 238.5004,171.9168 238.5004,175.5008 C238.5004,179.0848 235.5844,182.0008 232.0004,182.0008 Z M232.0004,171.4008 C229.7394,171.4008 227.9004,173.2398 227.9004,175.5008 C227.9004,177.7608 229.7394,179.5998 232.0004,179.5998 C234.2614,179.5998 236.1004,177.7608 236.1004,175.5008 C236.1004,173.2398 234.2614,171.4008 232.0004,171.4008 Z M271.8,159 L204.201,159 C203.537,159 203,159.538 203,160.201 L203,205.8 C203,206.463 203.537,207 204.201,207 L271.8,207 C272.463,207 273,206.463 273,205.8 L273,160.201 C273,159.538 272.463,159 271.8,159 L271.8,159 Z" id="Icon" fill="#3FA2F7" mask="url(#mask-2)"></path>
                    </g>
                </g>
            </g>
        </g>
    </g>
</svg>