
<svg width="1440px" height="700px" viewBox="0 0 1440 700" version="1.1" xmlns="http://www.w3.org/2000/svg" xmlns:xlink="http://www.w3.org/1999/xlink">
    <!-- Generator: Sketch 46.2 (44496) - http://www.bohemiancoding.com/sketch -->
    <desc>Created with Sketch.</desc>
    <defs>
        <rect id="path-1" x="0" y="0" width="1440" height="700"></rect>
    </defs>
    <g id="Components" stroke="none" stroke-width="1" fill="none" fill-rule="evenodd">
        <g id="Contents" transform="translate(0.000000, -5515.000000)">
            <g id="Contents-#11" transform="translate(0.000000, 5515.000000)">
                <g id="Image">
                    <mask id="mask-2" fill="white">
                        <use xlink:href="#path-1"></use>
                    </mask>
                    <use id="Background" fill="#E4F1FD" xlink:href="#path-1"></use>
                    <g id="iPads" mask="url(#mask-2)">
                        <g transform="translate(1085.407430, 719.407430) rotate(-315.000000) translate(-1085.407430, -719.407430) translate(49.407430, -18.592570)" id="Ipad-1016px">
                            <g transform="translate(0.000000, 758.000000)">
                                <path d="M1.5,679.271218 C1.5,699.599701 18.60253,716.5 39.4345508,716.5 L976.565449,716.5 C997.477225,716.5 1014.5,698.006579 1014.5,675.17687 L1014.5,42.7630298 C1014.5,19.6467815 997.491942,1.5 974.631927,1.5 L39.4345508,1.5 C18.3721626,1.5 1.5,18.6295681 1.5,40.2763704 L1.5,679.271218 Z" id="Fill-3" stroke="#3FA2F7" stroke-width="3"></path>
                                <path d="M40,359.5 C40,356.463315 42.4626866,354 45.5007265,354 C48.5373134,354 51,356.463315 51,359.5 C51,362.536685 48.5373134,365 45.5007265,365 C42.4626866,365 40,362.536685 40,359.5" id="Fill-8" fill="#3FA2F7"></path>
                                <path d="M88,666.4981 C88,668.421771 89.5788599,670 91.5036989,670 L913.496301,670 C915.42114,670 917,668.421771 917,666.4981 L917,52.5019005 C917,50.5782294 915.42114,49 913.496301,49 L91.5036989,49 C89.5788599,49 88,50.5782294 88,52.5019005 L88,666.4981 Z" id="Fill-12" stroke="#3FA2F7" stroke-width="2"></path>
                                <g id="Page-1" transform="translate(458.000000, 324.000000)" stroke="#3FA2F7" stroke-width="3" stroke-linecap="round" stroke-linejoin="round">
                                    <path d="M1.61411039e-13,54.0646434 L1.61411039e-13,0.0829719742" id="Stroke-1"></path>
                                    <polyline id="Stroke-3" points="46.4046695 69.2259337 0.0801642836 69.2259337 0.0801642836 54.0651686"></polyline>
                                    <polyline id="Stroke-5" points="99.8260716 54.3634476 99.8260716 69.2261963 46.4040323 69.2261963"></polyline>
                                    <polyline id="Stroke-7" points="0.0802917308 0.0825781199 99.8255618 0.0825781199 99.8255618 54.3635789"></polyline>
                                    <path d="M34.0658697,22.1003468 C34.0658697,17.7272511 37.5069438,14.1812495 41.7534843,14.1812495 C45.9987502,14.1812495 49.4398244,17.7272511 49.4398244,22.1003468 C49.4398244,26.4734425 45.9987502,30.0194441 41.7534843,30.0194441 C37.5069438,30.0194441 34.0658697,26.4734425 34.0658697,22.1003468 L34.0658697,22.1003468 Z" id="Stroke-9"></path>
                                    <polyline id="Stroke-11" points="55.9378469 68.676507 20.9166331 32.6007652 0.323715867 53.8137582"></polyline>
                                    <polyline id="Stroke-13" points="99.583922 54.0994339 70.652135 24.2964784 46.7736291 48.8939928"></polyline>
                                </g>
                            </g>
                            <g>
                                <path d="M1.5,679.271218 C1.5,699.599701 18.60253,716.5 39.4345508,716.5 L976.565449,716.5 C997.477225,716.5 1014.5,698.006579 1014.5,675.17687 L1014.5,42.7630298 C1014.5,19.6467815 997.491942,1.5 974.631927,1.5 L39.4345508,1.5 C18.3721626,1.5 1.5,18.6295681 1.5,40.2763704 L1.5,679.271218 Z" id="Fill-3" stroke="#3FA2F7" stroke-width="3"></path>
                                <path d="M989,359 C989,372.254658 978.2551,383 965,383 C951.7449,383 941,372.254658 941,359 C941,345.74682 951.7449,335 965,335 C978.2551,335 989,345.74682 989,359 L989,359 Z" id="Fill-6" stroke="#3FA2F7" stroke-width="3"></path>
                                <path d="M88,666.4981 C88,668.421771 89.5788599,670 91.5036989,670 L913.496301,670 C915.42114,670 917,668.421771 917,666.4981 L917,52.5019005 C917,50.5782294 915.42114,49 913.496301,49 L91.5036989,49 C89.5788599,49 88,50.5782294 88,52.5019005 L88,666.4981 Z" id="Fill-12" stroke="#3FA2F7" stroke-width="2"></path>
                                <g id="Page-1" transform="translate(458.000000, 324.000000)" stroke="#3FA2F7" stroke-width="3" stroke-linecap="round" stroke-linejoin="round">
                                    <path d="M1.61411039e-13,54.0646434 L1.61411039e-13,0.0829719742" id="Stroke-1"></path>
                                    <polyline id="Stroke-3" points="46.4046695 69.2259337 0.0801642836 69.2259337 0.0801642836 54.0651686"></polyline>
                                    <polyline id="Stroke-5" points="99.8260716 54.3634476 99.8260716 69.2261963 46.4040323 69.2261963"></polyline>
                                    <polyline id="Stroke-7" points="0.0802917308 0.0825781199 99.8255618 0.0825781199 99.8255618 54.3635789"></polyline>
                                    <path d="M34.0658697,22.1003468 C34.0658697,17.7272511 37.5069438,14.1812495 41.7534843,14.1812495 C45.9987502,14.1812495 49.4398244,17.7272511 49.4398244,22.1003468 C49.4398244,26.4734425 45.9987502,30.0194441 41.7534843,30.0194441 C37.5069438,30.0194441 34.0658697,26.4734425 34.0658697,22.1003468 L34.0658697,22.1003468 Z" id="Stroke-9"></path>
                                    <polyline id="Stroke-11" points="55.9378469 68.676507 20.9166331 32.6007652 0.323715867 53.8137582"></polyline>
                                    <polyline id="Stroke-13" points="99.583922 54.0994339 70.652135 24.2964784 46.7736291 48.8939928"></polyline>
                                </g>
                            </g>
                            <g transform="translate(1056.000000, 0.000000)">
                                <path d="M1.5,679.271218 C1.5,699.599701 18.60253,716.5 39.4345508,716.5 L976.565449,716.5 C997.477225,716.5 1014.5,698.006579 1014.5,675.17687 L1014.5,42.7630298 C1014.5,19.6467815 997.491942,1.5 974.631927,1.5 L39.4345508,1.5 C18.3721626,1.5 1.5,18.6295681 1.5,40.2763704 L1.5,679.271218 Z" id="Fill-3" stroke="#3FA2F7" stroke-width="3"></path>
                                <path d="M40,359.5 C40,356.463315 42.4626866,354 45.5007265,354 C48.5373134,354 51,356.463315 51,359.5 C51,362.536685 48.5373134,365 45.5007265,365 C42.4626866,365 40,362.536685 40,359.5" id="Fill-8" fill="#3FA2F7"></path>
                                <path d="M88,666.4981 C88,668.421771 89.5788599,670 91.5036989,670 L913.496301,670 C915.42114,670 917,668.421771 917,666.4981 L917,52.5019005 C917,50.5782294 915.42114,49 913.496301,49 L91.5036989,49 C89.5788599,49 88,50.5782294 88,52.5019005 L88,666.4981 Z" id="Fill-12" stroke="#3FA2F7" stroke-width="2"></path>
                            </g>
                        </g>
                    </g>
                </g>
            </g>
        </g>
    </g>
</svg>
