<?xml version="1.0" encoding="UTF-8"?>
<svg width="334px" height="672px" viewBox="0 0 334 672" version="1.1" xmlns="http://www.w3.org/2000/svg" xmlns:xlink="http://www.w3.org/1999/xlink">
    <!-- Generator: Sketch 45.1 (43504) - http://www.bohemiancoding.com/sketch -->
    <title>iPhone 330px</title>
    <desc>Created with Sketch.</desc>
    <defs>
        <rect id="path-1" x="0" y="0" width="293" height="513"></rect>
    </defs>
    <g id="Components" stroke="none" stroke-width="1" fill="none" fill-rule="evenodd">
        <g id="Headers" transform="translate(-215.000000, -9380.000000)">
            <g id="Header-#12" transform="translate(0.000000, 9211.000000)">
                <g id="Background">
                    <g id="Images-/-iPhone-/-iPhone-330px" transform="translate(216.000000, 170.000000)">
                        <g id="iPhone"> 
                            <path d="M328,634 C328,653.940889 311.963919,670 292,670 L41,670 C20.5474171,670 4,653.940889 4,634 L4,36 C4,16.176709 20.5474171,0 41,0 L292,0 C311.963919,0 328,16.176709 328,36 L328,634 L328,634 Z" id="Shape" stroke="#3FA2F7" stroke-width="2" fill="#E4F1FD" mask="url(#screen)"></path>



                            <path d="M191,42 C191,43.1048 190.13652,44 189,44 L144,44 C142.86348,44 142,43.1048 142,42 C142,40.8952 142.86348,40 144,40 L189,40 C190.13652,40 191,40.8952 191,42 L191,42 Z" id="Shape" stroke="#3FA2F7" stroke-width="2"></path>
                            <path d="M189,628.5 C189,641.478546 178.478546,652 165.5,652 C152.521454,652 142,641.478546 142,628.5 C142,615.520309 152.521454,605 165.5,605 C178.478546,605 189,615.520309 189,628.5 L189,628.5 Z" id="Oval" stroke="#3FA2F7" stroke-width="2"></path>
                            <path d="M171,21.9998031 C171,24.7618054 168.761412,27 166.000197,27 C163.238195,27 161,24.7618054 161,21.9998031 C161,19.2389823 163.238195,17 166.000197,17 C168.761412,17 171,19.2389823 171,21.9998031 L171,21.9998031 Z" id="Oval" stroke="#3FA2F7" stroke-width="2"></path>
                            <path d="M119,42.000179 C119,44.7609108 116.760911,47 114.000179,47 C111.238015,47 109,44.7609108 109,42.000179 C109,39.2380151 111.238015,37 114.000179,37 C116.760911,37 119,39.2380151 119,42.000179 L119,42.000179 Z" id="Oval" stroke="#3FA2F7" stroke-width="2"></path>
                            <path d="M331,145 L328,145 L328,192 L331,192 C331.7452,192 332,191.561975 332,191 L332,146 C332,145.438025 331.7452,145 331,145 L331,145 Z" id="Shape" stroke="#3FA2F7" stroke-width="2"></path>
                            <path d="M4,84 L3,84 C2.6548,84 2,84.4312759 2,85 L2,105 C2,105.568724 2.6548,106 3,106 L4,106 L4,84 L4,84 Z" id="Shape" stroke="#3FA2F7" stroke-width="2"></path>
                            <path d="M0.666666667,207 C0.311809524,207 0,207.438025 0,208 L0,253 C0,253.561975 0.311809524,254 0.666666667,254 L4,254 L4,207 L0.666666667,207 Z" id="Shape" stroke="#3FA2F7" stroke-width="2"></path>
                            <path d="M0.666666667,145 C0.311809524,145 0,145.438025 0,146 L0,191 C0,191.561975 0.311809524,192 0.666666667,192 L4,192 L4,145 L0.666666667,145 Z" id="Shape" stroke="#3FA2F7" stroke-width="2"></path> 
                        </g>  

                    </g>
                </g>
            </g>
        </g>
    </g>
</svg>