
<svg width="420px" height="853px" viewBox="0 0 420 853" version="1.1" xmlns="http://www.w3.org/2000/svg" xmlns:xlink="http://www.w3.org/1999/xlink">
    <!-- Generator: Sketch 46.2 (44496) - http://www.bohemiancoding.com/sketch -->
    <desc>Created with Sketch.</desc>
    <defs>
        <rect id="path-1" x="0" y="0" width="376" height="660"></rect>
    </defs>
    <g id="Components" stroke="none" stroke-width="1" fill="none" fill-rule="evenodd">
        <g id="Contents" transform="translate(-218.000000, -3021.000000)">
            <g id="Contents-#7" transform="translate(0.000000, 2931.000000)">
                <g id="Image">
                    <g id="Images-/-iPhone-/-iPhone-420px" transform="translate(218.000000, 90.000000)">
                        <g id="iPhone">
                            <path d="M369,853 L49,853 C24.0417773,853 3,832.554595 3,807 L3,46 C3,20.5951236 24.0417773,0 49,0 L369,0 C394.608441,0 415,20.5951236 415,46 L415,807 C415,832.554595 394.608441,853 369,853 Z" id="Stroke" fill="#E4F1FD"></path>
                            <path d="M369,850 C392.932403,850 412,830.916939 412,807 L412,46 C412,22.1794046 392.879222,3 369,3 L49,3 C25.5398979,3 6,22.4097169 6,46 L6,807 C6,830.687113 25.4862271,850 49,850 L369,850 Z M369,853 L49,853 C24.0417773,853 3,832.554595 3,807 L3,46 C3,20.5951236 24.0417773,0 49,0 L369,0 C394.608441,0 415,20.5951236 415,46 L415,807 C415,832.554595 394.608441,853 369,853 Z" id="Stroke" fill="#3FA2F7" fill-rule="nonzero"></path>
                            <rect id="Shape" fill="#3FA2F7" x="18" y="90" width="380" height="664"></rect>
                            <path d="M238,800 C238,783.982979 225.016584,771 209,771 C192.983416,771 180,783.982979 180,800 C180,816.016072 192.983928,829 209,829 C225.016072,829 238,816.016072 238,800 Z M240,800 C240,817.120642 226.120642,831 209,831 C191.879358,831 178,817.120642 178,800 C178,782.878394 191.878861,769 209,769 C226.121139,769 240,782.878394 240,800 Z" id="Oval" fill="#3FA2F7" fill-rule="nonzero"></path>
                            <path d="M209.500256,34 C212.537806,34 215,31.5378062 215,28.499744 C215,25.4627728 212.537361,23 209.500256,23 C206.462383,23 204,25.4625167 204,28.499744 C204,31.5380622 206.461938,34 209.500256,34 Z M209.500256,36 C205.357368,36 202,32.6426317 202,28.499744 C202,24.3579716 205.357789,21 209.500256,21 C213.641955,21 217,24.3582276 217,28.499744 C217,32.6423757 213.642376,36 209.500256,36 Z" id="Oval" fill="#3FA2F7" fill-rule="nonzero"></path>
                            <path d="M148,53.5002327 C148,50.4622807 145.537476,48 142.500233,48 C139.461704,48 137,50.4617044 137,53.5002327 C137,56.5374757 139.462281,59 142.500233,59 C145.536899,59 148,56.5368993 148,53.5002327 Z M150,53.5002327 C150,57.6414688 146.641469,61 142.500233,61 C138.357667,61 135,57.6420009 135,53.5002327 C135,49.3571349 138.357135,46 142.500233,46 C146.642001,46 150,49.3576669 150,53.5002327 Z" id="Oval" fill="#3FA2F7" fill-rule="nonzero"></path>
                            <path d="M239,54 C239,52.78724 238.408936,52 238,52 L180,52 C179.591064,52 179,52.78724 179,54 C179,54.3391588 179.655241,55 180,55 L238,55 C238.344759,55 239,54.3391588 239,54 Z M241,54 C241,55.4399358 239.453157,57 238,57 L180,57 C178.546843,57 177,55.4399358 177,54 C177,51.7869534 178.341654,50 180,50 L238,50 C239.658346,50 241,51.7869534 241,54 Z" id="Shape" fill="#3FA2F7" fill-rule="nonzero"></path>
                            <path d="M415,243 L418,243 L418,187 L415,187 L415,243 Z M413,185 L418.6,185 C419.5541,185 420,185.55918 420,186 L420,244 C420,244.44082 419.5541,245 418.6,245 L413,245 L413,185 Z" id="Shape" fill="#3FA2F7" fill-rule="nonzero"></path>
                            <path d="M4,106 L4,136 L2,136 C1.08256926,136 0,134.986713 0,134 L0,108 C0,107.013287 1.08256926,106 2,106 L4,106 Z M3,108 L2,107 L2,135 L3,134 L2,134 L2,108 L3,108 Z" id="Shape" fill="#3FA2F7" fill-rule="nonzero"></path>
                            <path d="M1.66666667,187 C1.79216919,186.999856 1.82281968,186.993634 1.82369305,186.993345 C1.81735487,186.995439 1.81087346,186.99766 1.80427384,187 C1.74314772,187.02167 1.67188198,187.053461 1.61037138,187.087279 C1.57171326,187.108533 1.55636364,187.11932 1.58639821,187.090047 C1.61526867,187.061909 1.64353899,187.031966 1.67088795,187 C1.85671253,186.782803 2,186.472223 2,186 L2,244 C2,243.527777 1.85671253,243.217197 1.67089005,243.000002 C1.64353899,242.968034 1.61526867,242.938091 1.58639821,242.909953 C1.55636364,242.88068 1.57171326,242.891467 1.61037138,242.912721 C1.67188198,242.946539 1.74314772,242.97833 1.80427384,243 C1.81087346,243.00234 1.81735487,243.004561 1.82369305,243.006655 C1.82325636,243.006511 1.8153754,243.004883 1.79244371,243.003274 C1.76951203,243.001664 1.73152962,243.000073 1.67089005,243.000002 C1.66995954,243.000001 2.11299619,243.000001 3,243 L3,187 L1.66666667,187 Z M5,185 L5,245 L1.66666667,245 C1.16928571,245 0,244.44082 0,244 L0,186 C0,185.55918 1.16928571,185 1.66666667,185 L5,185 Z" id="Shape" fill="#3FA2F7" fill-rule="nonzero"></path>
                            <path d="M3,266 L1.66666667,266 C1.79216919,265.999856 1.82281968,265.993634 1.82369305,265.993345 C1.81735487,265.995439 1.81087346,265.99766 1.80427384,266 C1.74314772,266.02167 1.67188198,266.053461 1.61037138,266.087279 C1.57171326,266.108533 1.55636364,266.11932 1.58639821,266.090047 C1.61526867,266.061909 1.64353899,266.031966 1.67088795,266 C1.85671253,265.782803 2,265.472223 2,265 L2,323 C2,322.527777 1.85671253,322.217197 1.67089005,322.000002 C1.64353899,321.968034 1.61526867,321.938091 1.58639821,321.909953 C1.55636364,321.88068 1.57171326,321.891467 1.61037138,321.912721 C1.67188198,321.946539 1.74314772,321.97833 1.80427384,322 C1.81087346,322.00234 1.81735487,322.004561 1.82369305,322.006655 C1.82325636,322.006511 1.8153754,322.004883 1.79244371,322.003274 C1.76951203,322.001664 1.73152962,322.000073 1.67089005,322.000002 C1.66995954,322.000001 2.11299619,322.000001 3,322 L3,266 Z M5,264 L5,324 L1.66666667,324 C1.16928571,324 0,323.44082 0,323 L0,265 C0,264.55918 1.16928571,264 1.66666667,264 L5,264 Z" id="Shape" fill="#3FA2F7" fill-rule="nonzero"></path>
                        </g>
                        <g id="Screen" transform="translate(20.000000, 92.000000)">
                            <mask id="mask-2" fill="white">
                                <use xlink:href="#path-1"></use>
                            </mask>
                            <use id="Mask" fill="#FFFFFF" xlink:href="#path-1"></use>
                            <path d="M236.029703,345.82 L209.930693,318.46 C209.371287,317.873 208.350495,317.873 207.791089,318.46 L184.960396,342.395 C184.391089,342.991 184.407921,343.94 184.99901,344.515 C185.590099,345.09 186.531683,345.074 187.09901,344.476 L208.861386,321.663 L235.455446,349.541 C235.620792,349.715 235.818812,349.834 236.029703,349.909 L236.029703,361 L195.074257,361 L161.842574,326.455 C161.282178,325.874 160.272277,325.874 159.711881,326.455 L141.970297,344.898 L141.970297,298 L236.029703,298 L236.029703,345.82 Z M141.970297,361 L141.970297,349.178 C141.993069,349.156 142.023762,349.149 142.045545,349.126 L160.777228,329.652 L190.931683,361 L141.970297,361 Z M237.514851,295 C238.334653,295 239,295.671 239,296.5 L239,362.5 C239,363.329 238.334653,364 237.514851,364 L140.485149,364 C139.665347,364 139,363.329 139,362.5 L139,296.5 C139,295.671 139.665347,295 140.485149,295 L237.514851,295 Z M181.574257,327.0001 C186.488119,327.0001 190.485149,322.9621 190.485149,318.0001 C190.485149,313.0381 186.488119,309.0001 181.574257,309.0001 C176.660396,309.0001 172.663366,313.0381 172.663366,318.0001 C172.663366,322.9621 176.660396,327.0001 181.574257,327.0001 Z M181.574257,312.0001 C184.850495,312.0001 187.514851,314.6911 187.514851,318.0001 C187.514851,321.3091 184.850495,324.0001 181.574257,324.0001 C178.29802,324.0001 175.633663,321.3091 175.633663,318.0001 C175.633663,314.6911 178.29802,312.0001 181.574257,312.0001 Z" id="Icon" fill="#3FA2F7" mask="url(#mask-2)"></path>
                        </g>
                    </g>
                </g>
            </g>
        </g>
    </g>
</svg>
