<?xml version="1.0" encoding="UTF-8"?>
<svg width="890px" height="514px" viewBox="0 0 890 514" version="1.1" xmlns="http://www.w3.org/2000/svg" xmlns:xlink="http://www.w3.org/1999/xlink">
    <!-- Generator: Sketch 45.1 (43504) - http://www.bohemiancoding.com/sketch -->
    <title>MacBook Retina</title>
    <desc>Created with Sketch.</desc>
    <defs>
        <path d="M104.172414,0 C90.2698994,0 79,11.2490299 79,25.1257996 L79,474.249467 C79,483.499949 86.5139655,491 95.7816092,491 L792.218391,491 C801.487083,491 809,483.499949 809,474.249467 L809,25.1257996 C809,11.2490299 797.730101,0 783.827586,0 L104.172414,0 Z" id="path-1"></path>
        <path d="M890,488 L447.739666,488 L0,488 L0,503.016 L0,503.126 C1.0322017,503.102 20.019912,514 34.5531867,514 L447.478745,514 L855.689991,514 C870.120985,514 888.973017,503.102 889.959296,503.102 C889.986432,503.102 890,503.016 890,503.016 L890,488 Z" id="path-2"></path>
        <polygon id="path-3" points="0 418 679 418 679 0 0 0"></polygon>
    </defs>
    <g id="Components" stroke="none" stroke-width="1" fill="none" fill-rule="evenodd">
        <g id="Sliders" transform="translate(-275.000000, -7395.000000)">
            <g id="Sliders-#10" transform="translate(0.000000, 7097.000000)">
                <g id="Images-/-Macbook-/-Macbook-890px" transform="translate(275.000000, 298.000000)">
                    <g id="Macbook">
                        <g id="Shape">
                            <use fill="#E4F1FD" fill-rule="evenodd" xlink:href="#path-1"></use>
                            <path stroke="#3FA2F7" stroke-width="3" d="M104.172414,1.5 C91.0977048,1.5 80.5,12.07808 80.5,25.1257996 L80.5,474.249467 C80.5,482.670899 87.3417709,489.5 95.7816092,489.5 L792.218391,489.5 C800.658901,489.5 807.5,482.671275 807.5,474.249467 L807.5,25.1257996 C807.5,12.07808 796.902295,1.5 783.827586,1.5 L104.172414,1.5 Z"></path>
                        </g>
                        <polygon id="Shape" fill="#3FA2F7" points="106 452 789 452 789 30 106 30"></polygon>
                        <path d="M33.991494,512 C22.8339264,512 8.86843895,505.32 2.90500147,502.468 C2.05531862,502.062 1.45093733,501.772 1,501.568 L1,489 L888,489 L888,501.57 C887.548019,501.775 886.947813,502.065 886.103349,502.472 C880.182709,505.323 866.320561,512 855.249632,512 L33.991494,512 Z" id="Shape"></path>
                        <g id="Shape">
                            <use fill="#E4F1FD" fill-rule="evenodd" xlink:href="#path-2"></use>
                            <path stroke="#3FA2F7" stroke-width="3" d="M888.5,489.5 L1.5,489.5 L1.5,502.081773 C1.59603809,502.125086 1.6994096,502.172176 1.81119306,502.223321 C2.11110785,502.360545 2.46154031,502.524757 2.97301519,502.767002 C3.10329819,502.828707 4.1102577,503.306745 4.43923672,503.462384 C7.53813068,504.928458 10.0170216,506.042088 12.8005465,507.173362 C17.4130142,509.04795 21.7753915,510.495963 25.8642086,511.416238 C29.0199963,512.126514 31.9297522,512.5 34.5531867,512.5 L855.689991,512.5 C858.288492,512.5 861.170297,512.128062 864.294736,511.420636 C868.36667,510.498681 872.712451,509.044346 877.297018,507.163271 C880.135628,505.998573 885.807093,503.325047 888.5,502.160837 L888.5,489.5 Z"></path>
                        </g>
                        <polygon id="Line" fill="#3FA2F7" fill-rule="nonzero" points="2 501 1 503 887 503 888 501"></polygon>
                        <path d="M491.254626,498 L389.744362,498 C384.361318,498 380,493.566756 380,488.100802 L380,488 L501,488 L501,488.100802 C501,493.566756 496.636657,498 491.254626,498" id="Shape" fill="#3FA2F7"></path>
                        <path d="M444,17.5 C444,19.4328052 442.433832,21 440.5,21 C438.566168,21 437,19.4328052 437,17.5 C437,15.5671948 438.566168,14 440.5,14 C442.433832,14 444,15.5671948 444,17.5" id="Oval" fill="#3FA2F7"></path>
                    </g>
                    <g id="Screen" transform="translate(108.000000, 32.000000)">
                        <mask id="mask-4" fill="white">
                            <use xlink:href="#path-3"></use>
                        </mask>
                        <use id="Mask" fill="#FFFFFF" xlink:href="#path-3"></use>
                        <path d="M384.029703,224.82 L357.930693,197.46 C357.371287,196.873 356.350495,196.873 355.791089,197.46 L332.960396,221.395 C332.391089,221.991 332.407921,222.94 332.99901,223.515 C333.590099,224.09 334.531683,224.074 335.09901,223.476 L356.861386,200.663 L383.455446,228.541 C383.620792,228.715 383.818812,228.834 384.029703,228.909 L384.029703,240 L343.074257,240 L309.842574,205.455 C309.282178,204.874 308.272277,204.874 307.711881,205.455 L289.970297,223.898 L289.970297,177 L384.029703,177 L384.029703,224.82 Z M289.970297,240 L289.970297,228.178 C289.993069,228.156 290.023762,228.149 290.045545,228.126 L308.777228,208.652 L338.931683,240 L289.970297,240 Z M385.514851,174 C386.334653,174 387,174.671 387,175.5 L387,241.5 C387,242.329 386.334653,243 385.514851,243 L288.485149,243 C287.665347,243 287,242.329 287,241.5 L287,175.5 C287,174.671 287.665347,174 288.485149,174 L385.514851,174 Z M329.574257,206.0001 C334.488119,206.0001 338.485149,201.9621 338.485149,197.0001 C338.485149,192.0381 334.488119,188.0001 329.574257,188.0001 C324.660396,188.0001 320.663366,192.0381 320.663366,197.0001 C320.663366,201.9621 324.660396,206.0001 329.574257,206.0001 Z M329.574257,191.0001 C332.850495,191.0001 335.514851,193.6911 335.514851,197.0001 C335.514851,200.3091 332.850495,203.0001 329.574257,203.0001 C326.29802,203.0001 323.633663,200.3091 323.633663,197.0001 C323.633663,193.6911 326.29802,191.0001 329.574257,191.0001 Z" id="Icon" fill="#3FA2F7" mask="url(#mask-4)"></path>
                    </g>
                </g>
            </g>
        </g>
    </g>
</svg>