<?xml version="1.0" encoding="UTF-8"?>
<svg width="723px" height="439px" viewBox="0 0 723 439" version="1.1" xmlns="http://www.w3.org/2000/svg" xmlns:xlink="http://www.w3.org/1999/xlink">
    <!-- Generator: Sketch 45.1 (43504) - http://www.bohemiancoding.com/sketch -->
    <title>MacBook</title>
    <desc>Created with Sketch.</desc>
    <defs></defs>
    <g id="Components" stroke="none" stroke-width="1" fill="none" fill-rule="evenodd">
        <g id="Contents" transform="translate(-567.000000, -4944.000000)">
            <g id="Contents-#10" transform="translate(0.000000, 4814.000000)">
                <g id="Image">
                    <g id="MacBook" transform="translate(568.000000, 130.000000)">
                        <path d="M87.3448276,1 C76.6712231,1 68,10.0731497 68,21.2878465 L68,401.808102 C68,409.103174 73.6356053,415 80.5632184,415 L643.436782,415 C650.36494,415 656,409.10349 656,401.808102 L656,21.2878465 C656,10.0731497 647.328777,1 636.655172,1 L87.3448276,1 Z" id="Fill" stroke="#3FA2F7" stroke-width="2"></path>
                        <polygon id="Fill" fill="#3FA2F7" points="84 389 637 389 637 30 84 30"></polygon>
                        <polygon id="Path" fill="#E4F1FD" points="84.8507692 388.111386 636.149231 388.111386 636.149231 30.8886139 84.8507692 30.8886139"></polygon>
                        <path d="M721,415 L3,415 L3,427.986006 C5.14575315,429.050921 10.0226427,431.755341 12.3335749,432.871649 C16.0698119,434.676458 19.6036509,436.070642 22.915825,436.95669 C25.4719253,437.640478 27.8285115,438 29.9531398,438 L694.243588,438 C696.348062,438 698.682061,437.641961 701.212834,436.960899 C704.511439,436.073205 708.031958,434.672885 711.745733,432.861763 C714.130046,431.698989 718.930108,429.004323 721,427.952599 L721,415 Z" id="Fill" stroke="#3FA2F7" stroke-width="2"></path>
                        <path d="M720,427 L0,427" id="Line" stroke="#3FA2F7" stroke-linecap="square"></path>
                        <path d="M318.972659,424 C314.568351,424 311,419.566756 311,414.100802 L311,414 L410,414 L410,414.100802 C410,419.566756 406.429992,424 402.026512,424 L318.972659,424 Z" id="Fill" fill="#3FA2F7"></path>
                        <path d="M365,18.5 C365,20.4328052 363.433832,22 361.5,22 C359.566168,22 358,20.4328052 358,18.5 C358,16.5671948 359.566168,15 361.5,15 C363.433832,15 365,16.5671948 365,18.5" id="Fill" fill="#3FA2F7"></path>
                        <path d="M409.029703,224.82 L382.930693,197.46 C382.371287,196.873 381.350495,196.873 380.791089,197.46 L357.960396,221.395 C357.391089,221.991 357.407921,222.94 357.99901,223.515 C358.590099,224.09 359.531683,224.074 360.09901,223.476 L381.861386,200.663 L408.455446,228.541 C408.620792,228.715 408.818812,228.834 409.029703,228.909 L409.029703,240 L368.074257,240 L334.842574,205.455 C334.282178,204.874 333.272277,204.874 332.711881,205.455 L314.970297,223.898 L314.970297,177 L409.029703,177 L409.029703,224.82 Z M314.970297,240 L314.970297,228.178 C314.993069,228.156 315.023762,228.149 315.045545,228.126 L333.777228,208.652 L363.931683,240 L314.970297,240 Z M410.514851,174 C411.334653,174 412,174.671 412,175.5 L412,241.5 C412,242.329 411.334653,243 410.514851,243 L313.485149,243 C312.665347,243 312,242.329 312,241.5 L312,175.5 C312,174.671 312.665347,174 313.485149,174 L410.514851,174 Z M354.574257,206.0001 C359.488119,206.0001 363.485149,201.9621 363.485149,197.0001 C363.485149,192.0381 359.488119,188.0001 354.574257,188.0001 C349.660396,188.0001 345.663366,192.0381 345.663366,197.0001 C345.663366,201.9621 349.660396,206.0001 354.574257,206.0001 Z M354.574257,191.0001 C357.850495,191.0001 360.514851,193.6911 360.514851,197.0001 C360.514851,200.3091 357.850495,203.0001 354.574257,203.0001 C351.29802,203.0001 348.633663,200.3091 348.633663,197.0001 C348.633663,193.6911 351.29802,191.0001 354.574257,191.0001 Z" id="Icon" fill="#3FA2F7"></path>
                    </g>
                </g>
            </g>
        </g>
    </g>
</svg>