<?xml version="1.0" encoding="UTF-8"?>
<svg width="90px" height="90px" viewBox="0 0 90 90" version="1.1" xmlns="http://www.w3.org/2000/svg" xmlns:xlink="http://www.w3.org/1999/xlink">
    <!-- Generator: Sketch 46.2 (44496) - http://www.bohemiancoding.com/sketch -->
    <title>Icon</title>
    <desc>Created with Sketch.</desc>
    <defs></defs>
    <g id="Components" stroke="none" stroke-width="1" fill="none" fill-rule="evenodd">
        <g id="Features" transform="translate(-1063.000000, -16456.000000)" fill="#3FA2F7">
            <g id="Features-#22" transform="translate(0.000000, 16238.000000)">
                <path d="M1108,218 C1132.81326,218 1153,238.186744 1153,262.999199 C1153,287.811655 1132.81326,307.998399 1108,307.998399 C1083.18674,307.998399 1063,287.811655 1063,262.999199 C1063,238.186744 1083.18674,218 1108,218 Z M1108,305.275979 C1131.31192,305.275979 1150.27758,286.31032 1150.27758,262.999199 C1150.27758,239.688078 1131.31192,220.72242 1108,220.72242 C1084.68808,220.72242 1065.72242,239.688078 1065.72242,262.999199 C1065.72242,286.31032 1084.68808,305.275979 1108,305.275979 Z M1132.09133,246.19218 C1132.619,245.655703 1133.47977,245.647696 1134.01625,246.175365 C1134.55272,246.703034 1134.55993,247.5646 1134.03226,248.100276 L1100.47843,282.236219 C1100.47523,282.238621 1100.47203,282.240222 1100.46883,282.243425 C1100.46642,282.245827 1100.46482,282.249831 1100.46162,282.252233 C1100.42559,282.288265 1100.38475,282.315489 1100.34552,282.345916 C1100.31509,282.369938 1100.28786,282.397162 1100.25584,282.41798 C1100.20859,282.450009 1100.15655,282.47323 1100.1061,282.498052 C1100.07728,282.512464 1100.05005,282.530881 1100.01963,282.542891 C1099.96198,282.566112 1099.90272,282.580525 1099.84267,282.595738 C1099.81705,282.602144 1099.79302,282.613354 1099.7674,282.618158 C1099.68173,282.634973 1099.59445,282.64298 1099.50717,282.64298 C1099.41989,282.64298 1099.33342,282.634973 1099.24694,282.618158 C1099.22132,282.613354 1099.1973,282.602144 1099.17167,282.595738 C1099.11242,282.580525 1099.05237,282.566112 1098.99472,282.542891 C1098.96509,282.530881 1098.93786,282.512464 1098.90824,282.498052 C1098.85779,282.47323 1098.80655,282.450009 1098.75851,282.41798 C1098.72728,282.397162 1098.69925,282.369938 1098.66883,282.345916 C1098.63039,282.315489 1098.58956,282.288265 1098.55272,282.252233 C1098.55032,282.249831 1098.54792,282.245827 1098.54552,282.243425 C1098.54231,282.240222 1098.53911,282.238621 1098.53671,282.236219 L1080.36536,263.750187 C1079.83849,263.214511 1079.84569,262.352144 1080.38217,261.825276 C1080.91865,261.297607 1081.78021,261.306415 1082.30708,261.842091 L1099.50717,279.340044 L1132.09133,246.19218 Z" id="Icon"></path>
            </g>
        </g>
    </g>
</svg>