
<svg width="54px" height="54px" viewBox="0 0 54 54" version="1.1" xmlns="http://www.w3.org/2000/svg" xmlns:xlink="http://www.w3.org/1999/xlink">
    <!-- Generator: Sketch 46.2 (44496) - http://www.bohemiancoding.com/sketch -->
    <desc>Created with Sketch.</desc>
    <defs></defs>
    <g id="Components" stroke="none" stroke-width="1" fill="none" fill-rule="evenodd">
        <g id="Features" transform="translate(-570.000000, -3683.000000)" fill="#3FA2F7">
            <g id="Features-#6" transform="translate(0.000000, 3065.000000)">
                <g id="#2" transform="translate(570.000000, 618.000000)">
                    <g id="Icons-/-Icons-/-Icon-Feature-54px">
                        <path d="M27,0 C41.888,0 54,12.113 54,27 C54,41.888 41.888,54 27,54 C12.112,54 0,41.888 0,27 C0,12.113 12.112,0 27,0 Z M27,51.6 C40.564,51.6 51.6,40.565 51.6,27 C51.6,13.436 40.564,2.401 27,2.401 C13.436,2.401 2.4,13.436 2.4,27 C2.4,40.565 13.436,51.6 27,51.6 Z M41.9521,16.351 C42.4231,15.883 43.1821,15.885 43.6491,16.353 C44.1171,16.823 44.1161,17.582 43.6471,18.05 L23.1481,38.492 C23.0661,38.573 22.9681,38.622 22.8711,38.675 C22.8301,38.698 22.7961,38.736 22.7521,38.754 C22.6081,38.813 22.4541,38.842 22.3011,38.842 C22.1471,38.842 21.9941,38.813 21.8491,38.754 C21.8061,38.736 21.7711,38.698 21.7301,38.675 C21.6341,38.622 21.5351,38.573 21.4531,38.492 L10.3521,27.422 C9.8841,26.955 9.8831,26.195 10.3501,25.725 C10.8181,25.257 11.5781,25.256 12.0481,25.723 L22.3011,35.947 L41.9521,16.351 Z" id="Icon"></path>
                    </g>
                </g>
            </g>
        </g>
    </g>
</svg>
