
<svg width="70px" height="48px" viewBox="0 0 70 48" version="1.1" xmlns="http://www.w3.org/2000/svg" xmlns:xlink="http://www.w3.org/1999/xlink">
    <!-- Generator: Sketch 46.2 (44496) - http://www.bohemiancoding.com/sketch -->
    <desc>Created with Sketch.</desc>
    <defs></defs>
    <g id="Base" stroke="none" stroke-width="1" fill="none" fill-rule="evenodd">
        <g id="Icons-/-Icons-/-Icon-Image-70px" fill="#3FA2F7">
            <path d="M67.6,34.898 L49.148,16.354 C48.922,16.128 48.617,16 48.297,16 C47.978,16 47.672,16.128 47.447,16.354 L31.35,32.531 C30.882,33 30.884,33.76 31.354,34.227 C31.825,34.695 32.584,34.694 33.051,34.223 L48.297,18.902 L66.95,37.646 C67.132,37.83 67.363,37.921 67.6,37.961 L67.6,45.6 L39.296,45.6 L15.969,22.35 C15.502,21.884 14.743,21.884 14.276,22.35 L2.401,34.187 L2.401,2.401 L67.6,2.401 L67.6,34.898 Z M2.401,45.6 L2.401,37.575 L15.122,24.895 L35.896,45.6 L2.401,45.6 Z M29.0004,23.0008 C25.4164,23.0008 22.5004,20.0848 22.5004,16.5008 C22.5004,12.9168 25.4164,10.0008 29.0004,10.0008 C32.5844,10.0008 35.5004,12.9168 35.5004,16.5008 C35.5004,20.0848 32.5844,23.0008 29.0004,23.0008 Z M29.0004,12.4008 C26.7394,12.4008 24.9004,14.2398 24.9004,16.5008 C24.9004,18.7608 26.7394,20.5998 29.0004,20.5998 C31.2614,20.5998 33.1004,18.7608 33.1004,16.5008 C33.1004,14.2398 31.2614,12.4008 29.0004,12.4008 Z M68.8,-2.84217094e-14 L1.201,-2.84217094e-14 C0.537,-2.84217094e-14 0,0.538 0,1.201 L0,46.8 C0,47.463 0.537,48 1.201,48 L68.8,48 C69.463,48 70,47.463 70,46.8 L70,1.201 C70,0.538 69.463,-2.84217094e-14 68.8,-2.84217094e-14 L68.8,-2.84217094e-14 Z" id="Icon"></path>
        </g>
    </g>
</svg>
