
<svg width="202px" height="140px" viewBox="0 0 202 140" version="1.1" xmlns="http://www.w3.org/2000/svg" xmlns:xlink="http://www.w3.org/1999/xlink">
    <!-- Generator: Sketch 46.2 (44496) - http://www.bohemiancoding.com/sketch -->
    <desc>Created with Sketch.</desc>
    <defs></defs>
    <g id="Base" stroke="none" stroke-width="1" fill="none" fill-rule="evenodd">
        <g id="Icons-/-Icons-/-Icon-Image-200px" fill="#3FA2F7">
            <path d="M113.477,136 L44.495,65.335 C43.742,64.563 42.386,64.563 41.633,65.335 L4,103.887 L4,4 L198,4 L198,105.131 L143.159,48.951 C142.406,48.18 141.049,48.18 140.297,48.951 L92.927,97.477 C92.155,98.267 92.171,99.533 92.961,100.305 C93.751,101.076 95.017,101.062 95.789,100.271 L141.728,53.211 L197.692,110.541 C197.787,110.639 197.891,110.724 198,110.798 L198,136 L113.477,136 L113.477,136 Z M4,109.613 L43.064,69.595 L107.887,136 L4,136 L4,109.613 L4,109.613 Z M200,0 C201.104,0 202,0.896 202,2 L202,138 C202,139.104 201.104,140 200,140 L2,140 C0.895,140 0,139.104 0,138 L0,2 C0,0.896 0.895,0 2,0 L200,0 Z M101.649,46.0167 C101.649,36.2997 93.91,28.3947 84.399,28.3947 C74.888,28.3947 67.149,36.2997 67.149,46.0167 C67.149,55.7337 74.888,63.6387 84.399,63.6387 C93.91,63.6387 101.649,55.7337 101.649,46.0167 Z M84.399,59.6387 C77.093,59.6387 71.149,53.5277 71.149,46.0167 C71.149,38.5057 77.093,32.3947 84.399,32.3947 C91.705,32.3947 97.649,38.5057 97.649,46.0167 C97.649,53.5277 91.705,59.6387 84.399,59.6387 Z" id="Icon"></path>
        </g>
    </g>
</svg>
