
<svg width="141px" height="98px" viewBox="0 0 141 98" version="1.1" xmlns="http://www.w3.org/2000/svg" xmlns:xlink="http://www.w3.org/1999/xlink">
    <!-- Generator: Sketch 46.2 (44496) - http://www.bohemiancoding.com/sketch -->
    <desc>Created with Sketch.</desc>
    <defs></defs>
    <g id="Base" stroke="none" stroke-width="1" fill="none" fill-rule="evenodd">
        <g id="Icons-/-Icons-/-Icon-Image-140px" fill="#3FA2F7">
            <path d="M137.599,71.6560234 L100.2408,33.5126938 C99.6008,32.8596471 98.4518,32.8596471 97.8118,33.5126938 L64.9858,67.0290878 C64.3288,67.6991357 64.3398,68.7762126 65.0108,69.4332595 C65.6808,70.0903065 66.7578,70.0783056 67.4148,69.4082577 L99.0268,37.1329524 L137.5848,76.5017644 C137.589512,76.5065754 137.594245,76.5113526 137.599,76.5160959 L137.599,94.5997571 L79.3466397,94.5997571 C79.2678374,94.4273937 79.1586029,94.2653781 79.0188,94.121723 L30.7818,44.5181799 C30.1418,43.8601329 28.9858,43.8601329 28.3448,44.5181799 L3.4,69.6868382 L3.4,3.40124295 L137.599,3.40124295 L137.599,71.6560234 Z M3.4,74.5181067 L29.5638,48.1424387 L74.7408098,94.5997571 L3.4,94.5997571 L3.4,74.5181067 Z M58.5,44.0035431 C65.393,44.0035431 71,38.3951425 71,31.5026502 C71,24.6091578 65.393,19.0017573 58.5,19.0017573 C51.607,19.0017573 46,24.6091578 46,31.5026502 C46,38.3951425 51.607,44.0035431 58.5,44.0035431 Z M58.5,22.4020001 C63.518,22.4020001 67.6,26.4842917 67.6,31.5026502 C67.6,36.5200086 63.518,40.6023002 58.5,40.6023002 C53.482,40.6023002 49.4,36.5200086 49.4,31.5026502 C49.4,26.4842917 53.482,22.4020001 58.5,22.4020001 Z M139.3,98 L1.7,98 C0.761,98 0,97.2389456 0,96.2998786 L0,1.70012144 C0,0.761054361 0.761,-5.68434189e-14 1.7,-5.68434189e-14 L139.3,-5.68434189e-14 C140.238,-5.68434189e-14 141,0.761054361 141,1.70012144 L141,96.2998786 C141,97.2389456 140.238,98 139.3,98 L139.3,98 Z" id="Icon"></path>
        </g>
    </g>
</svg>
