<?xml version="1.0" encoding="UTF-8"?>
<svg width="54px" height="54px" viewBox="0 0 54 54" version="1.1" xmlns="http://www.w3.org/2000/svg" xmlns:xlink="http://www.w3.org/1999/xlink">
    <!-- Generator: Sketch 45.1 (43504) - http://www.bohemiancoding.com/sketch -->
    <title>Icon</title>
    <desc>Created with Sketch.</desc>
    <defs></defs>
    <g id="Components" stroke="none" stroke-width="1" fill="none" fill-rule="evenodd">
        <g id="Headers" transform="translate(-735.000000, -9430.000000)" fill="#3FA2F7">
            <g id="Header-#12" transform="translate(0.000000, 9211.000000)">
                <g id="Icons-/-Icons-/-Icon-Star-54px" transform="translate(735.000000, 219.000000)">
                    <path d="M27,0 C41.888,0 54,12.113 54,27 C54,41.888 41.888,54 27,54 C12.112,54 0,41.888 0,27 C0,12.113 12.112,0 27,0 Z M27,51.6 C40.564,51.6 51.6,40.565 51.6,27 C51.6,13.436 40.564,2.401 27,2.401 C13.436,2.401 2.4,13.436 2.4,27 C2.4,40.565 13.436,51.6 27,51.6 Z M39.4961,21.6488 C39.9401,21.7218 40.3071,22.0388 40.4431,22.4678 C40.5801,22.8978 40.4651,23.3678 40.1441,23.6848 L34.6591,29.1208 L35.7881,36.6218 C35.8541,37.0608 35.6731,37.5008 35.3151,37.7638 C34.9601,38.0298 34.4861,38.0748 34.0851,37.8828 L27.0001,34.5038 L19.9151,37.8828 C19.7511,37.9608 19.5741,38.0008 19.3981,38.0008 C19.1421,38.0008 18.8861,37.9178 18.6741,37.7558 C18.3151,37.4848 18.1401,37.0378 18.2161,36.5948 L19.0031,32.0568 C19.1161,31.4048 19.7331,30.9678 20.3911,31.0798 C21.0441,31.1928 21.4811,31.8138 21.3681,32.4668 L20.9771,34.7178 L26.4831,32.0918 C26.8091,31.9358 27.1901,31.9358 27.5171,32.0918 L33.0791,34.7448 L32.1951,28.8758 C32.1391,28.4968 32.2661,28.1138 32.5371,27.8438 L36.7871,23.6328 L30.7481,22.6328 C30.3841,22.5728 30.0671,22.3478 29.8911,22.0228 L27.0001,16.7118 L24.1091,22.0228 C23.9331,22.3478 23.6161,22.5728 23.2521,22.6328 L17.2131,23.6328 L21.4631,27.8438 C21.9341,28.3108 21.9371,29.0708 21.4711,29.5418 C21.0041,30.0118 20.2441,30.0138 19.7731,29.5488 L13.8551,23.6848 C13.5351,23.3678 13.4201,22.8978 13.5571,22.4678 C13.6931,22.0388 14.0591,21.7218 14.5041,21.6488 L22.2811,20.3618 L25.9461,13.6278 C26.1561,13.2408 26.5601,13.0008 27.0001,13.0008 C27.4391,13.0008 27.8441,13.2408 28.0541,13.6278 L31.7191,20.3618 L39.4961,21.6488 Z" id="Icon"></path>
                </g>
            </g>
        </g>
    </g>
</svg>