
<svg width="50px" height="50px" viewBox="0 0 50 50" version="1.1" xmlns="http://www.w3.org/2000/svg" xmlns:xlink="http://www.w3.org/1999/xlink">
    <!-- Generator: Sketch 46.2 (44496) - http://www.bohemiancoding.com/sketch -->
    <desc>Created with Sketch.</desc>
    <defs>
        <circle id="path-1" cx="25" cy="25" r="25"></circle>
    </defs>
    <g id="Base" stroke="none" stroke-width="1" fill="none" fill-rule="evenodd">
        <g id="Images-/-Userpic-Frame-/-Userpic-Frame-50px">
            <mask id="mask-2" fill="white">
                <use xlink:href="#path-1"></use>
            </mask>
            <use id="Background" fill="#E4F1FD" xlink:href="#path-1"></use>
            <path d="M24.9650909,39.2018953 C22.42,39.2018953 20.2218182,37.8707667 19.6992727,36.1567717 L20.7421818,36.1567717 C21.1643636,36.1567717 21.5058182,35.8072948 21.5058182,35.3765701 L21.5058182,32.1288835 C22.5618182,32.6530989 23.7465455,32.9491525 25,32.9491525 C26.2534545,32.9491525 27.4381818,32.6530989 28.4941818,32.1299965 L28.4941818,35.3765701 C28.4941818,35.8072948 28.8367273,36.1567717 29.2589091,36.1567717 L30.232,36.1567717 C29.7083636,37.8707667 27.5101818,39.2018953 24.9650909,39.2018953 M18.58,25.4008967 L18.0956364,20.5093332 C18.0661818,20.2411041 18.0465455,19.969536 18.0465455,19.6924031 C18.0465455,15.7591185 21.1665455,12.5592902 25,12.5592902 C28.8345455,12.5592902 31.9534545,15.7591185 31.9534545,19.6924031 C31.9534545,19.969536 31.9349091,20.2411041 31.9010909,20.5605304 L31.4189091,25.4053487 C31.1047273,28.8177569 28.3458182,31.3898623 25,31.3898623 C21.6552727,31.3898623 18.8963636,28.8177569 18.58,25.4008967 M32.6341818,34.5974815 L30.0225455,34.5974815 L30.0225455,31.1327631 C31.6327273,29.7982955 32.7290909,27.8305403 32.9396364,25.5567145 L33.4218182,20.6851846 C33.4578182,20.3579674 33.4818182,20.0274112 33.4818182,19.6924031 C33.4818182,14.8998951 29.6767273,11 25,11 C20.3232727,11 16.5192727,14.8998951 16.5192727,19.6924031 C16.5192727,20.0274112 16.5421818,20.3579674 16.5792727,20.7174611 L17.0603636,25.5511496 C17.2709091,27.8283143 18.3672727,29.7971826 19.9785455,31.1327631 L19.9785455,34.5974815 L17.3658182,34.5974815 C11.6505455,34.5974815 7,39.3643909 7,45.2209114 C7,45.6516361 7.34254545,46 7.76363636,46 C8.18581818,46 8.52836364,45.6516361 8.52836364,45.2209114 C8.52836364,40.2225014 12.4916364,36.1567717 17.3658182,36.1567717 L18.1316364,36.1567717 C18.6192727,38.7555888 21.4938182,40.7600725 24.9661818,40.7600725 C28.4374545,40.7600725 31.312,38.7555888 31.7996364,36.1567717 L32.6341818,36.1567717 C37.5083636,36.1567717 41.4727273,40.2225014 41.4727273,45.2209114 C41.4727273,45.6516361 41.8141818,46 42.2363636,46 C42.6585455,46 43,45.6516361 43,45.2209114 C43,39.3643909 38.3505455,34.5974815 32.6341818,34.5974815" id="Icon" fill="#3FA2F7" mask="url(#mask-2)"></path>
        </g>
    </g>
</svg>
