
<svg width="87px" height="85px" viewBox="0 0 87 85" version="1.1" xmlns="http://www.w3.org/2000/svg" xmlns:xlink="http://www.w3.org/1999/xlink">
    <!-- Generator: Sketch 46.2 (44496) - http://www.bohemiancoding.com/sketch -->
    <desc>Created with Sketch.</desc>
    <defs></defs>
    <g id="Components" stroke="none" stroke-width="1" fill="none" fill-rule="evenodd">
        <g id="Team" transform="translate(-150.000000, -5437.000000)" fill="#3FA2F7">
            <g id="Team-#6" transform="translate(0.000000, 4710.000000)">
                <g id="Switcher" transform="translate(0.000000, 691.000000)">
                    <g id="Icons-/-Icons-/-User-Icon-87px" transform="translate(150.000000, 36.000000)">
                        <path d="M43.4151022,69.1366864 C36.6980716,69.1366864 31.1312035,65.5425444 30.1265799,60.8660355 L33.1273118,60.8660355 C33.9641612,60.8660355 34.6433434,60.1900592 34.6433434,59.3571598 L34.6433434,50.7786982 C37.2933666,52.1980473 40.3031947,53.0047929 43.5,53.0047929 C46.6968053,53.0047929 49.7066334,52.1980473 52.3566566,50.7786982 L52.3566566,59.3571598 C52.3566566,60.1900592 53.0358388,60.8660355 53.8726882,60.8660355 L56.7046352,60.8660355 C55.7000116,65.5425444 50.1321329,69.1366864 43.4151022,69.1366864 M27.5220376,34.9435503 L26.3496399,23.0787574 L24.8406831,23.2256213 L26.3405437,22.9590533 C26.2576673,22.2136686 26.2172398,21.541716 26.2172398,20.9059763 C26.2172398,11.0419527 33.9702254,3.01775148 43.5,3.01775148 C53.0297746,3.01775148 60.7827602,11.0419527 60.7827602,20.9059763 C60.7827602,21.541716 60.7423327,22.2136686 60.6594563,22.9590533 C60.6564243,22.9842012 60.6523815,23.0526036 60.6503601,23.0787574 L59.4769517,34.9546154 C58.6916473,43.5240237 51.8230135,49.9870414 43.5,49.9870414 C35.1769865,49.9870414 28.3083527,43.5240237 27.5220376,34.9435503 M62.0956436,57.848284 L55.3887198,57.848284 L55.3887198,48.7497633 C59.3152416,45.5418935 61.9895214,40.7657988 62.4958759,35.238284 L63.6713058,23.3402959 L63.6733271,23.2910059 C63.7683318,22.4329586 63.8148234,21.6533728 63.8148234,20.9059763 C63.8148234,9.37816568 54.7014521,0 43.5,0 C32.2985479,0 23.1851766,9.37816568 23.1851766,20.9059763 C23.1851766,21.6533728 23.2316682,22.4329586 23.3206087,23.2155621 L24.5031134,35.2272189 C25.0104786,40.7607692 27.6847584,45.5398817 31.6112802,48.7487574 L31.6112802,57.848284 L24.9043564,57.848284 C11.1721422,57.848284 0,69.3519527 0,83.4911243 C0,84.3240237 0.679182156,85 1.5160316,85 C2.35288104,85 3.0320632,84.3240237 3.0320632,83.4911243 C3.0320632,71.0157396 12.8438197,60.8660355 24.9043564,60.8660355 L27.0429717,60.8660355 C28.0091891,67.2123669 34.9768704,72.1544379 43.4151022,72.1544379 C51.8533341,72.1544379 58.8210153,67.2123669 59.7882435,60.8660355 L62.0956436,60.8660355 C74.1561803,60.8660355 83.9679368,71.0157396 83.9679368,83.4911243 C83.9679368,84.3240237 84.647119,85 85.4839684,85 C86.3208178,85 87,84.3240237 87,83.4911243 C87,69.3519527 75.8278578,57.848284 62.0956436,57.848284" id="Icon"></path>
                    </g>
                </g>
            </g>
        </g>
    </g>
</svg>
