
<svg width="50px" height="50px" viewBox="0 0 50 50" version="1.1" xmlns="http://www.w3.org/2000/svg" xmlns:xlink="http://www.w3.org/1999/xlink">
    <!-- Generator: Sketch 46.2 (44496) - http://www.bohemiancoding.com/sketch -->
    <desc>Created with Sketch.</desc>
    <defs>
        <circle id="path-1" cx="25" cy="25" r="25"></circle>
    </defs>
    <g id="Components" stroke="none" stroke-width="1" fill="none" fill-rule="evenodd">
        <g id="Blog" transform="translate(-795.000000, -3035.000000)">
            <g id="Blog-#4" transform="translate(0.000000, 2371.000000)">
                <g id="#2" transform="translate(735.000000, 218.000000)">
                    <g id="Media-Two" transform="translate(60.000000, 446.000000)">
                        <g id="Userpic">
                            <mask id="mask-2" fill="white">
                                <use xlink:href="#path-1"></use>
                            </mask>
                            <use id="Background" fill="#FFFFFF" xlink:href="#path-1"></use>
                            <path d="M24.9650909,39.3396084 C22.42,39.3396084 20.2218182,38.0019798 19.6992727,36.2796152 L20.7421818,36.2796152 C21.1643636,36.2796152 21.5058182,35.9284317 21.5058182,35.4956037 L21.5058182,32.2320583 C22.5618182,32.7588335 23.7465455,33.0563328 25,33.0563328 C26.2534545,33.0563328 27.4381818,32.7588335 28.4941818,32.2331767 L28.4941818,35.4956037 C28.4941818,35.9284317 28.8367273,36.2796152 29.2589091,36.2796152 L30.232,36.2796152 C29.7083636,38.0019798 27.5101818,39.3396084 24.9650909,39.3396084 M18.58,25.471218 L18.0956364,20.5557683 C18.0661818,20.2862295 18.0465455,20.0133353 18.0465455,19.7348491 C18.0465455,15.7823578 21.1665455,12.5669044 25,12.5669044 C28.8345455,12.5669044 31.9534545,15.7823578 31.9534545,19.7348491 C31.9534545,20.0133353 31.9349091,20.2862295 31.9010909,20.6072156 L31.4189091,25.4756917 C31.1047273,28.9047631 28.3458182,31.4894284 25,31.4894284 C21.6552727,31.4894284 18.8963636,28.9047631 18.58,25.471218 M32.6341818,34.7127107 L30.0225455,34.7127107 L30.0225455,31.2310737 C31.6327273,29.8900898 32.7290909,27.9127258 32.9396364,25.6277966 L33.4218182,20.7324785 C33.4578182,20.4036634 33.4818182,20.0714931 33.4818182,19.7348491 C33.4818182,14.9189387 29.6767273,11 25,11 C20.3232727,11 16.5192727,14.9189387 16.5192727,19.7348491 C16.5192727,20.0714931 16.5421818,20.4036634 16.5792727,20.7649126 L17.0603636,25.6222045 C17.2709091,27.9104889 18.3672727,29.8889714 19.9785455,31.2310737 L19.9785455,34.7127107 L17.3658182,34.7127107 C11.6505455,34.7127107 7,39.5028975 7,45.3880161 C7,45.8208441 7.34254545,46.1709091 7.76363636,46.1709091 C8.18581818,46.1709091 8.52836364,45.8208441 8.52836364,45.3880161 C8.52836364,40.3651982 12.4916364,36.2796152 17.3658182,36.2796152 L18.1316364,36.2796152 C18.6192727,38.8911226 21.4938182,40.9053944 24.9661818,40.9053944 C28.4374545,40.9053944 31.312,38.8911226 31.7996364,36.2796152 L32.6341818,36.2796152 C37.5083636,36.2796152 41.4727273,40.3651982 41.4727273,45.3880161 C41.4727273,45.8208441 41.8141818,46.1709091 42.2363636,46.1709091 C42.6585455,46.1709091 43,45.8208441 43,45.3880161 C43,39.5028975 38.3505455,34.7127107 32.6341818,34.7127107" id="Icon" fill="#3FA2F7" mask="url(#mask-2)"></path>
                        </g>
                    </g>
                </g>
            </g>
        </g>
    </g>
</svg>
