
<svg width="90px" height="90px" viewBox="0 0 90 90" version="1.1" xmlns="http://www.w3.org/2000/svg" xmlns:xlink="http://www.w3.org/1999/xlink">
    <!-- Generator: Sketch 46.2 (44496) - http://www.bohemiancoding.com/sketch -->
    <desc>Created with Sketch.</desc>
    <defs>
        <circle id="path-1" cx="45" cy="45" r="45"></circle>
    </defs>
    <g id="Base" stroke="none" stroke-width="1" fill="none" fill-rule="evenodd">
        <g id="Images-/-Userpic-Frame-/-Userpic-Frame-90px">
            <mask id="mask-2" fill="white">
                <use xlink:href="#path-1"></use>
            </mask>
            <use id="Background" fill="#E4F1FD" xlink:href="#path-1"></use>
            <path d="M44.9412682,70.745263 C40.576202,70.745263 36.8183628,68.3664389 36.0200086,65.3333389 L37.8834987,65.3333389 C38.5434848,65.3333389 39.0780436,64.8001885 39.0780436,64.1419412 L39.0780436,58.4748595 C40.8618973,59.3912429 42.8727146,59.9045367 45,59.9045367 C47.1272854,59.9045367 49.1381027,59.3912429 50.9219564,58.4758523 L50.9219564,64.1419412 C50.9219564,64.8001885 51.4565152,65.3333389 52.1165013,65.3333389 L53.8635232,65.3333389 C53.0651691,68.3664389 49.3073299,70.745263 44.9412682,70.745263 M34.190364,47.2677784 L33.3890235,39.0937973 C33.388028,39.0818834 33.3820553,39.001464 33.3800644,38.9905429 C33.3243189,38.4802275 33.2974417,38.0215394 33.2974417,37.5876721 C33.2974417,30.8572679 38.5464711,25.3837882 45,25.3837882 C51.4525334,25.3837882 56.7015629,30.8572679 56.7015629,37.5876721 C56.7015629,38.0215394 56.6746856,38.4802275 56.6139629,39.0739407 L55.8076451,47.2757211 C55.2760726,53.1165483 50.6302883,57.5217413 45,57.5217413 C39.3697117,57.5217413 34.7239274,53.1165483 34.190364,47.2677784 M57.7587351,62.9495507 L53.3110462,62.9495507 L53.3110462,56.8833507 C56.004745,54.643523 57.837376,51.3314374 58.1867804,47.500101 L58.9930982,39.2496719 C59.0597936,38.6529802 59.0916481,38.1089086 59.0916481,37.5876721 C59.0916481,29.5437519 52.7695192,23 45,23 C37.2294854,23 30.9073564,29.5437519 30.9073564,37.5876721 C30.9073564,38.1089086 30.9402064,38.6529802 30.9999336,39.1881163 C31.0009291,39.2040016 31.0069018,39.2893851 31.0088927,39.3062633 L31.8122242,47.4911655 C32.1616286,51.3274661 33.995255,54.6425302 36.6889538,56.8833507 L36.6889538,62.9495507 L32.2402694,62.9495507 C22.7336828,62.9495507 15,70.9617003 15,80.8086023 C15,81.4668495 15.5345588,82 16.1945449,82 C16.854531,82 17.3890898,81.4668495 17.3890898,80.8086023 C17.3890898,72.2752162 24.0516641,65.3333389 32.2402694,65.3333389 L33.5811461,65.3333389 C34.3287321,69.7256251 39.1317981,73.1280584 44.9412682,73.1280584 C50.7507383,73.1280584 55.5538043,69.7256251 56.3023858,65.3333389 L57.7587351,65.3333389 C65.9483359,65.3333389 72.6109102,72.2752162 72.6109102,80.8086023 C72.6109102,81.4668495 73.145469,82 73.8054551,82 C74.4654412,82 75,81.4668495 75,80.8086023 C75,70.9617003 67.2663172,62.9495507 57.7587351,62.9495507" id="Icon" fill="#3FA2F7" mask="url(#mask-2)"></path>
        </g>
    </g>
</svg>
