<svg width="112px" height="109px" viewBox="0 0 112 109" version="1.1" xmlns="http://www.w3.org/2000/svg" xmlns:xlink="http://www.w3.org/1999/xlink">
    <!-- Generator: Sketch 46.2 (44496) - http://www.bohemiancoding.com/sketch -->
    <desc>Created with Sketch.</desc>
    <defs></defs>
    <g id="Base" stroke="none" stroke-width="1" fill="none" fill-rule="evenodd">
        <g id="Icons-/-Icons-/-User-Icon-112px" fill="#3FA2F7">
            <path d="M55.8897866,89.03853 C46.9509234,89.03853 39.5610874,84.1863789 38.4046012,77.9198967 L42.5876792,77.9198967 C43.5327971,77.9198967 44.2987553,77.1549315 44.2987553,76.2110389 L44.2987553,64.7657122 C47.776266,66.6997372 51.762067,67.7944114 55.9994967,67.7944114 C60.2369265,67.7944114 64.2227275,66.6997372 67.7002381,64.7667174 L67.7002381,76.2110389 C67.7002381,77.1549315 68.4661964,77.9198967 69.4113143,77.9198967 L73.3759784,77.9198967 C72.2194922,84.1863789 64.8286497,89.03853 55.8897866,89.03853 M35.0911525,44.7901692 L33.5783599,29.5632407 L33.5632622,29.3601881 C33.455565,28.3861392 33.4032262,27.5126112 33.4032262,26.6903491 C33.4032262,13.8578319 43.5398427,3.41771568 55.9994967,3.41771568 C68.4581442,3.41771568 78.5947607,13.8578319 78.5947607,26.6903491 C78.5947607,27.5186425 78.5424219,28.3921704 78.4286857,29.4436206 L76.9068344,44.803237 C75.8801887,55.9620787 66.8920063,64.3766957 55.9994967,64.3766957 C45.1069872,64.3766957 36.1177982,55.9620787 35.0911525,44.7901692 M80.0461559,74.502181 L71.1223905,74.502181 L71.1223905,62.4597593 C76.2042867,58.3665422 79.6606605,52.2277217 80.3128825,45.12792 L81.8337273,29.8054964 L81.8367468,29.7371421 C81.9585352,28.6414626 82.0169131,27.645299 82.0169131,26.6903491 C82.0169131,11.9730622 70.3453606,0 55.9994967,0 C41.6526264,0 29.9810739,11.9730622 29.9810739,26.6903491 C29.9810739,27.6392678 30.0404583,28.6354314 30.1552011,29.6537096 L31.684098,45.1158574 C32.338333,52.2226956 35.7947068,58.3645317 40.876603,62.4587541 L40.876603,74.502181 L31.9538441,74.502181 C14.3337857,74.502181 0,89.2114262 0,107.291142 C0,108.235035 0.765958212,109 1.71107616,109 C2.65619411,109 3.42215233,108.235035 3.42215233,107.291142 C3.42215233,91.0961959 16.221002,77.9198967 31.9538441,77.9198967 L34.9250775,77.9198967 C36.037277,86.0771799 45.0143878,92.4562457 55.8897866,92.4562457 C66.7661919,92.4562457 75.7422961,86.0771799 76.8544956,77.9198967 L80.0461559,77.9198967 C95.7779915,77.9198967 108.576841,91.0961959 108.576841,107.291142 C108.576841,108.235035 109.343806,109 110.287917,109 C111.233035,109 112,108.235035 112,107.291142 C112,89.2114262 97.6642013,74.502181 80.0461559,74.502181" id="Icon"></path>
        </g>
    </g>
</svg>
