
<svg width="157px" height="153px" viewBox="0 0 157 153" version="1.1" xmlns="http://www.w3.org/2000/svg" xmlns:xlink="http://www.w3.org/1999/xlink">
    <!-- Generator: Sketch 46.2 (44496) - http://www.bohemiancoding.com/sketch -->
    <desc>Created with Sketch.</desc>
    <defs></defs>
    <g id="Base" stroke="none" stroke-width="1" fill="none" fill-rule="evenodd">
        <g id="Icons-/-Icons-/-User-Icon-157px" fill="#3FA2F7">
            <path d="M78.309,125.634 C65.29,125.634 54.54,118.393 53.173,109.123 L59.573,109.123 C60.678,109.123 61.573,108.228 61.573,107.123 L61.573,90.269 C66.553,93.182 72.319,94.836 78.463,94.836 C84.607,94.836 90.374,93.182 95.354,90.27 L95.354,107.123 C95.354,108.228 96.249,109.123 97.354,109.123 L103.445,109.123 C102.078,118.393 91.329,125.634 78.309,125.634 M48.606,62.829 L46.475,41.32 L46.464,41.162 C46.462,41.129 46.459,41.095 46.455,41.062 C46.302,39.673 46.227,38.426 46.227,37.248 C46.227,18.915 60.688,4 78.463,4 C96.238,4 110.699,18.915 110.699,37.248 C110.699,38.43 110.624,39.678 110.471,41.061 C110.467,41.095 110.464,41.128 110.462,41.162 L108.319,62.844 C106.854,78.802 94.018,90.836 78.463,90.836 C62.908,90.836 50.073,78.802 48.606,62.829 M112.332,105.123 L99.354,105.123 L99.354,87.522 C106.512,81.814 111.385,73.199 112.301,63.224 L114.441,41.611 L114.452,41.458 C114.618,39.945 114.699,38.567 114.699,37.248 C114.699,16.709 98.444,0 78.463,0 C58.483,0 42.227,16.709 42.227,37.248 C42.227,38.563 42.309,39.943 42.476,41.464 L44.624,63.209 C45.541,73.195 50.416,81.815 57.576,87.524 C57.576,87.534 57.573,87.544 57.573,87.554 L57.573,105.123 L44.595,105.123 C20.005,105.123 0,125.693 0,150.977 C0,152.081 0.895,152.977 2,152.977 C3.104,152.977 4,152.081 4,150.977 C4,127.899 22.211,109.123 44.595,109.123 L49.145,109.123 C50.467,120.601 63.038,129.634 78.309,129.634 C93.58,129.634 106.151,120.601 107.473,109.123 L112.332,109.123 C134.716,109.123 152.927,127.899 152.927,150.977 C152.927,152.081 153.823,152.977 154.927,152.977 C156.032,152.977 156.927,152.081 156.927,150.977 C156.927,125.693 136.922,105.123 112.332,105.123" id="Icon"></path>
        </g>
    </g>
</svg>
