
<svg width="57px" height="90px" viewBox="0 0 57 90" version="1.1" xmlns="http://www.w3.org/2000/svg" xmlns:xlink="http://www.w3.org/1999/xlink">
    <!-- Generator: Sketch 46.2 (44496) - http://www.bohemiancoding.com/sketch -->
    <desc>Created with Sketch.</desc>
    <defs></defs>
    <g id="Base" stroke="none" stroke-width="1" fill="none" fill-rule="evenodd">
        <g id="Icons-/-Icons-/-Play-Icon-57px" fill="#3FA2F7">
            <path d="M3,4.6348 L3,85.3648 L53.109,44.9998 L3,4.6348 Z M1.5,89.9998 C1.279,89.9998 1.059,89.9518 0.853,89.8538 C0.332,89.6038 0,89.0768 0,88.4998 L0,1.4998 C0,0.9228 0.332,0.3968 0.853,0.1468 C1.373,-0.1002 1.99,-0.0302 2.441,0.3318 L56.441,43.8318 C56.795,44.1158 57,44.5458 57,44.9998 C57,45.4538 56.795,45.8838 56.441,46.1678 L2.441,89.6678 C2.169,89.8868 1.836,89.9998 1.5,89.9998 L1.5,89.9998 Z" id="Icon"></path>
        </g>
    </g>
</svg>
