<?xml version="1.0" encoding="UTF-8"?>
<svg width="944px" height="301px" viewBox="0 0 944 301" version="1.1" xmlns="http://www.w3.org/2000/svg" xmlns:xlink="http://www.w3.org/1999/xlink">
    <!-- Generator: Sketch 45.1 (43504) - http://www.bohemiancoding.com/sketch -->
    <title>Browser Frame</title>
    <desc>Created with Sketch.</desc>
    <defs>
        <path d="M0,3.99455252 C0,1.78842208 1.7948401,0 4.00362262,0 L939.996377,0 C942.207517,0 944,1.78460505 944,3.99455252 L944,652 L0,652 L0,3.99455252 Z" id="path-1"></path>
    </defs>
    <g id="Components" stroke="none" stroke-width="1" fill="none" fill-rule="evenodd">
        <g id="Headers" transform="translate(-248.000000, -1500.000000)">
            <g id="Header-#2" transform="translate(0.000000, 901.000000)">
                <g id="Image">
                    <g id="Browser-Frame" transform="translate(248.000000, 599.000000)">
                        <g id="Browser">
                            <g id="Rectangle">
                                <use fill="#E4F1FD" fill-rule="evenodd" xlink:href="#path-1"></use>
                                <path stroke="#3FA2F7" stroke-width="3" d="M1.5,650.5 L942.5,650.5 L942.5,3.99455252 C942.5,2.61533534 941.381394,1.5 939.996377,1.5 L4.00362262,1.5 C2.62155633,1.5 1.5,2.61856057 1.5,3.99455252 L1.5,650.5 Z"></path>
                            </g>
                            <rect id="Line" fill="#3FA2F7" x="0" y="29" width="944" height="2"></rect>
                            <g id="Circles" transform="translate(15.000000, 12.000000)" fill="#3FA2F7">
                                <path d="M32,8 C34.20914,8 36,6.209139 36,4 C36,1.790861 34.20914,0 32,0 C29.79086,0 28,1.790861 28,4 C28,6.209139 29.79086,8 32,8 Z" id="Oval"></path>
                                <path d="M18,8 C20.20914,8 22,6.209139 22,4 C22,1.790861 20.20914,0 18,0 C15.79086,0 14,1.790861 14,4 C14,6.209139 15.79086,8 18,8 Z" id="Oval"></path>
                                <path d="M4,8 C6.209139,8 8,6.209139 8,4 C8,1.790861 6.209139,0 4,0 C1.790861,0 0,1.790861 0,4 C0,6.209139 1.790861,8 4,8 Z" id="Oval"></path>
                            </g>
                        </g>
                        <g id="Screen" transform="translate(3.000000, 31.000000)">
                            <rect id="Rectangle" fill="#FFFFFF" x="0" y="0" width="938" height="621"></rect>
                            <g id="Icons-/-Icons-/-Icon-Image-100px" transform="translate(419.000000, 110.000000)" fill="#3FA2F7">
                                <path d="M97.029703,51.4866667 L70.9306931,24.1266667 C70.3712871,23.5396667 69.350495,23.5396667 68.7910891,24.1266667 L45.960396,48.0616667 C45.3910891,48.6576667 45.4079208,49.6066667 45.9990099,50.1816667 C46.590099,50.7566667 47.5316832,50.7406667 48.0990099,50.1426667 L69.8613861,27.3296667 L96.4554455,55.2076667 C96.6207921,55.3816667 96.8188119,55.5006667 97.029703,55.5756667 L97.029703,66.6666667 L56.0742574,66.6666667 L22.8425743,32.1216667 C22.2821782,31.5406667 21.2722772,31.5406667 20.7118812,32.1216667 L2.97029703,50.5646667 L2.97029703,3.66666667 L97.029703,3.66666667 L97.029703,51.4866667 Z M2.97029703,66.6666667 L2.97029703,54.8446667 C2.99306931,54.8226667 3.02376238,54.8156667 3.04554455,54.7926667 L21.7772277,35.3186667 L51.9316832,66.6666667 L2.97029703,66.6666667 Z M98.5148515,0.666666667 C99.3346535,0.666666667 100,1.33766667 100,2.16666667 L100,68.1666667 C100,68.9956667 99.3346535,69.6666667 98.5148515,69.6666667 L1.48514851,69.6666667 C0.665346535,69.6666667 0,68.9956667 0,68.1666667 L0,2.16666667 C0,1.33766667 0.665346535,0.666666667 1.48514851,0.666666667 L98.5148515,0.666666667 Z M42.5742574,32.6667667 C47.4881188,32.6667667 51.4851485,28.6287667 51.4851485,23.6667667 C51.4851485,18.7047667 47.4881188,14.6667667 42.5742574,14.6667667 C37.660396,14.6667667 33.6633663,18.7047667 33.6633663,23.6667667 C33.6633663,28.6287667 37.660396,32.6667667 42.5742574,32.6667667 Z M42.5742574,17.6667667 C45.850495,17.6667667 48.5148515,20.3577667 48.5148515,23.6667667 C48.5148515,26.9757667 45.850495,29.6667667 42.5742574,29.6667667 C39.2980198,29.6667667 36.6336634,26.9757667 36.6336634,23.6667667 C36.6336634,20.3577667 39.2980198,17.6667667 42.5742574,17.6667667 Z" id="Icon"></path>
                            </g>
                        </g>
                    </g>
                </g>
            </g>
        </g>
    </g>
</svg>