<?xml version="1.0" encoding="UTF-8"?>
<svg width="705px" height="640px" viewBox="0 0 705 640" version="1.1" xmlns="http://www.w3.org/2000/svg" xmlns:xlink="http://www.w3.org/1999/xlink">
    <!-- Generator: Sketch 45.1 (43504) - http://www.bohemiancoding.com/sketch -->
    <title>Group</title>
    <desc>Created with Sketch.</desc>
    <defs>
        <path d="M0,3.99455252 C0,1.78842208 1.7948401,0 4.00362262,0 L939.996377,0 C942.207517,0 944,1.78460505 944,3.99455252 L944,652 L0,652 L0,3.99455252 Z" id="path-1"></path>
        <rect id="path-2" x="0" y="0" width="940" height="620"></rect>
        <rect id="path-4" x="0" y="0" width="293" height="513"></rect>
    </defs>
    <g id="Components" stroke="none" stroke-width="1" fill="none" fill-rule="evenodd">
        <g id="Headers" transform="translate(-735.000000, -11273.000000)">
            <g id="Header-#14" transform="translate(0.000000, 11013.000000)">
                <g id="Image">
                    <g id="Group" transform="translate(736.000000, 260.000000)">
                        <g id="Images-/-Browser-Frame" transform="translate(166.000000, 0.000000)">
                            <g id="Browser">
                                <g id="Rectangle">
                                    <use fill="#E4F1FD" fill-rule="evenodd" xlink:href="#path-1"></use>
                                    <path stroke="#3FA2F7" stroke-width="2" d="M1,651 L943,651 L943,3.99455252 C943,2.33886468 941.657209,1 939.996377,1 L4.00362262,1 C2.34571289,1 1,2.34211839 1,3.99455252 L1,651 Z"></path>
                                </g>
                                <path d="M0,30 C0,29.4477153 0.452573091,29 1.0010684,29 L942.998932,29 C943.551806,29 944,29.4438648 944,30 L944,31 L0,31 L0,30 Z" id="Rectangle" fill="#3FA2F7"></path>
                                <g id="Circles" transform="translate(15.000000, 12.000000)" fill="#3FA2F7">
                                    <circle id="Oval" cx="4" cy="4" r="4"></circle>
                                    <circle id="Oval" cx="18" cy="4" r="4"></circle>
                                    <circle id="Oval" cx="32" cy="4" r="4"></circle>
                                </g>
                            </g>
                            <g id="Screen" transform="translate(2.000000, 30.000000)">
                                <mask id="mask-3" fill="white">
                                    <use xlink:href="#path-2"></use>
                                </mask>
                                <use id="Mask" fill="#FFFFFF" xlink:href="#path-2"></use>
                                <path d="M516.029703,305.486667 L489.930693,278.126667 C489.371287,277.539667 488.350495,277.539667 487.791089,278.126667 L464.960396,302.061667 C464.391089,302.657667 464.407921,303.606667 464.99901,304.181667 C465.590099,304.756667 466.531683,304.740667 467.09901,304.142667 L488.861386,281.329667 L515.455446,309.207667 C515.620792,309.381667 515.818812,309.500667 516.029703,309.575667 L516.029703,320.666667 L475.074257,320.666667 L441.842574,286.121667 C441.282178,285.540667 440.272277,285.540667 439.711881,286.121667 L421.970297,304.564667 L421.970297,257.666667 L516.029703,257.666667 L516.029703,305.486667 Z M421.970297,320.666667 L421.970297,308.844667 C421.993069,308.822667 422.023762,308.815667 422.045545,308.792667 L440.777228,289.318667 L470.931683,320.666667 L421.970297,320.666667 Z M517.514851,254.666667 C518.334653,254.666667 519,255.337667 519,256.166667 L519,322.166667 C519,322.995667 518.334653,323.666667 517.514851,323.666667 L420.485149,323.666667 C419.665347,323.666667 419,322.995667 419,322.166667 L419,256.166667 C419,255.337667 419.665347,254.666667 420.485149,254.666667 L517.514851,254.666667 Z M461.574257,286.666767 C466.488119,286.666767 470.485149,282.628767 470.485149,277.666767 C470.485149,272.704767 466.488119,268.666767 461.574257,268.666767 C456.660396,268.666767 452.663366,272.704767 452.663366,277.666767 C452.663366,282.628767 456.660396,286.666767 461.574257,286.666767 Z M461.574257,271.666767 C464.850495,271.666767 467.514851,274.357767 467.514851,277.666767 C467.514851,280.975767 464.850495,283.666767 461.574257,283.666767 C458.29802,283.666767 455.633663,280.975767 455.633663,277.666767 C455.633663,274.357767 458.29802,271.666767 461.574257,271.666767 Z" id="Icon" fill="#3FA2F7" mask="url(#mask-3)"></path>
                            </g>
                        </g>
                        <g id="Images-/-iPhone-/-iPhone-330px" transform="translate(0.000000, 154.000000)">
                            <g id="iPhone">
                                <path d="M328,634 C328,653.940889 311.963919,670 292,670 L41,670 C20.5474171,670 4,653.940889 4,634 L4,36 C4,16.176709 20.5474171,0 41,0 L292,0 C311.963919,0 328,16.176709 328,36 L328,634 L328,634 Z" id="Shape" stroke="#3FA2F7" stroke-width="2" fill="#E4F1FD"></path>
                                <polygon id="Shape" fill="#3FA2F7" points="316 75 314.99322 75 20.0067797 75 19 75 19 76.0038835 19 590.996117 19 592 20.0067797 592 314.99322 592 316 592 316 590.996117 316 76.0038835"></polygon>
                                <path d="M191,42 C191,43.1048 190.13652,44 189,44 L144,44 C142.86348,44 142,43.1048 142,42 C142,40.8952 142.86348,40 144,40 L189,40 C190.13652,40 191,40.8952 191,42 L191,42 Z" id="Shape" stroke="#3FA2F7" stroke-width="2"></path>
                                <path d="M189,628.5 C189,641.478546 178.478546,652 165.5,652 C152.521454,652 142,641.478546 142,628.5 C142,615.520309 152.521454,605 165.5,605 C178.478546,605 189,615.520309 189,628.5 L189,628.5 Z" id="Oval" stroke="#3FA2F7" stroke-width="2"></path>
                                <path d="M171,21.9998031 C171,24.7618054 168.761412,27 166.000197,27 C163.238195,27 161,24.7618054 161,21.9998031 C161,19.2389823 163.238195,17 166.000197,17 C168.761412,17 171,19.2389823 171,21.9998031 L171,21.9998031 Z" id="Oval" stroke="#3FA2F7" stroke-width="2"></path>
                                <path d="M119,42.000179 C119,44.7609108 116.760911,47 114.000179,47 C111.238015,47 109,44.7609108 109,42.000179 C109,39.2380151 111.238015,37 114.000179,37 C116.760911,37 119,39.2380151 119,42.000179 L119,42.000179 Z" id="Oval" stroke="#3FA2F7" stroke-width="2"></path>
                                <path d="M331,145 L328,145 L328,192 L331,192 C331.7452,192 332,191.561975 332,191 L332,146 C332,145.438025 331.7452,145 331,145 L331,145 Z" id="Shape" stroke="#3FA2F7" stroke-width="2"></path>
                                <path d="M4,84 L3,84 C2.6548,84 2,84.4312759 2,85 L2,105 C2,105.568724 2.6548,106 3,106 L4,106 L4,84 L4,84 Z" id="Shape" stroke="#3FA2F7" stroke-width="2"></path>
                                <path d="M0.666666667,207 C0.311809524,207 0,207.438025 0,208 L0,253 C0,253.561975 0.311809524,254 0.666666667,254 L4,254 L4,207 L0.666666667,207 Z" id="Shape" stroke="#3FA2F7" stroke-width="2"></path>
                                <path d="M0.666666667,145 C0.311809524,145 0,145.438025 0,146 L0,191 C0,191.561975 0.311809524,192 0.666666667,192 L4,192 L4,145 L0.666666667,145 Z" id="Shape" stroke="#3FA2F7" stroke-width="2"></path>
                            </g>
                            <g id="Screen" transform="translate(21.000000, 77.000000)">
                                <mask id="mask-5" fill="white">
                                    <use xlink:href="#path-4"></use>
                                </mask>
                                <use id="Mask" fill="#FFFFFF" xlink:href="#path-4"></use>
                                <path d="M178.6,267.898 L160.148,249.354 C159.922,249.128 159.617,249 159.297,249 C158.978,249 158.672,249.128 158.447,249.354 L142.35,265.531 C141.882,266 141.884,266.76 142.354,267.227 C142.825,267.695 143.584,267.694 144.051,267.223 L159.297,251.902 L177.95,270.646 C178.132,270.83 178.363,270.921 178.6,270.961 L178.6,278.6 L150.296,278.6 L126.969,255.35 C126.502,254.884 125.743,254.884 125.276,255.35 L113.401,267.187 L113.401,235.401 L178.6,235.401 L178.6,267.898 Z M113.401,278.6 L113.401,270.575 L126.122,257.895 L146.896,278.6 L113.401,278.6 Z M140.0004,256.0008 C136.4164,256.0008 133.5004,253.0848 133.5004,249.5008 C133.5004,245.9168 136.4164,243.0008 140.0004,243.0008 C143.5844,243.0008 146.5004,245.9168 146.5004,249.5008 C146.5004,253.0848 143.5844,256.0008 140.0004,256.0008 Z M140.0004,245.4008 C137.7394,245.4008 135.9004,247.2398 135.9004,249.5008 C135.9004,251.7608 137.7394,253.5998 140.0004,253.5998 C142.2614,253.5998 144.1004,251.7608 144.1004,249.5008 C144.1004,247.2398 142.2614,245.4008 140.0004,245.4008 Z M179.8,233 L112.201,233 C111.537,233 111,233.538 111,234.201 L111,279.8 C111,280.463 111.537,281 112.201,281 L179.8,281 C180.463,281 181,280.463 181,279.8 L181,234.201 C181,233.538 180.463,233 179.8,233 L179.8,233 Z" id="Icon" fill="#3FA2F7" mask="url(#mask-5)"></path>
                            </g>
                        </g>
                    </g>
                </g>
            </g>
        </g>
    </g>
</svg>