<?xml version="1.0" encoding="UTF-8"?>
<svg width="420px" height="746px" viewBox="0 0 420 746" version="1.1" xmlns="http://www.w3.org/2000/svg" xmlns:xlink="http://www.w3.org/1999/xlink">
    <!-- Generator: Sketch 45.1 (43504) - http://www.bohemiancoding.com/sketch -->
    <title>iPhone</title>
    <desc>Created with Sketch.</desc>
    <defs>
        <path d="M369,853 L49,853 C24.0417773,853 3,832.554595 3,807 L3,46 C3,20.5951236 24.0417773,0 49,0 L369,0 C394.608441,0 415,20.5951236 415,46 L415,807 C415,832.554595 394.608441,853 369,853 Z" id="path-1"></path>
        <rect id="path-2" x="0" y="0" width="376" height="660"></rect>
    </defs>
    <g id="Components" stroke="none" stroke-width="1" fill="none" fill-rule="evenodd">
        <g id="Headers" transform="translate(-804.000000, -154.000000)">
            <g id="Header-#1">
                <g id="Image">
                    <g id="Images-/-iPhone-/-iPhone-420px" transform="translate(804.000000, 154.000000)">
                        <g id="iPhone">
                            <g id="Stroke">
                                <use fill="#E4F1FD" fill-rule="evenodd" xlink:href="#path-1"></use>
                                <path stroke="#3FA2F7" stroke-width="3" d="M369,851.5 C393.761103,851.5 413.5,831.745094 413.5,807 L413.5,46 C413.5,21.3520037 393.708679,1.5 369,1.5 L49,1.5 C24.713707,1.5 4.5,21.5790369 4.5,46 L4.5,807 C4.5,831.518555 24.6607855,851.5 49,851.5 L369,851.5 Z"></path>
                            </g>
                            <polygon id="Fill" fill="#3FA2F7" points="398 90 396.613139 90 19.3868613 90 18 90 18 91.3655031 18 753.634497 18 755 19.3868613 755 396.613139 755 398 755 398 753.634497 398 91.3655031"></polygon>
                            <path d="M239,800 C239,816.568357 225.568357,830 209,830 C192.431643,830 179,816.568357 179,800 C179,783.430182 192.431643,770 209,770 C225.568357,770 239,783.430182 239,800 L239,800 Z" id="Oval" stroke="#3FA2F7" stroke-width="2"></path>
                            <path d="M216,28.499744 C216,32.090347 213.089835,35 209.500256,35 C205.909653,35 203,32.090347 203,28.499744 C203,24.910677 205.909653,22 209.500256,22 C213.089835,22 216,24.910677 216,28.499744 L216,28.499744 Z" id="Oval" stroke="#3FA2F7" stroke-width="2"></path>
                            <path d="M149,53.5002327 C149,57.0891841 146.089184,60 142.500233,60 C138.90942,60 136,57.0891841 136,53.5002327 C136,49.9094196 138.90942,47 142.500233,47 C146.089184,47 149,49.9094196 149,53.5002327 L149,53.5002327 Z" id="Oval" stroke="#3FA2F7" stroke-width="2"></path>
                            <path d="M240,54 C240,54.881 238.907433,56 238,56 L180,56 C179.092567,56 178,54.881 178,54 C178,52.119 179.092567,51 180,51 L238,51 C238.907433,51 240,52.119 240,54 L240,54 Z" id="Shape" stroke="#3FA2F7" stroke-width="2"></path>
                            <path d="M414,186 L414,244 L418.6,244 C418.92764,244 419,243.938879 419,244 L419,186 C419,186.061121 418.92764,186 418.6,186 L414,186 Z" id="Shape" stroke="#3FA2F7" stroke-width="2"></path>
                            <path d="M3,107 L2,107 C1.6548,107 1,107.548897 1,108 L1,134 C1,134.451103 1.6548,135 2,135 L3,135 L3,107 L3,107 Z" id="Shape" stroke="#3FA2F7" stroke-width="2"></path>
                            <path d="M4,186 L1.66666667,186 C1.61788638,186 1.35352965,186.087318 1.12859343,186.210986 C1.08057539,186.237386 1.03717723,186.263691 1,186.288314 L1,243.711686 C1.03717723,243.736309 1.08057539,243.762614 1.12859343,243.789014 C1.35352965,243.912682 1.61788638,244 1.66666667,244 L4,244 L4,186 Z" id="Shape" stroke="#3FA2F7" stroke-width="2"></path>
                            <path d="M4,265 L1.66666667,265 C1.61788638,265 1.35352965,265.087318 1.12859343,265.210986 C1.08057539,265.237386 1.03717723,265.263691 1,265.288314 L1,322.711686 C1.03717723,322.736309 1.08057539,322.762614 1.12859343,322.789014 C1.35352965,322.912682 1.61788638,323 1.66666667,323 L4,323 L4,265 Z" id="Shape" stroke="#3FA2F7" stroke-width="2"></path>
                        </g>
                        <g id="Screen" transform="translate(20.000000, 92.000000)">
                            <mask id="mask-3" fill="white">
                                <use xlink:href="#path-2"></use>
                            </mask>
                            <use id="Mask" stroke="#3FA2F7" stroke-width="2" fill="#FFFFFF" xlink:href="#path-2"></use>
                            <path d="M236.029703,345.82 L209.930693,318.46 C209.371287,317.873 208.350495,317.873 207.791089,318.46 L184.960396,342.395 C184.391089,342.991 184.407921,343.94 184.99901,344.515 C185.590099,345.09 186.531683,345.074 187.09901,344.476 L208.861386,321.663 L235.455446,349.541 C235.620792,349.715 235.818812,349.834 236.029703,349.909 L236.029703,361 L195.074257,361 L161.842574,326.455 C161.282178,325.874 160.272277,325.874 159.711881,326.455 L141.970297,344.898 L141.970297,298 L236.029703,298 L236.029703,345.82 Z M141.970297,361 L141.970297,349.178 C141.993069,349.156 142.023762,349.149 142.045545,349.126 L160.777228,329.652 L190.931683,361 L141.970297,361 Z M237.514851,295 C238.334653,295 239,295.671 239,296.5 L239,362.5 C239,363.329 238.334653,364 237.514851,364 L140.485149,364 C139.665347,364 139,363.329 139,362.5 L139,296.5 C139,295.671 139.665347,295 140.485149,295 L237.514851,295 Z M181.574257,327.0001 C186.488119,327.0001 190.485149,322.9621 190.485149,318.0001 C190.485149,313.0381 186.488119,309.0001 181.574257,309.0001 C176.660396,309.0001 172.663366,313.0381 172.663366,318.0001 C172.663366,322.9621 176.660396,327.0001 181.574257,327.0001 Z M181.574257,312.0001 C184.850495,312.0001 187.514851,314.6911 187.514851,318.0001 C187.514851,321.3091 184.850495,324.0001 181.574257,324.0001 C178.29802,324.0001 175.633663,321.3091 175.633663,318.0001 C175.633663,314.6911 178.29802,312.0001 181.574257,312.0001 Z" id="Icon" fill="#3FA2F7" mask="url(#mask-3)"></path>
                        </g>
                    </g>
                </g>
            </g>
        </g>
    </g>
</svg>