
<svg width="6px" height="11px" viewBox="0 0 6 11" version="1.1" xmlns="http://www.w3.org/2000/svg" xmlns:xlink="http://www.w3.org/1999/xlink">
    <!-- Generator: Sketch 46.2 (44496) - http://www.bohemiancoding.com/sketch -->
    <desc>Created with Sketch.</desc>
    <defs></defs>
    <g id="Components" stroke="none" stroke-width="1" fill="none" fill-rule="evenodd">
        <g id="Headers" transform="translate(-1102.000000, -3050.000000)" fill="#3FA2F7">
            <g id="Header-#4" transform="translate(-1.000000, 2483.000000)">
                <g id="Icon" transform="translate(1105.500000, 572.500000) scale(-1, 1) translate(-1105.500000, -572.500000) translate(1088.000000, 555.000000)">
                    <path d="M19.0200924,22.9058529 L14.1840287,17.9545588 C13.9386571,17.7035 13.9386571,17.2965 14.1840287,17.0454412 L19.0200924,12.0941471 C19.1426203,11.9686176 19.3415703,11.9686176 19.4640982,12.0941471 L19.9081041,12.5487059 C20.030632,12.6742353 20.030632,12.8777353 19.9081041,13.0032647 L15.7377334,17.2725588 C15.6152055,17.3980882 15.6152055,17.6019118 15.7377334,17.7271176 L19.9081041,21.9967353 C20.030632,22.1222647 20.030632,22.3257647 19.9081041,22.4512941 L19.4640982,22.9058529 C19.3415703,23.0313824 19.1426203,23.0313824 19.0200924,22.9058529"></path>
                </g>
            </g>
        </g>
    </g>
</svg>
