<?xml version="1.0" encoding="UTF-8"?>
<svg width="17px" height="17px" viewBox="0 0 17 17" version="1.1" xmlns="http://www.w3.org/2000/svg" xmlns:xlink="http://www.w3.org/1999/xlink">
    <!-- Generator: Sketch 45.1 (43504) - http://www.bohemiancoding.com/sketch -->
    <title>Icon</title>
    <desc>Created with Sketch.</desc>
    <defs></defs>
    <g id="Components" stroke="none" stroke-width="1" fill="none" fill-rule="evenodd">
        <g id="Headers" transform="translate(-1313.000000, -2557.000000)" fill="#297FCA">
            <g id="Header-#4" transform="translate(0.000000, 2503.000000)">
                <g id="Menu" transform="translate(70.000000, 40.000000)">
                    <path d="M1259.5,25.375 L1258.9395,25.375 C1258.488,25.375 1258.088,25.0745 1257.974,24.6375 C1257.7405,23.741 1257.5,22.426 1257.5,20.8125 C1257.5,18.5065 1256.6695,15.8225 1253.0565,15.161 C1252.815,15.1165 1252.634,14.914 1252.634,14.6685 L1252.634,14.5 C1252.634,14.224 1252.4105,14 1252.1345,14 L1251.134,14 C1250.858,14 1250.6345,14.224 1250.6345,14.5 L1250.6345,14.672 C1250.6345,14.9135 1250.457,15.1135 1250.219,15.1565 C1246.5845,15.81 1245.75,18.501 1245.75,20.8125 C1245.75,22.415 1245.5075,23.735 1245.273,24.637 C1245.159,25.074 1244.759,25.375 1244.3075,25.375 L1243.5,25.375 C1243.224,25.375 1243,25.599 1243,25.875 L1243,26.875 C1243,27.151 1243.224,27.375 1243.5,27.375 L1247.365,27.375 C1247.602,27.375 1247.81,27.541 1247.8525,27.774 C1248.189,29.6105 1249.696,31 1251.5,31 C1253.304,31 1254.811,29.6105 1255.1475,27.774 C1255.19,27.541 1255.398,27.375 1255.635,27.375 L1259.5,27.375 C1259.776,27.375 1260,27.151 1260,26.875 L1260,25.875 C1260,25.599 1259.776,25.375 1259.5,25.375 L1259.5,25.375 Z M1247.75,20.8125 C1247.75,18.2565 1248.917,17.105 1251.625,17.0095 C1254.333,17.105 1255.5,18.2565 1255.5,20.8125 C1255.5,22.406 1255.7105,23.751 1255.9465,24.76 C1256.0205,25.075 1255.7845,25.375 1255.4605,25.375 L1247.7895,25.375 C1247.4655,25.375 1247.23,25.075 1247.3035,24.76 C1247.5395,23.751 1247.75,22.406 1247.75,20.8125 L1247.75,20.8125 Z M1251.5,29 C1250.6625,29 1249.9655,28.299 1249.814,27.375 L1253.186,27.375 C1253.0345,28.299 1252.3375,29 1251.5,29 L1251.5,29 Z" id="Icon"></path>
                </g>
            </g>
        </g>
    </g>
</svg>