<?xml version="1.0" encoding="UTF-8"?>
<svg width="20px" height="5px" viewBox="0 0 20 5" version="1.1" xmlns="http://www.w3.org/2000/svg" xmlns:xlink="http://www.w3.org/1999/xlink">
    <!-- Generator: Sketch 45.1 (43504) - http://www.bohemiancoding.com/sketch -->
    <title>Icon</title>
    <desc>Created with Sketch.</desc>
    <defs></defs>
    <g id="Components" stroke="none" stroke-width="1" fill="none" fill-rule="evenodd">
        <g id="Headers" transform="translate(-1350.000000, -2563.000000)" fill="#297FCA">
            <g id="Header-#4" transform="translate(0.000000, 2503.000000)">
                <g id="Menu" transform="translate(70.000000, 40.000000)">
                    <path d="M1282.5,25 C1281.11929,25 1280,23.8807119 1280,22.5 C1280,21.1192881 1281.11929,20 1282.5,20 C1283.88071,20 1285,21.1192881 1285,22.5 C1285,23.8807119 1283.88071,25 1282.5,25 Z M1290,25 C1288.61929,25 1287.5,23.8807119 1287.5,22.5 C1287.5,21.1192881 1288.61929,20 1290,20 C1291.38071,20 1292.5,21.1192881 1292.5,22.5 C1292.5,23.8807119 1291.38071,25 1290,25 Z M1297.5,25 C1296.11929,25 1295,23.8807119 1295,22.5 C1295,21.1192881 1296.11929,20 1297.5,20 C1298.88071,20 1300,21.1192881 1300,22.5 C1300,23.8807119 1298.88071,25 1297.5,25 Z" id="Icon"></path>
                </g>
            </g>
        </g>
    </g>
</svg>