<?xml version="1.0" encoding="UTF-8"?>
<svg width="16px" height="17px" viewBox="0 0 16 17" version="1.1" xmlns="http://www.w3.org/2000/svg" xmlns:xlink="http://www.w3.org/1999/xlink">
    <!-- Generator: Sketch 45.2 (43514) - http://www.bohemiancoding.com/sketch -->
    <title>Icon</title>
    <desc>Created with Sketch.</desc>
    <defs></defs>
    <g id="Components" stroke="none" stroke-width="1" fill="none" fill-rule="evenodd" opacity="0.4">
        <g id="Forms" transform="translate(-658.000000, -3516.000000)" fill="#3FA2F7">
            <g id="Form-#8" transform="translate(0.000000, 3389.000000)">
                <g id="Input" transform="translate(638.000000, 105.000000)">
                    <path d="M24.1541433,30.6583876 C24.4377708,30.7662219 24.7541988,30.7312619 25.0088847,30.5653251 L33.5355576,25.006195 L26.5027528,31.8593369 C26.3131854,32.0439847 26.2051368,32.3000297 26.2041721,32.5673997 L26.1800541,38.5046885 C26.1781247,39.0379514 26.8915347,39.1940404 27.1032906,38.7065701 L28.981117,34.3833494 C29.096401,34.1184413 29.4094525,34.0115918 29.6573854,34.1529089 L34.6372672,36.9866373 C34.9498363,37.164884 35.3371712,36.9447838 35.3535714,36.5799198 L35.9994511,22.5156653 C36.0158513,22.15671 35.6617993,21.9011574 35.3357241,22.0370582 L20.3005714,28.2865249 C19.8929774,28.4559085 19.9021423,29.0477663 20.3145598,29.2038552 L24.1541433,30.6583876 Z" id="Icon"></path>
                </g>
            </g>
        </g>
    </g>
</svg>