<?xml version="1.0" encoding="UTF-8"?>
<svg width="11px" height="18px" viewBox="0 0 11 18" version="1.1" xmlns="http://www.w3.org/2000/svg" xmlns:xlink="http://www.w3.org/1999/xlink">
    <!-- Generator: Sketch 45.2 (43514) - http://www.bohemiancoding.com/sketch -->
    <title>Icon</title>
    <desc>Created with Sketch.</desc>
    <defs></defs>
    <g id="Components" stroke="none" stroke-width="2" fill="none" fill-rule="evenodd">
        <g id="Footers" transform="translate(-641.000000, -2673.000000)" fill="#3FA2F7">
            <g id="Footer-#14" transform="translate(0.000000, 2633.000000)">
                 <path d="M646.959371,40.0181775 C646.823707,40.0075891 646.686472,40.0017655 646.548713,40.0001772 C646.41043,39.9991184 646.273718,40.0028243 646.13753,40.0107656 C642.172367,40.2474171 639.829412,44.6532632 641.598283,48.2496237 L645.932201,57.7077396 C646.12234,58.0936879 646.66552,58.0984527 646.861945,57.7156809 L651.357192,48.3348606 C653.187348,44.7697359 650.919296,40.3236538 646.959371,40.0181775 L646.959371,40.0181775 Z M646.480095,48.011384 C645.183691,47.9997368 644.141854,46.9281875 644.153377,45.6173398 C644.164377,44.3059626 645.224547,43.2529432 646.520427,43.264061 C647.816831,43.2751789 648.858669,44.3472575 648.847145,45.6581053 C648.836145,46.968953 647.776499,48.0225019 646.480095,48.011384 L646.480095,48.011384 Z" id="Icon"></path> 
            </g>
        </g>
    </g>
</svg>