<?xml version="1.0" encoding="UTF-8"?>
<svg width="16px" height="16px" viewBox="0 0 16 16" version="1.1" xmlns="http://www.w3.org/2000/svg" xmlns:xlink="http://www.w3.org/1999/xlink">
    <!-- Generator: Sketch 45.2 (43514) - http://www.bohemiancoding.com/sketch -->
    <title>Icon</title>
    <desc>Created with Sketch.</desc>
    <defs></defs>
    <g id="Base" stroke="none" stroke-width="1" fill="#e4f1fd" fill-rule="evenodd">
        <rect width="16" height="16" fill='#e4f1fd'></rect>
        <g id="Controls-/-Inputs-Blue-/-Input-Blue-740px" transform="translate(-720.000000, -40.000000)" fill-rule="nonzero" fill="#3FA2F7">
            <path d="M720.528767,45.6246212 C720.195107,45.6246212 719.924621,45.3559921 719.924621,45.0246212 C719.924621,44.6932504 720.195107,44.4246212 720.528767,44.4246212 L734.320475,44.4246212 C734.654136,44.4246212 734.924621,44.6932504 734.924621,45.0246212 C734.924621,45.3559921 734.654136,45.6246212 734.320475,45.6246212 L720.528767,45.6246212 Z M722.716836,48.0246212 C722.391423,48.0246212 722.127623,47.7559921 722.127623,47.4246212 C722.127623,47.0932504 722.391423,46.8246212 722.716836,46.8246212 L732.132406,46.8246212 C732.45782,46.8246212 732.72162,47.0932504 732.72162,47.4246212 C732.72162,47.7559921 732.45782,48.0246212 732.132406,48.0246212 L722.716836,48.0246212 Z M725.126446,50.4246212 C724.848449,50.4246212 724.623088,50.1559921 724.623088,49.8246212 C724.623088,49.4932504 724.848449,49.2246212 725.126446,49.2246212 L729.722796,49.2246212 C730.000794,49.2246212 730.226155,49.4932504 730.226155,49.8246212 C730.226155,50.1559921 730.000794,50.4246212 729.722796,50.4246212 L725.126446,50.4246212 Z" id="Icon" transform="translate(727.424621, 47.424621) rotate(-45.000000) translate(-727.424621, -47.424621) "></path>
        </g>
    </g>
</svg>