<?xml version="1.0" encoding="UTF-8"?>
<svg width="18px" height="18px" viewBox="0 0 18 18" version="1.1" xmlns="http://www.w3.org/2000/svg" xmlns:xlink="http://www.w3.org/1999/xlink">
    <!-- Generator: Sketch 45.1 (43504) - http://www.bohemiancoding.com/sketch -->
    <title>Icon</title>
    <desc>Created with Sketch.</desc>
    <defs></defs>
    <g id="Components" stroke="none" stroke-width="1" fill="none" fill-rule="evenodd">
        <g id="Headers" transform="translate(-1213.000000, -4067.000000)" fill="#297FCA">
            <g id="Header-#6" transform="translate(0.000000, 4005.000000)">
                <g id="Menu" transform="translate(70.000000, 50.000000)">
                    <path d="M1160.8502,28.3942243 L1156.19288,23.7024475 C1156.01802,23.5265637 1156.00054,23.2555381 1156.13579,23.047769 C1158.04532,20.1189441 1157.59995,16.0911028 1154.78272,13.6853008 C1152.07195,11.3710406 1147.94589,11.4502397 1145.31946,13.8611846 C1142.30475,16.6285255 1142.22863,21.3388164 1145.09215,24.2043848 C1147.53395,26.6482436 1151.31339,26.9449831 1154.08896,25.1090034 C1154.29724,24.9711763 1154.57033,24.9891761 1154.74621,25.1660885 L1159.39324,29.848094 C1159.59433,30.050206 1159.92038,30.0507203 1160.12198,29.8491225 L1160.84917,29.1214163 C1161.04974,28.9208471 1161.05026,28.5958221 1160.8502,28.3942243 L1160.8502,28.3942243 Z M1146.54653,22.748458 C1144.55935,20.7597371 1144.55935,17.523887 1146.54653,15.5351661 C1148.53371,13.5464452 1151.76699,13.5459309 1153.75416,15.5351661 C1155.74134,17.523887 1155.74134,20.7597371 1153.75416,22.748458 C1151.76699,24.7371789 1148.53371,24.7371789 1146.54653,22.748458 L1146.54653,22.748458 Z" id="Icon"></path>
                </g>
            </g>
        </g>
    </g>
</svg>