
<svg width="20px" height="20px" viewBox="0 0 20 20" version="1.1" xmlns="http://www.w3.org/2000/svg" xmlns:xlink="http://www.w3.org/1999/xlink">
    <!-- Generator: Sketch 46.2 (44496) - http://www.bohemiancoding.com/sketch -->
    <desc>Created with Sketch.</desc>
    <defs></defs>
    <g id="Components" stroke="none" stroke-width="1" fill="none" fill-rule="evenodd">
        <g id="Portfolio" transform="translate(-673.000000, -1688.000000)" fill="#3FA2F7">
            <g id="Portfolio-#1">
                <g id="Button" transform="translate(673.000000, 1688.000000)">
                    <g id="Icons-/-Icons-/-Icon-Star-Small-Blue">
                        <path d="M10.6342832,0.476062298 L12.5394184,6.65603756 C12.6285609,6.94403641 12.8845599,7.16974979 13.1731302,7.16974979 L19.3319626,7.16974979 C19.9782458,7.16974979 20.2468161,8.00746072 19.7228182,8.40517342 L14.743981,12.1731583 C14.5096962,12.3508719 14.4114109,12.6594421 14.5005534,12.9485838 L16.4039744,19.0822735 C16.6039736,19.7274138 15.8999764,20.2616974 15.3771213,19.8628418 L10.3919984,16.0594285 C10.1582851,15.8811435 9.84171492,15.8805721 9.60800157,16.0582856 L4.62287867,19.8565562 C4.10002362,20.2548403 3.39659786,19.718271 3.59659706,19.0737021 L5.49944659,12.9417267 C5.58916051,12.6531564 5.49087519,12.3365863 5.25659042,12.1588727 L0.277181775,8.40517342 C-0.246816127,8.00746072 0.0217542265,7.16974979 0.668037354,7.16974979 L6.82686984,7.16974979 C7.11601154,7.16974979 7.37201052,6.94403641 7.46115302,6.65603756 L9.36571682,0.490919382 C9.56571602,-0.153649467 10.4348554,-0.16850655 10.6342832,0.476062298" id="Icon"></path>
                    </g>
                </g>
            </g>
        </g>
    </g>
</svg>
