<?xml version="1.0" encoding="UTF-8"?>
<svg width="16px" height="10px" viewBox="0 0 16 10" version="1.1" xmlns="http://www.w3.org/2000/svg" xmlns:xlink="http://www.w3.org/1999/xlink">
    <!-- Generator: Sketch 45.2 (43514) - http://www.bohemiancoding.com/sketch -->
    <title>Icon</title>
    <desc>Created with Sketch.</desc>
    <defs></defs>
    <g id="Components" stroke="none" stroke-width="1" fill="none" fill-rule="evenodd">
        <g id="Price-Tables" transform="translate(-571.000000, -2958.000000)" fill="#3FA2F7">
            <g id="Price-Tables-#4" transform="translate(0.000000, 2451.000000)">
                <g id="Features" transform="translate(149.000000, 199.000000)">
                    <g id="Icons-/-Icons-/-Icon-Feature-16px" transform="translate(422.000000, 308.000000)">
                        <path d="M15.0677221,0.147780909 L5.78413726,8.75154546 L0.932382642,4.25546263 C0.714879245,4.05446128 0.367191332,4.05899515 0.155244591,4.26604165 C-0.0559083424,4.47308815 -0.0511454942,4.80330466 0.166357903,5.00506165 L5.40152179,9.85629724 C5.43565554,9.88878994 5.47852117,9.9069254 5.51900538,9.92883908 C5.53885058,9.9394181 5.55631436,9.95679791 5.57774717,9.96511 C5.64363324,9.9908019 5.71428215,10.0044035 5.78413726,10.0044035 C5.85399236,10.0044035 5.92464128,9.9908019 5.99052734,9.96511 C6.01196016,9.95679791 6.02942394,9.9394181 6.04926914,9.92883908 C6.08975335,9.9069254 6.13261898,9.88878994 6.16675272,9.85629724 L15.8337468,0.897379928 C16.0512502,0.695622934 16.056013,0.36540643 15.8440663,0.158359927 C15.6321196,-0.0486865762 15.2844316,-0.0532204413 15.0677221,0.147780909" id="Icon"></path>
                    </g>
                </g>
            </g>
        </g>
    </g>
</svg>