<?xml version="1.0" encoding="UTF-8"?>
<svg width="17px" height="14px" viewBox="0 0 17 14" version="1.1" xmlns="http://www.w3.org/2000/svg" xmlns:xlink="http://www.w3.org/1999/xlink">
    <!-- Generator: Sketch 45.2 (43514) - http://www.bohemiancoding.com/sketch -->
    <title>Twitter</title>
    <desc>Created with Sketch.</desc>
    <defs></defs>
    <g id="Components" stroke="none" stroke-width="1" fill="none" fill-rule="evenodd">
        <g id="Footers" transform="translate(-1269.000000, -43.000000)" fill="#ffffff">
            <g id="Footer-#1">
                <g id="Social" transform="translate(1184.000000, 42.000000)">
                    <path d="M101.531119,1.25881901 C100.85662,1.66341995 100.111313,1.95767518 99.3147144,2.11511967 C98.6801591,1.42882317 97.7732625,1 96.7692308,1 C94.8446853,1 93.2828078,2.58251898 93.2828078,4.53420268 C93.2828078,4.81141264 93.3127653,5.08009996 93.3726804,5.33891897 C90.4740608,5.1913428 87.9045203,3.78600493 86.1833231,1.645029 C85.8828398,2.16894685 85.7112648,2.77674538 85.7112648,3.42401717 C85.7112648,4.64948255 86.3267562,5.7314088 87.2631565,6.3652238 C86.6921475,6.34817853 86.1533656,6.18759412 85.682215,5.92473807 L85.682215,5.96779981 C85.682215,7.6808497 86.884602,9.10996123 88.4814301,9.43337285 C88.189117,9.51635641 87.8804635,9.55807247 87.5622781,9.55807247 C87.3375965,9.55807247 87.1183617,9.5365416 86.9059354,9.4952741 C87.3498518,10.8988177 88.6371185,11.9210855 90.1635917,11.9484477 C88.9702828,12.8967031 87.4655969,13.4618884 85.8320028,13.4618884 C85.5505834,13.4618884 85.2723413,13.4457403 85,13.413444 C86.5432676,14.4146295 88.3774864,15 90.3465143,15 C96.7624222,15 100.269725,9.61548813 100.269725,4.9446349 C100.269725,4.79077889 100.267001,4.63737144 100.261101,4.48665535 C100.942408,3.98830541 101.534296,3.36615296 102,2.65742847 C101.375431,2.93822691 100.702747,3.12841626 99.9973834,3.21364263 C100.717726,2.77674538 101.270579,2.08416904 101.531119,1.25881901" id="Twitter"></path>
                </g>
            </g>
        </g>
    </g>
</svg>